<?xml version="1.0" encoding="UTF-8" standalone="no"?>
<!DOCTYPE svg PUBLIC "-//W3C//DTD SVG 1.1//EN"
 "http://www.w3.org/Graphics/SVG/1.1/DTD/svg11.dtd">
<!-- Generated by graphviz version 12.2.1 (0)
 -->
<!-- Title: src/Cfg.hpp Pages: 1 -->
<svg width="444pt" height="86pt"
 viewBox="0.00 0.00 444.25 85.50" xmlns="http://www.w3.org/2000/svg" xmlns:xlink="http://www.w3.org/1999/xlink">
<g id="graph0" class="graph" transform="scale(1 1) rotate(0) translate(4 81.5)">
<title>src/Cfg.hpp</title>
<!-- Node1 -->
<g id="Node000001" class="node">
<title>Node1</title>
<g id="a_Node000001"><a xlink:title="Класс Cfg и глобальная переменная config.">
<polygon fill="#999999" stroke="#666666" points="241.5,-77.5 170.75,-77.5 170.75,-56.75 241.5,-56.75 241.5,-77.5"/>
<text text-anchor="middle" x="206.12" y="-64" font-family="Helvetica,sans-Serif" font-size="10.00">src/Cfg.hpp</text>
</a>
</g>
</g>
<!-- Node2 -->
<g id="Node000002" class="node">
<title>Node2</title>
<g id="a_Node000002"><a xlink:title=" ">
<polygon fill="#e0e0e0" stroke="#999999" points="48.25,-20.75 0,-20.75 0,0 48.25,0 48.25,-20.75"/>
<text text-anchor="middle" x="24.12" y="-7.25" font-family="Helvetica,sans-Serif" font-size="10.00">cstdlib</text>
</a>
</g>
</g>
<!-- Node1&#45;&gt;Node2 -->
<g id="edge1_Node000001_Node000002" class="edge">
<title>Node1&#45;&gt;Node2</title>
<g id="a_edge1_Node000001_Node000002"><a xlink:title=" ">
<path fill="none" stroke="#63b8ff" d="M173.59,-56.34C141.48,-46.68 92.55,-31.96 59.5,-22.02"/>
<polygon fill="#63b8ff" stroke="#63b8ff" points="60.56,-18.68 49.97,-19.15 58.54,-25.38 60.56,-18.68"/>
</a>
</g>
</g>
<!-- Node3 -->
<g id="Node000003" class="node">
<title>Node3</title>
<g id="a_Node000003"><a xlink:title=" ">
<polygon fill="#e0e0e0" stroke="#999999" points="125.88,-20.75 66.38,-20.75 66.38,0 125.88,0 125.88,-20.75"/>
<text text-anchor="middle" x="96.12" y="-7.25" font-family="Helvetica,sans-Serif" font-size="10.00">iostream</text>
</a>
</g>
</g>
<!-- Node1&#45;&gt;Node3 -->
<g id="edge2_Node000001_Node000003" class="edge">
<title>Node1&#45;&gt;Node3</title>
<g id="a_edge2_Node000001_Node000003"><a xlink:title=" ">
<path fill="none" stroke="#63b8ff" d="M186.46,-56.34C169.57,-47.93 144.96,-35.68 125.69,-26.09"/>
<polygon fill="#63b8ff" stroke="#63b8ff" points="127.49,-23.08 116.98,-21.75 124.37,-29.34 127.49,-23.08"/>
</a>
</g>
</g>
<!-- Node4 -->
<g id="Node000004" class="node">
<title>Node4</title>
<g id="a_Node000004"><a xlink:title=" ">
<polygon fill="#e0e0e0" stroke="#999999" points="200.38,-20.75 143.88,-20.75 143.88,0 200.38,0 200.38,-20.75"/>
<text text-anchor="middle" x="172.12" y="-7.25" font-family="Helvetica,sans-Serif" font-size="10.00">getopt.h</text>
</a>
</g>
</g>
<!-- Node1&#45;&gt;Node4 -->
<g id="edge3_Node000001_Node000004" class="edge">
<title>Node1&#45;&gt;Node4</title>
<g id="a_edge3_Node000001_Node000004"><a xlink:title=" ">
<path fill="none" stroke="#63b8ff" d="M200.05,-56.34C195.65,-49.25 189.55,-39.44 184.18,-30.79"/>
<polygon fill="#63b8ff" stroke="#63b8ff" points="187.2,-29.01 178.95,-22.36 181.25,-32.71 187.2,-29.01"/>
</a>
</g>
</g>
<!-- Node5 -->
<g id="Node000005" class="node">
<title>Node5</title>
<g id="a_Node000005"><a xlink:title=" ">
<polygon fill="#e0e0e0" stroke="#999999" points="262,-20.75 218.25,-20.75 218.25,0 262,0 262,-20.75"/>
<text text-anchor="middle" x="240.12" y="-7.25" font-family="Helvetica,sans-Serif" font-size="10.00">string</text>
</a>
</g>
</g>
<!-- Node1&#45;&gt;Node5 -->
<g id="edge4_Node000001_Node000005" class="edge">
<title>Node1&#45;&gt;Node5</title>
<g id="a_edge4_Node000001_Node000005"><a xlink:title=" ">
<path fill="none" stroke="#63b8ff" d="M212.2,-56.34C216.6,-49.25 222.7,-39.44 228.07,-30.79"/>
<polygon fill="#63b8ff" stroke="#63b8ff" points="231,-32.71 233.3,-22.36 225.05,-29.01 231,-32.71"/>
</a>
</g>
</g>
<!-- Node6 -->
<g id="Node000006" class="node">
<title>Node6</title>
<g id="a_Node000006"><a xlink:href="config_8hpp.html" target="_top" xlink:title="Константы">
<polygon fill="white" stroke="#666666" points="346.25,-20.75 280,-20.75 280,0 346.25,0 346.25,-20.75"/>
<text text-anchor="middle" x="313.12" y="-7.25" font-family="Helvetica,sans-Serif" font-size="10.00">config.hpp</text>
</a>
</g>
</g>
<!-- Node1&#45;&gt;Node6 -->
<g id="edge5_Node000001_Node000006" class="edge">
<title>Node1&#45;&gt;Node6</title>
<g id="a_edge5_Node000001_Node000006"><a xlink:title=" ">
<path fill="none" stroke="#63b8ff" d="M225.25,-56.34C241.61,-47.97 265.4,-35.79 284.1,-26.22"/>
<polygon fill="#63b8ff" stroke="#63b8ff" points="285.51,-29.44 292.81,-21.77 282.32,-23.21 285.51,-29.44"/>
</a>
</g>
</g>
<!-- Node7 -->
<g id="Node000007" class="node">
<title>Node7</title>
<g id="a_Node000007"><a xlink:title=" ">
<polygon fill="#e0e0e0" stroke="#999999" points="436.25,-20.75 364,-20.75 364,0 436.25,0 436.25,-20.75"/>
<text text-anchor="middle" x="400.12" y="-7.25" font-family="Helvetica,sans-Serif" font-size="10.00">INIReader.h</text>
</a>
</g>
</g>
<!-- Node1&#45;&gt;Node7 -->
<g id="edge6_Node000001_Node000007" class="edge">
<title>Node1&#45;&gt;Node7</title>
<g id="a_edge6_Node000001_Node000007"><a xlink:title=" ">
<path fill="none" stroke="#63b8ff" d="M240.81,-56.34C272.57,-47.37 319.8,-34.04 354.59,-24.23"/>
<polygon fill="#63b8ff" stroke="#63b8ff" points="355.29,-27.67 363.96,-21.58 353.38,-20.93 355.29,-27.67"/>
</a>
</g>
</g>
</g>
</svg>
