<?xml version="1.0" encoding="UTF-8" standalone="no"?>
<!DOCTYPE svg PUBLIC "-//W3C//DTD SVG 1.1//EN"
 "http://www.w3.org/Graphics/SVG/1.1/DTD/svg11.dtd">
<!-- Generated by graphviz version 12.2.1 (0)
 -->
<!-- Title: src/Cfg.hpp Pages: 1 -->
<svg width="266pt" height="199pt"
 viewBox="0.00 0.00 266.12 199.00" xmlns="http://www.w3.org/2000/svg" xmlns:xlink="http://www.w3.org/1999/xlink">
<g id="graph0" class="graph" transform="scale(1 1) rotate(0) translate(4 195)">
<title>src/Cfg.hpp</title>
<!-- Node1 -->
<g id="Node000001" class="node">
<title>Node1</title>
<g id="a_Node000001"><a xlink:title="Класс Cfg и глобальная переменная config.">
<polygon fill="#999999" stroke="#666666" points="163.38,-191 92.62,-191 92.62,-170.25 163.38,-170.25 163.38,-191"/>
<text text-anchor="middle" x="128" y="-177.5" font-family="Helvetica,sans-Serif" font-size="10.00">src/Cfg.hpp</text>
</a>
</g>
</g>
<!-- Node2 -->
<g id="Node000002" class="node">
<title>Node2</title>
<g id="a_Node000002"><a xlink:href="Cfg_8cpp.html" target="_top" xlink:title=" ">
<polygon fill="white" stroke="#666666" points="70,-134.25 0,-134.25 0,-113.5 70,-113.5 70,-134.25"/>
<text text-anchor="middle" x="35" y="-120.75" font-family="Helvetica,sans-Serif" font-size="10.00">src/Cfg.cpp</text>
</a>
</g>
</g>
<!-- Node1&#45;&gt;Node2 -->
<g id="edge1_Node000001_Node000002" class="edge">
<title>Node1&#45;&gt;Node2</title>
<g id="a_edge1_Node000001_Node000002"><a xlink:title=" ">
<path fill="none" stroke="#63b8ff" d="M101.47,-164.01C85.37,-154.53 65.33,-142.73 51.48,-134.58"/>
<polygon fill="#63b8ff" stroke="#63b8ff" points="99.68,-167.01 110.07,-169.07 103.23,-160.98 99.68,-167.01"/>
</a>
</g>
</g>
<!-- Node3 -->
<g id="Node000003" class="node">
<title>Node3</title>
<g id="a_Node000003"><a xlink:href="Fs_8hpp.html" target="_top" xlink:title="Класс Fs как коллекция функций для работы с файловой системой">
<polygon fill="white" stroke="#666666" points="191.75,-134.25 126.25,-134.25 126.25,-113.5 191.75,-113.5 191.75,-134.25"/>
<text text-anchor="middle" x="159" y="-120.75" font-family="Helvetica,sans-Serif" font-size="10.00">src/Fs.hpp</text>
</a>
</g>
</g>
<!-- Node1&#45;&gt;Node3 -->
<g id="edge2_Node000001_Node000003" class="edge">
<title>Node1&#45;&gt;Node3</title>
<g id="a_edge2_Node000001_Node000003"><a xlink:title=" ">
<path fill="none" stroke="#63b8ff" d="M139.21,-159.82C144.08,-151.23 149.55,-141.56 153.51,-134.58"/>
<polygon fill="#63b8ff" stroke="#63b8ff" points="136.17,-158.09 134.29,-168.52 142.26,-161.54 136.17,-158.09"/>
</a>
</g>
</g>
<!-- Node5 -->
<g id="Node000005" class="node">
<title>Node5</title>
<g id="a_Node000005"><a xlink:href="Yt_8hpp.html" target="_top" xlink:title=" ">
<polygon fill="white" stroke="#666666" points="109,-77.5 45,-77.5 45,-56.75 109,-56.75 109,-77.5"/>
<text text-anchor="middle" x="77" y="-64" font-family="Helvetica,sans-Serif" font-size="10.00">src/Yt.hpp</text>
</a>
</g>
</g>
<!-- Node1&#45;&gt;Node5 -->
<g id="edge8_Node000001_Node000005" class="edge">
<title>Node1&#45;&gt;Node5</title>
<g id="a_edge8_Node000001_Node000005"><a xlink:title=" ">
<path fill="none" stroke="#63b8ff" d="M118.89,-159.71C107.89,-135.66 89.83,-96.17 81.48,-77.93"/>
<polygon fill="#63b8ff" stroke="#63b8ff" points="115.68,-161.1 123.02,-168.74 122.05,-158.19 115.68,-161.1"/>
</a>
</g>
</g>
<!-- Node7 -->
<g id="Node000007" class="node">
<title>Node7</title>
<g id="a_Node000007"><a xlink:href="main_8cpp.html" target="_top" xlink:title="Прога для комфортного кача с YouTube.">
<polygon fill="white" stroke="#666666" points="258.12,-20.75 179.88,-20.75 179.88,0 258.12,0 258.12,-20.75"/>
<text text-anchor="middle" x="219" y="-7.25" font-family="Helvetica,sans-Serif" font-size="10.00">src/main.cpp</text>
</a>
</g>
</g>
<!-- Node1&#45;&gt;Node7 -->
<g id="edge9_Node000001_Node000007" class="edge">
<title>Node1&#45;&gt;Node7</title>
<g id="a_edge9_Node000001_Node000007"><a xlink:title=" ">
<path fill="none" stroke="#63b8ff" d="M162.73,-164.74C176.37,-157.35 191.1,-147.19 201,-134.25 227.32,-99.83 223.41,-43.71 220.51,-21.19"/>
<polygon fill="#63b8ff" stroke="#63b8ff" points="161.3,-161.54 153.96,-169.17 164.46,-167.78 161.3,-161.54"/>
</a>
</g>
</g>
<!-- Node4 -->
<g id="Node000004" class="node">
<title>Node4</title>
<g id="a_Node000004"><a xlink:href="Fs_8cpp.html" target="_top" xlink:title=" ">
<polygon fill="white" stroke="#666666" points="191.38,-77.5 126.62,-77.5 126.62,-56.75 191.38,-56.75 191.38,-77.5"/>
<text text-anchor="middle" x="159" y="-64" font-family="Helvetica,sans-Serif" font-size="10.00">src/Fs.cpp</text>
</a>
</g>
</g>
<!-- Node3&#45;&gt;Node4 -->
<g id="edge3_Node000003_Node000004" class="edge">
<title>Node3&#45;&gt;Node4</title>
<g id="a_edge3_Node000003_Node000004"><a xlink:title=" ">
<path fill="none" stroke="#63b8ff" d="M159,-101.63C159,-93.41 159,-84.43 159,-77.83"/>
<polygon fill="#63b8ff" stroke="#63b8ff" points="155.5,-101.57 159,-111.57 162.5,-101.57 155.5,-101.57"/>
</a>
</g>
</g>
<!-- Node3&#45;&gt;Node5 -->
<g id="edge4_Node000003_Node000005" class="edge">
<title>Node3&#45;&gt;Node5</title>
<g id="a_edge4_Node000003_Node000005"><a xlink:title=" ">
<path fill="none" stroke="#63b8ff" d="M134.79,-106.71C120.74,-97.33 103.51,-85.82 91.53,-77.83"/>
<polygon fill="#63b8ff" stroke="#63b8ff" points="132.82,-109.6 143.08,-112.25 136.71,-103.78 132.82,-109.6"/>
</a>
</g>
</g>
<!-- Node3&#45;&gt;Node7 -->
<g id="edge7_Node000003_Node000007" class="edge">
<title>Node3&#45;&gt;Node7</title>
<g id="a_edge7_Node000003_Node000007"><a xlink:title=" ">
<path fill="none" stroke="#63b8ff" d="M178.47,-105.18C186.11,-97.34 194.38,-87.61 200,-77.5 210.33,-58.92 215.48,-34.21 217.66,-20.87"/>
<polygon fill="#63b8ff" stroke="#63b8ff" points="176.1,-102.6 171.37,-112.08 180.98,-107.62 176.1,-102.6"/>
</a>
</g>
</g>
<!-- Node6 -->
<g id="Node000006" class="node">
<title>Node6</title>
<g id="a_Node000006"><a xlink:href="Yt_8cpp.html" target="_top" xlink:title=" ">
<polygon fill="white" stroke="#666666" points="108.62,-20.75 45.38,-20.75 45.38,0 108.62,0 108.62,-20.75"/>
<text text-anchor="middle" x="77" y="-7.25" font-family="Helvetica,sans-Serif" font-size="10.00">src/Yt.cpp</text>
</a>
</g>
</g>
<!-- Node5&#45;&gt;Node6 -->
<g id="edge5_Node000005_Node000006" class="edge">
<title>Node5&#45;&gt;Node6</title>
<g id="a_edge5_Node000005_Node000006"><a xlink:title=" ">
<path fill="none" stroke="#63b8ff" d="M77,-44.88C77,-36.66 77,-27.68 77,-21.08"/>
<polygon fill="#63b8ff" stroke="#63b8ff" points="73.5,-44.82 77,-54.82 80.5,-44.82 73.5,-44.82"/>
</a>
</g>
</g>
<!-- Node5&#45;&gt;Node7 -->
<g id="edge6_Node000005_Node000007" class="edge">
<title>Node5&#45;&gt;Node7</title>
<g id="a_edge6_Node000005_Node000007"><a xlink:title=" ">
<path fill="none" stroke="#63b8ff" d="M113.02,-52.24C138.27,-42.5 171.39,-29.73 193.83,-21.08"/>
<polygon fill="#63b8ff" stroke="#63b8ff" points="111.87,-48.93 103.8,-55.79 114.39,-55.46 111.87,-48.93"/>
</a>
</g>
</g>
</g>
</svg>
