<?xml version="1.0" encoding="UTF-8" standalone="no"?>
<!DOCTYPE svg PUBLIC "-//W3C//DTD SVG 1.1//EN"
 "http://www.w3.org/Graphics/SVG/1.1/DTD/svg11.dtd">
<!-- Generated by graphviz version 12.2.1 (0)
 -->
<!-- Title: INIReader::MakeKey Pages: 1 -->
<svg width="673pt" height="339pt"
 viewBox="0.00 0.00 673.00 338.75" xmlns="http://www.w3.org/2000/svg" xmlns:xlink="http://www.w3.org/1999/xlink">
<g id="graph0" class="graph" transform="scale(1 1) rotate(0) translate(4 334.75)">
<title>INIReader::MakeKey</title>
<!-- Node1 -->
<g id="Node000001" class="node">
<title>Node1</title>
<g id="a_Node000001"><a xlink:title=" ">
<polygon fill="#999999" stroke="#666666" points="665,-98.75 550.75,-98.75 550.75,-78 665,-78 665,-98.75"/>
<text text-anchor="middle" x="607.88" y="-85.25" font-family="Helvetica,sans-Serif" font-size="10.00">INIReader::MakeKey</text>
</a>
</g>
</g>
<!-- Node2 -->
<g id="Node000002" class="node">
<title>Node2</title>
<g id="a_Node000002"><a xlink:href="classINIReader.html#a444ab67be741a41dcd26759d744b20db" target="_top" xlink:title=" ">
<polygon fill="white" stroke="#666666" points="490.75,-176.75 403.5,-176.75 403.5,-156 490.75,-156 490.75,-176.75"/>
<text text-anchor="middle" x="447.12" y="-163.25" font-family="Helvetica,sans-Serif" font-size="10.00">INIReader::Get</text>
</a>
</g>
</g>
<!-- Node1&#45;&gt;Node2 -->
<g id="edge1_Node000001_Node000002" class="edge">
<title>Node1&#45;&gt;Node2</title>
<g id="a_edge1_Node000001_Node000002"><a xlink:title=" ">
<path fill="none" stroke="#63b8ff" d="M583.42,-105.65C565.37,-118.3 539.43,-135.15 514.75,-146.38 507.05,-149.87 498.59,-152.96 490.34,-155.58"/>
<polygon fill="#63b8ff" stroke="#63b8ff" points="585.24,-108.65 591.34,-99.99 581.17,-102.95 585.24,-108.65"/>
</a>
</g>
</g>
<!-- Node12 -->
<g id="Node000012" class="node">
<title>Node12</title>
<g id="a_Node000012"><a xlink:href="classINIReader.html#adc5d42287a7be0f441762c14016db98f" target="_top" xlink:title=" ">
<polygon fill="white" stroke="#666666" points="509.5,-137.75 384.75,-137.75 384.75,-117 509.5,-117 509.5,-137.75"/>
<text text-anchor="middle" x="447.12" y="-124.25" font-family="Helvetica,sans-Serif" font-size="10.00">INIReader::HasSection</text>
</a>
</g>
</g>
<!-- Node1&#45;&gt;Node12 -->
<g id="edge12_Node000001_Node000012" class="edge">
<title>Node1&#45;&gt;Node12</title>
<g id="a_edge12_Node000001_Node000012"><a xlink:title=" ">
<path fill="none" stroke="#63b8ff" d="M551.54,-101.97C532.18,-106.72 510.72,-112 492.38,-116.5"/>
<polygon fill="#63b8ff" stroke="#63b8ff" points="552.31,-105.38 561.18,-99.6 550.64,-98.59 552.31,-105.38"/>
</a>
</g>
</g>
<!-- Node13 -->
<g id="Node000013" class="node">
<title>Node13</title>
<g id="a_Node000013"><a xlink:href="classINIReader.html#aea82a4895f899ed71826653b30568b89" target="_top" xlink:title=" ">
<polygon fill="white" stroke="#666666" points="505,-98.75 389.25,-98.75 389.25,-78 505,-78 505,-98.75"/>
<text text-anchor="middle" x="447.12" y="-85.25" font-family="Helvetica,sans-Serif" font-size="10.00">INIReader::HasValue</text>
</a>
</g>
</g>
<!-- Node1&#45;&gt;Node13 -->
<g id="edge13_Node000001_Node000013" class="edge">
<title>Node1&#45;&gt;Node13</title>
<g id="a_edge13_Node000001_Node000013"><a xlink:title=" ">
<path fill="none" stroke="#63b8ff" d="M538.97,-88.38C527.79,-88.38 516.31,-88.38 505.43,-88.38"/>
<polygon fill="#63b8ff" stroke="#63b8ff" points="538.95,-91.88 548.95,-88.38 538.95,-84.88 538.95,-91.88"/>
</a>
</g>
</g>
<!-- Node14 -->
<g id="Node000014" class="node">
<title>Node14</title>
<g id="a_Node000014"><a xlink:href="classINIReader.html#ac2fb0a1e561a8d07b69ee700e8076b5c" target="_top" xlink:title=" ">
<polygon fill="white" stroke="#666666" points="493.75,-59.75 400.5,-59.75 400.5,-39 493.75,-39 493.75,-59.75"/>
<text text-anchor="middle" x="447.12" y="-46.25" font-family="Helvetica,sans-Serif" font-size="10.00">INIReader::Keys</text>
</a>
</g>
</g>
<!-- Node1&#45;&gt;Node14 -->
<g id="edge14_Node000001_Node000014" class="edge">
<title>Node1&#45;&gt;Node14</title>
<g id="a_edge14_Node000001_Node000014"><a xlink:title=" ">
<path fill="none" stroke="#63b8ff" d="M551.54,-74.78C532.18,-70.03 510.72,-64.75 492.38,-60.25"/>
<polygon fill="#63b8ff" stroke="#63b8ff" points="550.64,-78.16 561.18,-77.15 552.31,-71.37 550.64,-78.16"/>
</a>
</g>
</g>
<!-- Node15 -->
<g id="Node000015" class="node">
<title>Node15</title>
<g id="a_Node000015"><a xlink:href="classINIReader.html#a38e5a02b9eab882f23401a4b5a0c42a3" target="_top" xlink:title=" ">
<polygon fill="white" stroke="#666666" points="514.75,-20.75 379.5,-20.75 379.5,0 514.75,0 514.75,-20.75"/>
<text text-anchor="middle" x="447.12" y="-7.25" font-family="Helvetica,sans-Serif" font-size="10.00">INIReader::ValueHandler</text>
</a>
</g>
</g>
<!-- Node1&#45;&gt;Node15 -->
<g id="edge15_Node000001_Node000015" class="edge">
<title>Node1&#45;&gt;Node15</title>
<g id="a_edge15_Node000001_Node000015"><a xlink:title=" ">
<path fill="none" stroke="#63b8ff" d="M583.42,-71.1C565.37,-58.45 539.43,-41.6 514.75,-30.38 507.05,-26.88 498.59,-23.79 490.34,-21.17"/>
<polygon fill="#63b8ff" stroke="#63b8ff" points="581.17,-73.8 591.34,-76.76 585.24,-68.1 581.17,-73.8"/>
</a>
</g>
</g>
<!-- Node3 -->
<g id="Node000003" class="node">
<title>Node3</title>
<g id="a_Node000003"><a xlink:href="classINIReader.html#a6fcbb2ebdfad098e34a14f2144f711f7" target="_top" xlink:title=" ">
<polygon fill="white" stroke="#666666" points="334.5,-330.75 207.5,-330.75 207.5,-310 334.5,-310 334.5,-330.75"/>
<text text-anchor="middle" x="271" y="-317.25" font-family="Helvetica,sans-Serif" font-size="10.00">INIReader::GetBoolean</text>
</a>
</g>
</g>
<!-- Node2&#45;&gt;Node3 -->
<g id="edge2_Node000002_Node000003" class="edge">
<title>Node2&#45;&gt;Node3</title>
<g id="a_edge2_Node000002_Node000003"><a xlink:title=" ">
<path fill="none" stroke="#63b8ff" d="M435.91,-186.97C420.17,-216.57 387.18,-270.81 343.5,-300.38 338.06,-304.06 331.94,-307.07 325.64,-309.53"/>
<polygon fill="#63b8ff" stroke="#63b8ff" points="438.92,-188.78 440.39,-178.29 432.7,-185.57 438.92,-188.78"/>
</a>
</g>
</g>
<!-- Node4 -->
<g id="Node000004" class="node">
<title>Node4</title>
<g id="a_Node000004"><a xlink:href="classINIReader.html#a37ef1f422f1a5cb43bf63d82f4ea112f" target="_top" xlink:title=" ">
<polygon fill="white" stroke="#666666" points="331.88,-291.75 210.12,-291.75 210.12,-271 331.88,-271 331.88,-291.75"/>
<text text-anchor="middle" x="271" y="-278.25" font-family="Helvetica,sans-Serif" font-size="10.00">INIReader::GetInteger</text>
</a>
</g>
</g>
<!-- Node2&#45;&gt;Node4 -->
<g id="edge3_Node000002_Node000004" class="edge">
<title>Node2&#45;&gt;Node4</title>
<g id="a_edge3_Node000002_Node000004"><a xlink:title=" ">
<path fill="none" stroke="#63b8ff" d="M428.95,-185.64C409.87,-206.01 377.28,-237.83 343.5,-257.38 334.32,-262.69 323.79,-267.04 313.69,-270.51"/>
<polygon fill="#63b8ff" stroke="#63b8ff" points="431.51,-188.03 435.7,-178.29 426.36,-183.29 431.51,-188.03"/>
</a>
</g>
</g>
<!-- Node5 -->
<g id="Node000005" class="node">
<title>Node5</title>
<g id="a_Node000005"><a xlink:href="classCfg.html#a73e8ab55770e914a02e269e015ab91c7" target="_top" xlink:title="Анализирует ini, заполняет структуры fs и yt.">
<polygon fill="white" stroke="#666666" points="162.5,-272.75 91,-272.75 91,-252 162.5,-252 162.5,-272.75"/>
<text text-anchor="middle" x="126.75" y="-259.25" font-family="Helvetica,sans-Serif" font-size="10.00">Cfg::loadIni</text>
</a>
</g>
</g>
<!-- Node2&#45;&gt;Node5 -->
<g id="edge11_Node000002_Node000005" class="edge">
<title>Node2&#45;&gt;Node5</title>
<g id="a_edge11_Node000002_Node000005"><a xlink:title=" ">
<path fill="none" stroke="#63b8ff" d="M421.61,-183.4C401.51,-196.57 371.84,-214.21 343.5,-224.38 282.1,-246.4 206.14,-255.97 162.68,-259.89"/>
<polygon fill="#63b8ff" stroke="#63b8ff" points="423.31,-186.48 429.67,-178.01 419.41,-180.66 423.31,-186.48"/>
</a>
</g>
</g>
<!-- Node7 -->
<g id="Node000007" class="node">
<title>Node7</title>
<g id="a_Node000007"><a xlink:href="classINIReader.html#ae15fc2bf2cc8bb98066356b8654e3bee" target="_top" xlink:title=" ">
<polygon fill="white" stroke="#666666" points="337.88,-215.75 204.12,-215.75 204.12,-195 337.88,-195 337.88,-215.75"/>
<text text-anchor="middle" x="271" y="-202.25" font-family="Helvetica,sans-Serif" font-size="10.00">INIReader::GetInteger64</text>
</a>
</g>
</g>
<!-- Node2&#45;&gt;Node7 -->
<g id="edge6_Node000002_Node000007" class="edge">
<title>Node2&#45;&gt;Node7</title>
<g id="a_edge6_Node000002_Node000007"><a xlink:title=" ">
<path fill="none" stroke="#63b8ff" d="M392.15,-178.47C369.21,-183.6 342.67,-189.55 320.38,-194.54"/>
<polygon fill="#63b8ff" stroke="#63b8ff" points="392.61,-181.95 401.61,-176.35 391.08,-175.12 392.61,-181.95"/>
</a>
</g>
</g>
<!-- Node8 -->
<g id="Node000008" class="node">
<title>Node8</title>
<g id="a_Node000008"><a xlink:href="classINIReader.html#a0a41e06f215552e5d7217a0abc5c214f" target="_top" xlink:title=" ">
<polygon fill="white" stroke="#666666" points="325.5,-176.75 216.5,-176.75 216.5,-156 325.5,-156 325.5,-176.75"/>
<text text-anchor="middle" x="271" y="-163.25" font-family="Helvetica,sans-Serif" font-size="10.00">INIReader::GetReal</text>
</a>
</g>
</g>
<!-- Node2&#45;&gt;Node8 -->
<g id="edge7_Node000002_Node000008" class="edge">
<title>Node2&#45;&gt;Node8</title>
<g id="a_edge7_Node000002_Node000008"><a xlink:title=" ">
<path fill="none" stroke="#63b8ff" d="M391.75,-166.38C370.73,-166.38 346.73,-166.38 325.77,-166.38"/>
<polygon fill="#63b8ff" stroke="#63b8ff" points="391.57,-169.88 401.57,-166.38 391.57,-162.88 391.57,-169.88"/>
</a>
</g>
</g>
<!-- Node9 -->
<g id="Node000009" class="node">
<title>Node9</title>
<g id="a_Node000009"><a xlink:href="classINIReader.html#a37db13b6a4db6c095a515e77ee5b932b" target="_top" xlink:title=" ">
<polygon fill="white" stroke="#666666" points="328.88,-137.75 213.12,-137.75 213.12,-117 328.88,-117 328.88,-137.75"/>
<text text-anchor="middle" x="271" y="-124.25" font-family="Helvetica,sans-Serif" font-size="10.00">INIReader::GetString</text>
</a>
</g>
</g>
<!-- Node2&#45;&gt;Node9 -->
<g id="edge8_Node000002_Node000009" class="edge">
<title>Node2&#45;&gt;Node9</title>
<g id="a_edge8_Node000002_Node000009"><a xlink:title=" ">
<path fill="none" stroke="#63b8ff" d="M392.15,-154.28C369.21,-149.15 342.67,-143.2 320.38,-138.21"/>
<polygon fill="#63b8ff" stroke="#63b8ff" points="391.08,-157.63 401.61,-156.4 392.61,-150.8 391.08,-157.63"/>
</a>
</g>
</g>
<!-- Node10 -->
<g id="Node000010" class="node">
<title>Node10</title>
<g id="a_Node000010"><a xlink:href="classINIReader.html#a501e06eacb953a5f99f1acb46c965869" target="_top" xlink:title=" ">
<polygon fill="white" stroke="#666666" points="337.5,-98.75 204.5,-98.75 204.5,-78 337.5,-78 337.5,-98.75"/>
<text text-anchor="middle" x="271" y="-85.25" font-family="Helvetica,sans-Serif" font-size="10.00">INIReader::GetUnsigned</text>
</a>
</g>
</g>
<!-- Node2&#45;&gt;Node10 -->
<g id="edge9_Node000002_Node000010" class="edge">
<title>Node2&#45;&gt;Node10</title>
<g id="a_edge9_Node000002_Node000010"><a xlink:title=" ">
<path fill="none" stroke="#63b8ff" d="M392.44,-153.01C387.93,-151.07 383.55,-148.87 379.5,-146.38 359.69,-134.17 363.42,-120.39 343.5,-108.38 337.43,-104.71 330.67,-101.7 323.79,-99.23"/>
<polygon fill="#63b8ff" stroke="#63b8ff" points="391.11,-156.25 401.7,-156.53 393.6,-149.7 391.11,-156.25"/>
</a>
</g>
</g>
<!-- Node11 -->
<g id="Node000011" class="node">
<title>Node11</title>
<g id="a_Node000011"><a xlink:href="classINIReader.html#aa521d5d82a367dc1431d309da02a2b57" target="_top" xlink:title=" ">
<polygon fill="white" stroke="#666666" points="343.5,-59.75 198.5,-59.75 198.5,-39 343.5,-39 343.5,-59.75"/>
<text text-anchor="middle" x="271" y="-46.25" font-family="Helvetica,sans-Serif" font-size="10.00">INIReader::GetUnsigned64</text>
</a>
</g>
</g>
<!-- Node2&#45;&gt;Node11 -->
<g id="edge10_Node000002_Node000011" class="edge">
<title>Node2&#45;&gt;Node11</title>
<g id="a_edge10_Node000002_Node000011"><a xlink:title=" ">
<path fill="none" stroke="#63b8ff" d="M392.6,-154.89C387.87,-152.56 383.41,-149.75 379.5,-146.38 350.91,-121.68 372.32,-93.8 343.5,-69.38 339.08,-65.62 334,-62.57 328.63,-60.09"/>
<polygon fill="#63b8ff" stroke="#63b8ff" points="391.26,-158.13 401.84,-158.7 393.93,-151.66 391.26,-158.13"/>
</a>
</g>
</g>
<!-- Node4&#45;&gt;Node5 -->
<g id="edge4_Node000004_Node000005" class="edge">
<title>Node4&#45;&gt;Node5</title>
<g id="a_edge4_Node000004_Node000005"><a xlink:title=" ">
<path fill="none" stroke="#63b8ff" d="M198.31,-271.8C185.89,-270.14 173.49,-268.48 162.63,-267.03"/>
<polygon fill="#63b8ff" stroke="#63b8ff" points="197.8,-275.26 208.17,-273.12 198.72,-268.32 197.8,-275.26"/>
</a>
</g>
</g>
<!-- Node6 -->
<g id="Node000006" class="node">
<title>Node6</title>
<g id="a_Node000006"><a xlink:href="classCfg.html#a7e0dd6c56406c37d332d0357c6bc70eb" target="_top" xlink:title="Конструктор объекта класса Cfg.">
<polygon fill="white" stroke="#666666" points="55,-272.75 0,-272.75 0,-252 55,-252 55,-272.75"/>
<text text-anchor="middle" x="27.5" y="-259.25" font-family="Helvetica,sans-Serif" font-size="10.00">Cfg::Cfg</text>
</a>
</g>
</g>
<!-- Node5&#45;&gt;Node6 -->
<g id="edge5_Node000005_Node000006" class="edge">
<title>Node5&#45;&gt;Node6</title>
<g id="a_edge5_Node000005_Node000006"><a xlink:title=" ">
<path fill="none" stroke="#63b8ff" d="M79.2,-262.38C71.01,-262.38 62.73,-262.38 55.32,-262.38"/>
<polygon fill="#63b8ff" stroke="#63b8ff" points="79.13,-265.88 89.13,-262.38 79.13,-258.88 79.13,-265.88"/>
</a>
</g>
</g>
<!-- Node16 -->
<g id="Node000016" class="node">
<title>Node16</title>
<g id="a_Node000016"><a xlink:href="classINIReader.html#aa991be1958a5414e4bfcfb692b28d647" target="_top" xlink:title=" ">
<polygon fill="white" stroke="#666666" points="330,-20.75 212,-20.75 212,0 330,0 330,-20.75"/>
<text text-anchor="middle" x="271" y="-7.25" font-family="Helvetica,sans-Serif" font-size="10.00">INIReader::INIReader</text>
</a>
</g>
</g>
<!-- Node15&#45;&gt;Node16 -->
<g id="edge16_Node000015_Node000016" class="edge">
<title>Node15&#45;&gt;Node16</title>
<g id="a_edge16_Node000015_Node000016"><a xlink:title=" ">
<path fill="none" stroke="#63b8ff" d="M367.84,-10.38C355.25,-10.38 342.42,-10.38 330.4,-10.38"/>
<polygon fill="#63b8ff" stroke="#63b8ff" points="367.79,-13.88 377.79,-10.38 367.79,-6.88 367.79,-13.88"/>
</a>
</g>
</g>
</g>
</svg>
