<?xml version="1.0" encoding="UTF-8" standalone="no"?>
<!DOCTYPE svg PUBLIC "-//W3C//DTD SVG 1.1//EN"
 "http://www.w3.org/Graphics/SVG/1.1/DTD/svg11.dtd">
<!-- Generated by graphviz version 12.2.1 (0)
 -->
<!-- Title: Fs::drayLogPath Pages: 1 -->
<svg width="616pt" height="68pt"
 viewBox="0.00 0.00 616.00 67.75" xmlns="http://www.w3.org/2000/svg" xmlns:xlink="http://www.w3.org/1999/xlink">
<g id="graph0" class="graph" transform="scale(1 1) rotate(0) translate(4 63.75)">
<title>Fs::drayLogPath</title>
<!-- Node1 -->
<g id="Node000001" class="node">
<title>Node1</title>
<g id="a_Node000001"><a xlink:title="Возвращает путь к DRAY_LOG.">
<polygon fill="#999999" stroke="#666666" points="608,-39.75 514.75,-39.75 514.75,-19 608,-19 608,-39.75"/>
<text text-anchor="middle" x="561.38" y="-26.25" font-family="Helvetica,sans-Serif" font-size="10.00">Fs::drayLogPath</text>
</a>
</g>
</g>
<!-- Node2 -->
<g id="Node000002" class="node">
<title>Node2</title>
<g id="a_Node000002"><a xlink:href="classFs.html#a6272d618633b1ea9d78a53be81b12fd7" target="_top" xlink:title="Проверка, есть ли ID видео в DRAY_LOG.">
<polygon fill="white" stroke="#666666" points="478.75,-59.75 340.5,-59.75 340.5,-39 478.75,-39 478.75,-59.75"/>
<text text-anchor="middle" x="409.62" y="-46.25" font-family="Helvetica,sans-Serif" font-size="10.00">Fs::is_video_downloaded</text>
</a>
</g>
</g>
<!-- Node1&#45;&gt;Node2 -->
<g id="edge1_Node000001_Node000002" class="edge">
<title>Node1&#45;&gt;Node2</title>
<g id="a_edge1_Node000001_Node000002"><a xlink:title=" ">
<path fill="none" stroke="#63b8ff" d="M503.34,-36.99C495.46,-38.04 487.31,-39.13 479.25,-40.21"/>
<polygon fill="#63b8ff" stroke="#63b8ff" points="503.68,-40.48 513.13,-35.68 502.76,-33.54 503.68,-40.48"/>
</a>
</g>
</g>
<!-- Node6 -->
<g id="Node000006" class="node">
<title>Node6</title>
<g id="a_Node000006"><a xlink:href="classFs.html#a3bbf4008231e10a1e1d95696df0d14a5" target="_top" xlink:title="Запись ID видео в DRAY_LOG.">
<polygon fill="white" stroke="#666666" points="457,-20.75 362.25,-20.75 362.25,0 457,0 457,-20.75"/>
<text text-anchor="middle" x="409.62" y="-7.25" font-family="Helvetica,sans-Serif" font-size="10.00">Fs::log_video_id</text>
</a>
</g>
</g>
<!-- Node1&#45;&gt;Node6 -->
<g id="edge5_Node000001_Node000006" class="edge">
<title>Node1&#45;&gt;Node6</title>
<g id="a_edge5_Node000001_Node000006"><a xlink:title=" ">
<path fill="none" stroke="#63b8ff" d="M503.28,-22.13C488.12,-20.21 471.92,-18.15 457.38,-16.31"/>
<polygon fill="#63b8ff" stroke="#63b8ff" points="502.77,-25.59 513.13,-23.38 503.65,-18.65 502.77,-25.59"/>
</a>
</g>
</g>
<!-- Node3 -->
<g id="Node000003" class="node">
<title>Node3</title>
<g id="a_Node000003"><a xlink:href="classYt.html#a43514b42682d0ebe7ef3f8716aaf0e93" target="_top" xlink:title="Получение и обработка ID видео из плейлиста">
<polygon fill="white" stroke="#666666" points="304.5,-39.75 174.5,-39.75 174.5,-19 304.5,-19 304.5,-39.75"/>
<text text-anchor="middle" x="239.5" y="-26.25" font-family="Helvetica,sans-Serif" font-size="10.00">Yt::process_playlist_ids</text>
</a>
</g>
</g>
<!-- Node2&#45;&gt;Node3 -->
<g id="edge2_Node000002_Node000003" class="edge">
<title>Node2&#45;&gt;Node3</title>
<g id="a_edge2_Node000002_Node000003"><a xlink:title=" ">
<path fill="none" stroke="#63b8ff" d="M328.87,-39.89C320.79,-38.93 312.64,-37.96 304.75,-37.02"/>
<polygon fill="#63b8ff" stroke="#63b8ff" points="328.4,-43.36 338.74,-41.06 329.22,-36.4 328.4,-43.36"/>
</a>
</g>
</g>
<!-- Node4 -->
<g id="Node000004" class="node">
<title>Node4</title>
<g id="a_Node000004"><a xlink:href="classYt.html#a2567e552458d666519eb74d951992c82" target="_top" xlink:title="Скачка url с запрошенным режимом">
<polygon fill="white" stroke="#666666" points="138.5,-39.75 76.75,-39.75 76.75,-19 138.5,-19 138.5,-39.75"/>
<text text-anchor="middle" x="107.62" y="-26.25" font-family="Helvetica,sans-Serif" font-size="10.00">Yt::yt_dlp</text>
</a>
</g>
</g>
<!-- Node3&#45;&gt;Node4 -->
<g id="edge3_Node000003_Node000004" class="edge">
<title>Node3&#45;&gt;Node4</title>
<g id="a_edge3_Node000003_Node000004"><a xlink:title=" ">
<path fill="none" stroke="#63b8ff" d="M163.03,-29.38C154.51,-29.38 146.24,-29.38 138.83,-29.38"/>
<polygon fill="#63b8ff" stroke="#63b8ff" points="162.81,-32.88 172.81,-29.38 162.81,-25.88 162.81,-32.88"/>
</a>
</g>
</g>
<!-- Node5 -->
<g id="Node000005" class="node">
<title>Node5</title>
<g id="a_Node000005"><a xlink:href="main_8cpp.html#a0ddf1224851353fc92bfbff6f499fa97" target="_top" xlink:title="Точка входа в программу">
<polygon fill="white" stroke="#666666" points="40.75,-39.75 0,-39.75 0,-19 40.75,-19 40.75,-39.75"/>
<text text-anchor="middle" x="20.38" y="-26.25" font-family="Helvetica,sans-Serif" font-size="10.00">main</text>
</a>
</g>
</g>
<!-- Node4&#45;&gt;Node5 -->
<g id="edge4_Node000004_Node000005" class="edge">
<title>Node4&#45;&gt;Node5</title>
<g id="a_edge4_Node000004_Node000005"><a xlink:title=" ">
<path fill="none" stroke="#63b8ff" d="M64.82,-29.38C56.57,-29.38 48.28,-29.38 41.18,-29.38"/>
<polygon fill="#63b8ff" stroke="#63b8ff" points="64.82,-32.88 74.82,-29.38 64.82,-25.88 64.82,-32.88"/>
</a>
</g>
</g>
<!-- Node6&#45;&gt;Node3 -->
<g id="edge6_Node000006_Node000003" class="edge">
<title>Node6&#45;&gt;Node3</title>
<g id="a_edge6_Node000006_Node000003"><a xlink:title=" ">
<path fill="none" stroke="#63b8ff" d="M350.77,-16.91C336.01,-18.58 320.05,-20.38 304.99,-22.09"/>
<polygon fill="#63b8ff" stroke="#63b8ff" points="350.75,-20.44 360.29,-15.84 349.96,-13.48 350.75,-20.44"/>
</a>
</g>
</g>
</g>
</svg>
