<?xml version="1.0" encoding="UTF-8" standalone="no"?>
<!DOCTYPE svg PUBLIC "-//W3C//DTD SVG 1.1//EN"
 "http://www.w3.org/Graphics/SVG/1.1/DTD/svg11.dtd">
<!-- Generated by graphviz version 12.2.1 (0)
 -->
<!-- Title: INIReader::GetInteger Pages: 1 -->
<svg width="328pt" height="29pt"
 viewBox="0.00 0.00 328.25 28.75" xmlns="http://www.w3.org/2000/svg" xmlns:xlink="http://www.w3.org/1999/xlink">
<g id="graph0" class="graph" transform="scale(1 1) rotate(0) translate(4 24.75)">
<title>INIReader::GetInteger</title>
<!-- Node1 -->
<g id="Node000001" class="node">
<title>Node1</title>
<g id="a_Node000001"><a xlink:title=" ">
<polygon fill="#999999" stroke="#666666" points="320.25,-20.75 198.5,-20.75 198.5,0 320.25,0 320.25,-20.75"/>
<text text-anchor="middle" x="259.38" y="-7.25" font-family="Helvetica,sans-Serif" font-size="10.00">INIReader::GetInteger</text>
</a>
</g>
</g>
<!-- Node2 -->
<g id="Node000002" class="node">
<title>Node2</title>
<g id="a_Node000002"><a xlink:href="classCfg.html#a73e8ab55770e914a02e269e015ab91c7" target="_top" xlink:title="Анализирует ini, заполняет структуры fs и yt.">
<polygon fill="white" stroke="#666666" points="162.5,-20.75 91,-20.75 91,0 162.5,0 162.5,-20.75"/>
<text text-anchor="middle" x="126.75" y="-7.25" font-family="Helvetica,sans-Serif" font-size="10.00">Cfg::loadIni</text>
</a>
</g>
</g>
<!-- Node1&#45;&gt;Node2 -->
<g id="edge1_Node000001_Node000002" class="edge">
<title>Node1&#45;&gt;Node2</title>
<g id="a_edge1_Node000001_Node000002"><a xlink:title=" ">
<path fill="none" stroke="#63b8ff" d="M186.74,-10.38C178.48,-10.38 170.35,-10.38 162.9,-10.38"/>
<polygon fill="#63b8ff" stroke="#63b8ff" points="186.52,-13.88 196.52,-10.38 186.52,-6.88 186.52,-13.88"/>
</a>
</g>
</g>
<!-- Node3 -->
<g id="Node000003" class="node">
<title>Node3</title>
<g id="a_Node000003"><a xlink:href="classCfg.html#a7e0dd6c56406c37d332d0357c6bc70eb" target="_top" xlink:title="Конструктор объекта класса Cfg.">
<polygon fill="white" stroke="#666666" points="55,-20.75 0,-20.75 0,0 55,0 55,-20.75"/>
<text text-anchor="middle" x="27.5" y="-7.25" font-family="Helvetica,sans-Serif" font-size="10.00">Cfg::Cfg</text>
</a>
</g>
</g>
<!-- Node2&#45;&gt;Node3 -->
<g id="edge2_Node000002_Node000003" class="edge">
<title>Node2&#45;&gt;Node3</title>
<g id="a_edge2_Node000002_Node000003"><a xlink:title=" ">
<path fill="none" stroke="#63b8ff" d="M79.2,-10.38C71.01,-10.38 62.73,-10.38 55.32,-10.38"/>
<polygon fill="#63b8ff" stroke="#63b8ff" points="79.13,-13.88 89.13,-10.38 79.13,-6.88 79.13,-13.88"/>
</a>
</g>
</g>
</g>
</svg>
