<?xml version="1.0" encoding="UTF-8" standalone="no"?>
<!DOCTYPE svg PUBLIC "-//W3C//DTD SVG 1.1//EN"
 "http://www.w3.org/Graphics/SVG/1.1/DTD/svg11.dtd">
<!-- Generated by graphviz version 12.2.1 (0)
 -->
<!-- Title: INIReader::GetBoolean Pages: 1 -->
<svg width="409pt" height="29pt"
 viewBox="0.00 0.00 408.50 28.75" xmlns="http://www.w3.org/2000/svg" xmlns:xlink="http://www.w3.org/1999/xlink">
<g id="graph0" class="graph" transform="scale(1 1) rotate(0) translate(4 24.75)">
<title>INIReader::GetBoolean</title>
<!-- Node1 -->
<g id="Node000001" class="node">
<title>Node1</title>
<g id="a_Node000001"><a xlink:title=" ">
<polygon fill="#999999" stroke="#666666" points="127,-20.75 0,-20.75 0,0 127,0 127,-20.75"/>
<text text-anchor="middle" x="63.5" y="-7.25" font-family="Helvetica,sans-Serif" font-size="10.00">INIReader::GetBoolean</text>
</a>
</g>
</g>
<!-- Node2 -->
<g id="Node000002" class="node">
<title>Node2</title>
<g id="a_Node000002"><a xlink:href="classINIReader.html#a444ab67be741a41dcd26759d744b20db" target="_top" xlink:title=" ">
<polygon fill="white" stroke="#666666" points="250.25,-20.75 163,-20.75 163,0 250.25,0 250.25,-20.75"/>
<text text-anchor="middle" x="206.62" y="-7.25" font-family="Helvetica,sans-Serif" font-size="10.00">INIReader::Get</text>
</a>
</g>
</g>
<!-- Node1&#45;&gt;Node2 -->
<g id="edge1_Node000001_Node000002" class="edge">
<title>Node1&#45;&gt;Node2</title>
<g id="a_edge1_Node000001_Node000002"><a xlink:title=" ">
<path fill="none" stroke="#63b8ff" d="M127.22,-10.38C135.23,-10.38 143.38,-10.38 151.25,-10.38"/>
<polygon fill="#63b8ff" stroke="#63b8ff" points="151.01,-13.88 161.01,-10.38 151.01,-6.88 151.01,-13.88"/>
</a>
</g>
</g>
<!-- Node3 -->
<g id="Node000003" class="node">
<title>Node3</title>
<g id="a_Node000003"><a xlink:href="classINIReader.html#a29eb47ac6f75322fb729926cd058fef3" target="_top" xlink:title=" ">
<polygon fill="white" stroke="#666666" points="400.5,-20.75 286.25,-20.75 286.25,0 400.5,0 400.5,-20.75"/>
<text text-anchor="middle" x="343.38" y="-7.25" font-family="Helvetica,sans-Serif" font-size="10.00">INIReader::MakeKey</text>
</a>
</g>
</g>
<!-- Node2&#45;&gt;Node3 -->
<g id="edge2_Node000002_Node000003" class="edge">
<title>Node2&#45;&gt;Node3</title>
<g id="a_edge2_Node000002_Node000003"><a xlink:title=" ">
<path fill="none" stroke="#63b8ff" d="M250.63,-10.38C258.27,-10.38 266.4,-10.38 274.54,-10.38"/>
<polygon fill="#63b8ff" stroke="#63b8ff" points="274.48,-13.88 284.48,-10.38 274.48,-6.88 274.48,-13.88"/>
</a>
</g>
</g>
</g>
</svg>
