<?xml version="1.0" encoding="UTF-8" standalone="no"?>
<!DOCTYPE svg PUBLIC "-//W3C//DTD SVG 1.1//EN"
 "http://www.w3.org/Graphics/SVG/1.1/DTD/svg11.dtd">
<!-- Generated by graphviz version 12.2.1 (0)
 -->
<!-- Title: Cfg::loadIni Pages: 1 -->
<svg width="511pt" height="87pt"
 viewBox="0.00 0.00 510.75 86.75" xmlns="http://www.w3.org/2000/svg" xmlns:xlink="http://www.w3.org/1999/xlink">
<g id="graph0" class="graph" transform="scale(1 1) rotate(0) translate(4 82.75)">
<title>Cfg::loadIni</title>
<!-- Node1 -->
<g id="Node000001" class="node">
<title>Node1</title>
<g id="a_Node000001"><a xlink:title="Анализирует ini, заполняет структуры fs и yt.">
<polygon fill="#999999" stroke="#666666" points="71.5,-59.75 0,-59.75 0,-39 71.5,-39 71.5,-59.75"/>
<text text-anchor="middle" x="35.75" y="-46.25" font-family="Helvetica,sans-Serif" font-size="10.00">Cfg::loadIni</text>
</a>
</g>
</g>
<!-- Node2 -->
<g id="Node000002" class="node">
<title>Node2</title>
<g id="a_Node000002"><a xlink:href="classINIReader.html#a444ab67be741a41dcd26759d744b20db" target="_top" xlink:title=" ">
<polygon fill="white" stroke="#666666" points="352.5,-78.75 265.25,-78.75 265.25,-58 352.5,-58 352.5,-78.75"/>
<text text-anchor="middle" x="308.88" y="-65.25" font-family="Helvetica,sans-Serif" font-size="10.00">INIReader::Get</text>
</a>
</g>
</g>
<!-- Node1&#45;&gt;Node2 -->
<g id="edge1_Node000001_Node000002" class="edge">
<title>Node1&#45;&gt;Node2</title>
<g id="a_edge1_Node000001_Node000002"><a xlink:title=" ">
<path fill="none" stroke="#63b8ff" d="M69.86,-60.19C81.61,-63.51 95.02,-66.73 107.5,-68.38 156.63,-74.86 213.12,-74.13 253.57,-72.2"/>
<polygon fill="#63b8ff" stroke="#63b8ff" points="253.74,-75.7 263.55,-71.68 253.38,-68.71 253.74,-75.7"/>
</a>
</g>
</g>
<!-- Node4 -->
<g id="Node000004" class="node">
<title>Node4</title>
<g id="a_Node000004"><a xlink:href="classINIReader.html#a37ef1f422f1a5cb43bf63d82f4ea112f" target="_top" xlink:title=" ">
<polygon fill="white" stroke="#666666" points="229.25,-59.75 107.5,-59.75 107.5,-39 229.25,-39 229.25,-59.75"/>
<text text-anchor="middle" x="168.38" y="-46.25" font-family="Helvetica,sans-Serif" font-size="10.00">INIReader::GetInteger</text>
</a>
</g>
</g>
<!-- Node1&#45;&gt;Node4 -->
<g id="edge3_Node000001_Node000004" class="edge">
<title>Node1&#45;&gt;Node4</title>
<g id="a_edge3_Node000001_Node000004"><a xlink:title=" ">
<path fill="none" stroke="#63b8ff" d="M71.76,-49.38C79.24,-49.38 87.4,-49.38 95.7,-49.38"/>
<polygon fill="#63b8ff" stroke="#63b8ff" points="95.54,-52.88 105.54,-49.38 95.54,-45.88 95.54,-52.88"/>
</a>
</g>
</g>
<!-- Node5 -->
<g id="Node000005" class="node">
<title>Node5</title>
<g id="a_Node000005"><a xlink:href="classINIReader.html#a7527150689e2dbdc7388306c00d5e039" target="_top" xlink:title=" ">
<polygon fill="white" stroke="#666666" points="228.12,-20.75 108.62,-20.75 108.62,0 228.12,0 228.12,-20.75"/>
<text text-anchor="middle" x="168.38" y="-7.25" font-family="Helvetica,sans-Serif" font-size="10.00">INIReader::ParseError</text>
</a>
</g>
</g>
<!-- Node1&#45;&gt;Node5 -->
<g id="edge5_Node000001_Node000005" class="edge">
<title>Node1&#45;&gt;Node5</title>
<g id="a_edge5_Node000001_Node000005"><a xlink:title=" ">
<path fill="none" stroke="#63b8ff" d="M71.76,-38.92C86.74,-34.45 104.45,-29.16 120.54,-24.36"/>
<polygon fill="#63b8ff" stroke="#63b8ff" points="121.33,-27.77 129.91,-21.56 119.33,-21.07 121.33,-27.77"/>
</a>
</g>
</g>
<!-- Node3 -->
<g id="Node000003" class="node">
<title>Node3</title>
<g id="a_Node000003"><a xlink:href="classINIReader.html#a29eb47ac6f75322fb729926cd058fef3" target="_top" xlink:title=" ">
<polygon fill="white" stroke="#666666" points="502.75,-78.75 388.5,-78.75 388.5,-58 502.75,-58 502.75,-78.75"/>
<text text-anchor="middle" x="445.62" y="-65.25" font-family="Helvetica,sans-Serif" font-size="10.00">INIReader::MakeKey</text>
</a>
</g>
</g>
<!-- Node2&#45;&gt;Node3 -->
<g id="edge2_Node000002_Node000003" class="edge">
<title>Node2&#45;&gt;Node3</title>
<g id="a_edge2_Node000002_Node000003"><a xlink:title=" ">
<path fill="none" stroke="#63b8ff" d="M352.88,-68.38C360.52,-68.38 368.65,-68.38 376.79,-68.38"/>
<polygon fill="#63b8ff" stroke="#63b8ff" points="376.73,-71.88 386.73,-68.38 376.73,-64.88 376.73,-71.88"/>
</a>
</g>
</g>
<!-- Node4&#45;&gt;Node2 -->
<g id="edge4_Node000004_Node000002" class="edge">
<title>Node4&#45;&gt;Node2</title>
<g id="a_edge4_Node000004_Node000002"><a xlink:title=" ">
<path fill="none" stroke="#63b8ff" d="M229.72,-57.65C237.65,-58.74 245.75,-59.85 253.57,-60.93"/>
<polygon fill="#63b8ff" stroke="#63b8ff" points="252.91,-64.37 263.3,-62.26 253.87,-57.43 252.91,-64.37"/>
</a>
</g>
</g>
</g>
</svg>
