<?xml version="1.0" encoding="UTF-8" standalone="no"?>
<!DOCTYPE svg PUBLIC "-//W3C//DTD SVG 1.1//EN"
 "http://www.w3.org/Graphics/SVG/1.1/DTD/svg11.dtd">
<!-- Generated by graphviz version 12.2.1 (0)
 -->
<!-- Title: Cfg::Cfg Pages: 1 -->
<svg width="615pt" height="87pt"
 viewBox="0.00 0.00 614.50 86.75" xmlns="http://www.w3.org/2000/svg" xmlns:xlink="http://www.w3.org/1999/xlink">
<g id="graph0" class="graph" transform="scale(1 1) rotate(0) translate(4 82.75)">
<title>Cfg::Cfg</title>
<!-- Node1 -->
<g id="Node000001" class="node">
<title>Node1</title>
<g id="a_Node000001"><a xlink:title="Конструктор объекта класса Cfg.">
<polygon fill="#999999" stroke="#666666" points="55,-39.75 0,-39.75 0,-19 55,-19 55,-39.75"/>
<text text-anchor="middle" x="27.5" y="-26.25" font-family="Helvetica,sans-Serif" font-size="10.00">Cfg::Cfg</text>
</a>
</g>
</g>
<!-- Node2 -->
<g id="Node000002" class="node">
<title>Node2</title>
<g id="a_Node000002"><a xlink:href="classCfg.html#a73e8ab55770e914a02e269e015ab91c7" target="_top" xlink:title="Анализирует ini, заполняет структуры fs и yt.">
<polygon fill="white" stroke="#666666" points="168.88,-59.75 97.38,-59.75 97.38,-39 168.88,-39 168.88,-59.75"/>
<text text-anchor="middle" x="133.12" y="-46.25" font-family="Helvetica,sans-Serif" font-size="10.00">Cfg::loadIni</text>
</a>
</g>
</g>
<!-- Node1&#45;&gt;Node2 -->
<g id="edge1_Node000001_Node000002" class="edge">
<title>Node1&#45;&gt;Node2</title>
<g id="a_edge1_Node000001_Node000002"><a xlink:title=" ">
<path fill="none" stroke="#63b8ff" d="M55.46,-34.58C64.79,-36.38 75.54,-38.45 85.98,-40.47"/>
<polygon fill="#63b8ff" stroke="#63b8ff" points="85.13,-43.87 95.61,-42.33 86.46,-37 85.13,-43.87"/>
</a>
</g>
</g>
<!-- Node7 -->
<g id="Node000007" class="node">
<title>Node7</title>
<g id="a_Node000007"><a xlink:href="classCfg.html#a754bcb1933cc847b0bc1dbbfac72d486" target="_top" xlink:title="Анализирует опции командной строки, заполняет структуру opt.">
<polygon fill="white" stroke="#666666" points="175.25,-20.75 91,-20.75 91,0 175.25,0 175.25,-20.75"/>
<text text-anchor="middle" x="133.12" y="-7.25" font-family="Helvetica,sans-Serif" font-size="10.00">Cfg::termOpts</text>
</a>
</g>
</g>
<!-- Node1&#45;&gt;Node7 -->
<g id="edge7_Node000001_Node000007" class="edge">
<title>Node1&#45;&gt;Node7</title>
<g id="a_edge7_Node000001_Node000007"><a xlink:title=" ">
<path fill="none" stroke="#63b8ff" d="M55.46,-24.43C62.88,-23.07 71.19,-21.55 79.53,-20.02"/>
<polygon fill="#63b8ff" stroke="#63b8ff" points="80.14,-23.46 89.35,-18.22 78.88,-16.58 80.14,-23.46"/>
</a>
</g>
</g>
<!-- Node3 -->
<g id="Node000003" class="node">
<title>Node3</title>
<g id="a_Node000003"><a xlink:href="classINIReader.html#a444ab67be741a41dcd26759d744b20db" target="_top" xlink:title=" ">
<polygon fill="white" stroke="#666666" points="456.25,-78.75 369,-78.75 369,-58 456.25,-58 456.25,-78.75"/>
<text text-anchor="middle" x="412.62" y="-65.25" font-family="Helvetica,sans-Serif" font-size="10.00">INIReader::Get</text>
</a>
</g>
</g>
<!-- Node2&#45;&gt;Node3 -->
<g id="edge2_Node000002_Node000003" class="edge">
<title>Node2&#45;&gt;Node3</title>
<g id="a_edge2_Node000002_Node000003"><a xlink:title=" ">
<path fill="none" stroke="#63b8ff" d="M169.12,-59.89C182.21,-63.32 197.29,-66.68 211.25,-68.38 260.44,-74.34 316.92,-73.67 357.36,-71.9"/>
<polygon fill="#63b8ff" stroke="#63b8ff" points="357.51,-75.4 367.33,-71.42 357.17,-68.4 357.51,-75.4"/>
</a>
</g>
</g>
<!-- Node5 -->
<g id="Node000005" class="node">
<title>Node5</title>
<g id="a_Node000005"><a xlink:href="classINIReader.html#a37ef1f422f1a5cb43bf63d82f4ea112f" target="_top" xlink:title=" ">
<polygon fill="white" stroke="#666666" points="333,-59.75 211.25,-59.75 211.25,-39 333,-39 333,-59.75"/>
<text text-anchor="middle" x="272.12" y="-46.25" font-family="Helvetica,sans-Serif" font-size="10.00">INIReader::GetInteger</text>
</a>
</g>
</g>
<!-- Node2&#45;&gt;Node5 -->
<g id="edge4_Node000002_Node000005" class="edge">
<title>Node2&#45;&gt;Node5</title>
<g id="a_edge4_Node000002_Node000005"><a xlink:title=" ">
<path fill="none" stroke="#63b8ff" d="M169.05,-49.38C178.42,-49.38 188.91,-49.38 199.5,-49.38"/>
<polygon fill="#63b8ff" stroke="#63b8ff" points="199.46,-52.88 209.46,-49.38 199.46,-45.88 199.46,-52.88"/>
</a>
</g>
</g>
<!-- Node6 -->
<g id="Node000006" class="node">
<title>Node6</title>
<g id="a_Node000006"><a xlink:href="classINIReader.html#a7527150689e2dbdc7388306c00d5e039" target="_top" xlink:title=" ">
<polygon fill="white" stroke="#666666" points="331.88,-20.75 212.38,-20.75 212.38,0 331.88,0 331.88,-20.75"/>
<text text-anchor="middle" x="272.12" y="-7.25" font-family="Helvetica,sans-Serif" font-size="10.00">INIReader::ParseError</text>
</a>
</g>
</g>
<!-- Node2&#45;&gt;Node6 -->
<g id="edge6_Node000002_Node000006" class="edge">
<title>Node2&#45;&gt;Node6</title>
<g id="a_edge6_Node000002_Node000006"><a xlink:title=" ">
<path fill="none" stroke="#63b8ff" d="M169.05,-39.43C185.26,-34.82 204.79,-29.26 222.41,-24.24"/>
<polygon fill="#63b8ff" stroke="#63b8ff" points="223.26,-27.64 231.92,-21.54 221.35,-20.91 223.26,-27.64"/>
</a>
</g>
</g>
<!-- Node4 -->
<g id="Node000004" class="node">
<title>Node4</title>
<g id="a_Node000004"><a xlink:href="classINIReader.html#a29eb47ac6f75322fb729926cd058fef3" target="_top" xlink:title=" ">
<polygon fill="white" stroke="#666666" points="606.5,-78.75 492.25,-78.75 492.25,-58 606.5,-58 606.5,-78.75"/>
<text text-anchor="middle" x="549.38" y="-65.25" font-family="Helvetica,sans-Serif" font-size="10.00">INIReader::MakeKey</text>
</a>
</g>
</g>
<!-- Node3&#45;&gt;Node4 -->
<g id="edge3_Node000003_Node000004" class="edge">
<title>Node3&#45;&gt;Node4</title>
<g id="a_edge3_Node000003_Node000004"><a xlink:title=" ">
<path fill="none" stroke="#63b8ff" d="M456.63,-68.38C464.27,-68.38 472.4,-68.38 480.54,-68.38"/>
<polygon fill="#63b8ff" stroke="#63b8ff" points="480.48,-71.88 490.48,-68.38 480.48,-64.88 480.48,-71.88"/>
</a>
</g>
</g>
<!-- Node5&#45;&gt;Node3 -->
<g id="edge5_Node000005_Node000003" class="edge">
<title>Node5&#45;&gt;Node3</title>
<g id="a_edge5_Node000005_Node000003"><a xlink:title=" ">
<path fill="none" stroke="#63b8ff" d="M333.47,-57.65C341.4,-58.74 349.5,-59.85 357.32,-60.93"/>
<polygon fill="#63b8ff" stroke="#63b8ff" points="356.66,-64.37 367.05,-62.26 357.62,-57.43 356.66,-64.37"/>
</a>
</g>
</g>
</g>
</svg>
