<?xml version="1.0" encoding="UTF-8" standalone="no"?>
<!DOCTYPE svg PUBLIC "-//W3C//DTD SVG 1.1//EN"
 "http://www.w3.org/Graphics/SVG/1.1/DTD/svg11.dtd">
<!-- Generated by graphviz version 12.2.1 (0)
 -->
<!-- Title: INIReader::INIReader Pages: 1 -->
<svg width="451pt" height="29pt"
 viewBox="0.00 0.00 451.25 28.75" xmlns="http://www.w3.org/2000/svg" xmlns:xlink="http://www.w3.org/1999/xlink">
<g id="graph0" class="graph" transform="scale(1 1) rotate(0) translate(4 24.75)">
<title>INIReader::INIReader</title>
<!-- Node1 -->
<g id="Node000001" class="node">
<title>Node1</title>
<g id="a_Node000001"><a xlink:title=" ">
<polygon fill="#999999" stroke="#666666" points="443.25,-20.75 325.25,-20.75 325.25,0 443.25,0 443.25,-20.75"/>
<text text-anchor="middle" x="384.25" y="-7.25" font-family="Helvetica,sans-Serif" font-size="10.00">INIReader::INIReader</text>
</a>
</g>
</g>
<!-- Node2 -->
<g id="Node000002" class="node">
<title>Node2</title>
<g id="a_Node000002"><a xlink:href="classINIReader.html#a38e5a02b9eab882f23401a4b5a0c42a3" target="_top" xlink:title=" ">
<polygon fill="white" stroke="#666666" points="289.25,-20.75 154,-20.75 154,0 289.25,0 289.25,-20.75"/>
<text text-anchor="middle" x="221.62" y="-7.25" font-family="Helvetica,sans-Serif" font-size="10.00">INIReader::ValueHandler</text>
</a>
</g>
</g>
<!-- Node1&#45;&gt;Node2 -->
<g id="edge1_Node000001_Node000002" class="edge">
<title>Node1&#45;&gt;Node2</title>
<g id="a_edge1_Node000001_Node000002"><a xlink:title=" ">
<path fill="none" stroke="#63b8ff" d="M313.42,-10.38C305.56,-10.38 297.57,-10.38 289.74,-10.38"/>
<polygon fill="#63b8ff" stroke="#63b8ff" points="313.29,-13.88 323.29,-10.38 313.29,-6.88 313.29,-13.88"/>
</a>
</g>
</g>
<!-- Node3 -->
<g id="Node000003" class="node">
<title>Node3</title>
<g id="a_Node000003"><a xlink:href="classINIReader.html#aa991be1958a5414e4bfcfb692b28d647" target="_top" xlink:title=" ">
<polygon fill="white" stroke="#666666" points="118,-20.75 0,-20.75 0,0 118,0 118,-20.75"/>
<text text-anchor="middle" x="59" y="-7.25" font-family="Helvetica,sans-Serif" font-size="10.00">INIReader::INIReader</text>
</a>
</g>
</g>
<!-- Node2&#45;&gt;Node3 -->
<g id="edge2_Node000002_Node000003" class="edge">
<title>Node2&#45;&gt;Node3</title>
<g id="a_edge2_Node000002_Node000003"><a xlink:title=" ">
<path fill="none" stroke="#63b8ff" d="M142.46,-10.38C134.34,-10.38 126.18,-10.38 118.33,-10.38"/>
<polygon fill="#63b8ff" stroke="#63b8ff" points="142.39,-13.88 152.39,-10.38 142.39,-6.88 142.39,-13.88"/>
</a>
</g>
</g>
</g>
</svg>
