<?xml version="1.0" encoding="UTF-8" standalone="no"?>
<!DOCTYPE svg PUBLIC "-//W3C//DTD SVG 1.1//EN"
 "http://www.w3.org/Graphics/SVG/1.1/DTD/svg11.dtd">
<!-- Generated by graphviz version 12.2.1 (0)
 -->
<!-- Title: INIReader::GetUnsigned Pages: 1 -->
<svg width="415pt" height="29pt"
 viewBox="0.00 0.00 414.50 28.75" xmlns="http://www.w3.org/2000/svg" xmlns:xlink="http://www.w3.org/1999/xlink">
<g id="graph0" class="graph" transform="scale(1 1) rotate(0) translate(4 24.75)">
<title>INIReader::GetUnsigned</title>
<!-- Node1 -->
<g id="Node000001" class="node">
<title>Node1</title>
<g id="a_Node000001"><a xlink:title=" ">
<polygon fill="#999999" stroke="#666666" points="133,-20.75 0,-20.75 0,0 133,0 133,-20.75"/>
<text text-anchor="middle" x="66.5" y="-7.25" font-family="Helvetica,sans-Serif" font-size="10.00">INIReader::GetUnsigned</text>
</a>
</g>
</g>
<!-- Node2 -->
<g id="Node000002" class="node">
<title>Node2</title>
<g id="a_Node000002"><a xlink:href="classINIReader.html#a444ab67be741a41dcd26759d744b20db" target="_top" xlink:title=" ">
<polygon fill="white" stroke="#666666" points="256.25,-20.75 169,-20.75 169,0 256.25,0 256.25,-20.75"/>
<text text-anchor="middle" x="212.62" y="-7.25" font-family="Helvetica,sans-Serif" font-size="10.00">INIReader::Get</text>
</a>
</g>
</g>
<!-- Node1&#45;&gt;Node2 -->
<g id="edge1_Node000001_Node000002" class="edge">
<title>Node1&#45;&gt;Node2</title>
<g id="a_edge1_Node000001_Node000002"><a xlink:title=" ">
<path fill="none" stroke="#63b8ff" d="M133.24,-10.38C141.32,-10.38 149.5,-10.38 157.39,-10.38"/>
<polygon fill="#63b8ff" stroke="#63b8ff" points="157.16,-13.88 167.16,-10.38 157.16,-6.88 157.16,-13.88"/>
</a>
</g>
</g>
<!-- Node3 -->
<g id="Node000003" class="node">
<title>Node3</title>
<g id="a_Node000003"><a xlink:href="classINIReader.html#a29eb47ac6f75322fb729926cd058fef3" target="_top" xlink:title=" ">
<polygon fill="white" stroke="#666666" points="406.5,-20.75 292.25,-20.75 292.25,0 406.5,0 406.5,-20.75"/>
<text text-anchor="middle" x="349.38" y="-7.25" font-family="Helvetica,sans-Serif" font-size="10.00">INIReader::MakeKey</text>
</a>
</g>
</g>
<!-- Node2&#45;&gt;Node3 -->
<g id="edge2_Node000002_Node000003" class="edge">
<title>Node2&#45;&gt;Node3</title>
<g id="a_edge2_Node000002_Node000003"><a xlink:title=" ">
<path fill="none" stroke="#63b8ff" d="M256.63,-10.38C264.27,-10.38 272.4,-10.38 280.54,-10.38"/>
<polygon fill="#63b8ff" stroke="#63b8ff" points="280.48,-13.88 290.48,-10.38 280.48,-6.88 280.48,-13.88"/>
</a>
</g>
</g>
</g>
</svg>
