<?xml version="1.0" encoding="UTF-8" standalone="no"?>
<!DOCTYPE svg PUBLIC "-//W3C//DTD SVG 1.1//EN"
 "http://www.w3.org/Graphics/SVG/1.1/DTD/svg11.dtd">
<!-- Generated by graphviz version 12.2.1 (0)
 -->
<!-- Title: Fs::is_video_downloaded Pages: 1 -->
<svg width="487pt" height="29pt"
 viewBox="0.00 0.00 486.75 28.75" xmlns="http://www.w3.org/2000/svg" xmlns:xlink="http://www.w3.org/1999/xlink">
<g id="graph0" class="graph" transform="scale(1 1) rotate(0) translate(4 24.75)">
<title>Fs::is_video_downloaded</title>
<!-- Node1 -->
<g id="Node000001" class="node">
<title>Node1</title>
<g id="a_Node000001"><a xlink:title="Проверка, есть ли ID видео в DRAY_LOG.">
<polygon fill="#999999" stroke="#666666" points="478.75,-20.75 340.5,-20.75 340.5,0 478.75,0 478.75,-20.75"/>
<text text-anchor="middle" x="409.62" y="-7.25" font-family="Helvetica,sans-Serif" font-size="10.00">Fs::is_video_downloaded</text>
</a>
</g>
</g>
<!-- Node2 -->
<g id="Node000002" class="node">
<title>Node2</title>
<g id="a_Node000002"><a xlink:href="classYt.html#a43514b42682d0ebe7ef3f8716aaf0e93" target="_top" xlink:title="Получение и обработка ID видео из плейлиста">
<polygon fill="white" stroke="#666666" points="304.5,-20.75 174.5,-20.75 174.5,0 304.5,0 304.5,-20.75"/>
<text text-anchor="middle" x="239.5" y="-7.25" font-family="Helvetica,sans-Serif" font-size="10.00">Yt::process_playlist_ids</text>
</a>
</g>
</g>
<!-- Node1&#45;&gt;Node2 -->
<g id="edge1_Node000001_Node000002" class="edge">
<title>Node1&#45;&gt;Node2</title>
<g id="a_edge1_Node000001_Node000002"><a xlink:title=" ">
<path fill="none" stroke="#63b8ff" d="M328.87,-10.38C320.79,-10.38 312.64,-10.38 304.75,-10.38"/>
<polygon fill="#63b8ff" stroke="#63b8ff" points="328.73,-13.88 338.73,-10.38 328.73,-6.88 328.73,-13.88"/>
</a>
</g>
</g>
<!-- Node3 -->
<g id="Node000003" class="node">
<title>Node3</title>
<g id="a_Node000003"><a xlink:href="classYt.html#a2567e552458d666519eb74d951992c82" target="_top" xlink:title="Скачка url с запрошенным режимом">
<polygon fill="white" stroke="#666666" points="138.5,-20.75 76.75,-20.75 76.75,0 138.5,0 138.5,-20.75"/>
<text text-anchor="middle" x="107.62" y="-7.25" font-family="Helvetica,sans-Serif" font-size="10.00">Yt::yt_dlp</text>
</a>
</g>
</g>
<!-- Node2&#45;&gt;Node3 -->
<g id="edge2_Node000002_Node000003" class="edge">
<title>Node2&#45;&gt;Node3</title>
<g id="a_edge2_Node000002_Node000003"><a xlink:title=" ">
<path fill="none" stroke="#63b8ff" d="M163.03,-10.38C154.51,-10.38 146.24,-10.38 138.83,-10.38"/>
<polygon fill="#63b8ff" stroke="#63b8ff" points="162.81,-13.88 172.81,-10.38 162.81,-6.88 162.81,-13.88"/>
</a>
</g>
</g>
<!-- Node4 -->
<g id="Node000004" class="node">
<title>Node4</title>
<g id="a_Node000004"><a xlink:href="main_8cpp.html#a0ddf1224851353fc92bfbff6f499fa97" target="_top" xlink:title="Точка входа в программу">
<polygon fill="white" stroke="#666666" points="40.75,-20.75 0,-20.75 0,0 40.75,0 40.75,-20.75"/>
<text text-anchor="middle" x="20.38" y="-7.25" font-family="Helvetica,sans-Serif" font-size="10.00">main</text>
</a>
</g>
</g>
<!-- Node3&#45;&gt;Node4 -->
<g id="edge3_Node000003_Node000004" class="edge">
<title>Node3&#45;&gt;Node4</title>
<g id="a_edge3_Node000003_Node000004"><a xlink:title=" ">
<path fill="none" stroke="#63b8ff" d="M64.82,-10.38C56.57,-10.38 48.28,-10.38 41.18,-10.38"/>
<polygon fill="#63b8ff" stroke="#63b8ff" points="64.82,-13.88 74.82,-10.38 64.82,-6.88 64.82,-13.88"/>
</a>
</g>
</g>
</g>
</svg>
