<?xml version="1.0" encoding="UTF-8" standalone="no"?>
<!DOCTYPE svg PUBLIC "-//W3C//DTD SVG 1.1//EN"
 "http://www.w3.org/Graphics/SVG/1.1/DTD/svg11.dtd">
<!-- Generated by graphviz version 12.2.1 (0)
 -->
<!-- Title: INIReader::GetReal Pages: 1 -->
<svg width="391pt" height="29pt"
 viewBox="0.00 0.00 390.50 28.75" xmlns="http://www.w3.org/2000/svg" xmlns:xlink="http://www.w3.org/1999/xlink">
<g id="graph0" class="graph" transform="scale(1 1) rotate(0) translate(4 24.75)">
<title>INIReader::GetReal</title>
<!-- Node1 -->
<g id="Node000001" class="node">
<title>Node1</title>
<g id="a_Node000001"><a xlink:title=" ">
<polygon fill="#999999" stroke="#666666" points="109,-20.75 0,-20.75 0,0 109,0 109,-20.75"/>
<text text-anchor="middle" x="54.5" y="-7.25" font-family="Helvetica,sans-Serif" font-size="10.00">INIReader::GetReal</text>
</a>
</g>
</g>
<!-- Node2 -->
<g id="Node000002" class="node">
<title>Node2</title>
<g id="a_Node000002"><a xlink:href="classINIReader.html#a444ab67be741a41dcd26759d744b20db" target="_top" xlink:title=" ">
<polygon fill="white" stroke="#666666" points="232.25,-20.75 145,-20.75 145,0 232.25,0 232.25,-20.75"/>
<text text-anchor="middle" x="188.62" y="-7.25" font-family="Helvetica,sans-Serif" font-size="10.00">INIReader::Get</text>
</a>
</g>
</g>
<!-- Node1&#45;&gt;Node2 -->
<g id="edge1_Node000001_Node000002" class="edge">
<title>Node1&#45;&gt;Node2</title>
<g id="a_edge1_Node000001_Node000002"><a xlink:title=" ">
<path fill="none" stroke="#63b8ff" d="M109.24,-10.38C117.21,-10.38 125.42,-10.38 133.4,-10.38"/>
<polygon fill="#63b8ff" stroke="#63b8ff" points="133.35,-13.88 143.35,-10.38 133.35,-6.88 133.35,-13.88"/>
</a>
</g>
</g>
<!-- Node3 -->
<g id="Node000003" class="node">
<title>Node3</title>
<g id="a_Node000003"><a xlink:href="classINIReader.html#a29eb47ac6f75322fb729926cd058fef3" target="_top" xlink:title=" ">
<polygon fill="white" stroke="#666666" points="382.5,-20.75 268.25,-20.75 268.25,0 382.5,0 382.5,-20.75"/>
<text text-anchor="middle" x="325.38" y="-7.25" font-family="Helvetica,sans-Serif" font-size="10.00">INIReader::MakeKey</text>
</a>
</g>
</g>
<!-- Node2&#45;&gt;Node3 -->
<g id="edge2_Node000002_Node000003" class="edge">
<title>Node2&#45;&gt;Node3</title>
<g id="a_edge2_Node000002_Node000003"><a xlink:title=" ">
<path fill="none" stroke="#63b8ff" d="M232.63,-10.38C240.27,-10.38 248.4,-10.38 256.54,-10.38"/>
<polygon fill="#63b8ff" stroke="#63b8ff" points="256.48,-13.88 266.48,-10.38 256.48,-6.88 256.48,-13.88"/>
</a>
</g>
</g>
</g>
</svg>
