<?xml version="1.0" encoding="UTF-8" standalone="no"?>
<!DOCTYPE svg PUBLIC "-//W3C//DTD SVG 1.1//EN"
 "http://www.w3.org/Graphics/SVG/1.1/DTD/svg11.dtd">
<!-- Generated by graphviz version 12.2.1 (0)
 -->
<!-- Title: INIReader::Get Pages: 1 -->
<svg width="475pt" height="300pt"
 viewBox="0.00 0.00 474.75 299.75" xmlns="http://www.w3.org/2000/svg" xmlns:xlink="http://www.w3.org/1999/xlink">
<g id="graph0" class="graph" transform="scale(1 1) rotate(0) translate(4 295.75)">
<title>INIReader::Get</title>
<!-- Node1 -->
<g id="Node000001" class="node">
<title>Node1</title>
<g id="a_Node000001"><a xlink:title=" ">
<polygon fill="#999999" stroke="#666666" points="466.75,-156.75 379.5,-156.75 379.5,-136 466.75,-136 466.75,-156.75"/>
<text text-anchor="middle" x="423.12" y="-143.25" font-family="Helvetica,sans-Serif" font-size="10.00">INIReader::Get</text>
</a>
</g>
</g>
<!-- Node2 -->
<g id="Node000002" class="node">
<title>Node2</title>
<g id="a_Node000002"><a xlink:href="classINIReader.html#a6fcbb2ebdfad098e34a14f2144f711f7" target="_top" xlink:title=" ">
<polygon fill="white" stroke="#666666" points="334.5,-291.75 207.5,-291.75 207.5,-271 334.5,-271 334.5,-291.75"/>
<text text-anchor="middle" x="271" y="-278.25" font-family="Helvetica,sans-Serif" font-size="10.00">INIReader::GetBoolean</text>
</a>
</g>
</g>
<!-- Node1&#45;&gt;Node2 -->
<g id="edge1_Node000001_Node000002" class="edge">
<title>Node1&#45;&gt;Node2</title>
<g id="a_edge1_Node000001_Node000002"><a xlink:title=" ">
<path fill="none" stroke="#63b8ff" d="M413.3,-167.35C401.31,-193.32 377.4,-237.07 343.5,-261.38 338.37,-265.05 332.58,-268.06 326.58,-270.51"/>
<polygon fill="#63b8ff" stroke="#63b8ff" points="416.38,-169.06 417.23,-158.5 409.98,-166.22 416.38,-169.06"/>
</a>
</g>
</g>
<!-- Node3 -->
<g id="Node000003" class="node">
<title>Node3</title>
<g id="a_Node000003"><a xlink:href="classINIReader.html#a37ef1f422f1a5cb43bf63d82f4ea112f" target="_top" xlink:title=" ">
<polygon fill="white" stroke="#666666" points="331.88,-252.75 210.12,-252.75 210.12,-232 331.88,-232 331.88,-252.75"/>
<text text-anchor="middle" x="271" y="-239.25" font-family="Helvetica,sans-Serif" font-size="10.00">INIReader::GetInteger</text>
</a>
</g>
</g>
<!-- Node1&#45;&gt;Node3 -->
<g id="edge2_Node000001_Node000003" class="edge">
<title>Node1&#45;&gt;Node3</title>
<g id="a_edge2_Node000001_Node000003"><a xlink:title=" ">
<path fill="none" stroke="#63b8ff" d="M405.7,-165.33C390.87,-181.42 367.72,-204.1 343.5,-218.38 334.36,-223.76 323.85,-228.14 313.75,-231.61"/>
<polygon fill="#63b8ff" stroke="#63b8ff" points="407.95,-168.07 412.03,-158.3 402.74,-163.4 407.95,-168.07"/>
</a>
</g>
</g>
<!-- Node4 -->
<g id="Node000004" class="node">
<title>Node4</title>
<g id="a_Node000004"><a xlink:href="classCfg.html#a73e8ab55770e914a02e269e015ab91c7" target="_top" xlink:title="Анализирует ini, заполняет структуры fs и yt.">
<polygon fill="white" stroke="#666666" points="162.5,-233.75 91,-233.75 91,-213 162.5,-213 162.5,-233.75"/>
<text text-anchor="middle" x="126.75" y="-220.25" font-family="Helvetica,sans-Serif" font-size="10.00">Cfg::loadIni</text>
</a>
</g>
</g>
<!-- Node1&#45;&gt;Node4 -->
<g id="edge10_Node000001_Node000004" class="edge">
<title>Node1&#45;&gt;Node4</title>
<g id="a_edge10_Node000001_Node000004"><a xlink:title=" ">
<path fill="none" stroke="#63b8ff" d="M394.1,-162.73C379.45,-170.64 360.97,-179.63 343.5,-185.38 281.71,-205.67 206.21,-215.81 162.88,-220.3"/>
<polygon fill="#63b8ff" stroke="#63b8ff" points="395.65,-165.87 402.69,-157.96 392.25,-159.75 395.65,-165.87"/>
</a>
</g>
</g>
<!-- Node6 -->
<g id="Node000006" class="node">
<title>Node6</title>
<g id="a_Node000006"><a xlink:href="classINIReader.html#ae15fc2bf2cc8bb98066356b8654e3bee" target="_top" xlink:title=" ">
<polygon fill="white" stroke="#666666" points="337.88,-176.75 204.12,-176.75 204.12,-156 337.88,-156 337.88,-176.75"/>
<text text-anchor="middle" x="271" y="-163.25" font-family="Helvetica,sans-Serif" font-size="10.00">INIReader::GetInteger64</text>
</a>
</g>
</g>
<!-- Node1&#45;&gt;Node6 -->
<g id="edge5_Node000001_Node000006" class="edge">
<title>Node1&#45;&gt;Node6</title>
<g id="a_edge5_Node000001_Node000006"><a xlink:title=" ">
<path fill="none" stroke="#63b8ff" d="M367.73,-153.62C358.16,-154.9 348.11,-156.23 338.27,-157.55"/>
<polygon fill="#63b8ff" stroke="#63b8ff" points="368.15,-157.1 377.6,-152.31 367.23,-150.16 368.15,-157.1"/>
</a>
</g>
</g>
<!-- Node7 -->
<g id="Node000007" class="node">
<title>Node7</title>
<g id="a_Node000007"><a xlink:href="classINIReader.html#a0a41e06f215552e5d7217a0abc5c214f" target="_top" xlink:title=" ">
<polygon fill="white" stroke="#666666" points="325.5,-137.75 216.5,-137.75 216.5,-117 325.5,-117 325.5,-137.75"/>
<text text-anchor="middle" x="271" y="-124.25" font-family="Helvetica,sans-Serif" font-size="10.00">INIReader::GetReal</text>
</a>
</g>
</g>
<!-- Node1&#45;&gt;Node7 -->
<g id="edge6_Node000001_Node000007" class="edge">
<title>Node1&#45;&gt;Node7</title>
<g id="a_edge6_Node000001_Node000007"><a xlink:title=" ">
<path fill="none" stroke="#63b8ff" d="M367.92,-139.51C354.28,-137.79 339.63,-135.93 326,-134.21"/>
<polygon fill="#63b8ff" stroke="#63b8ff" points="367.24,-142.96 377.6,-140.74 368.12,-136.01 367.24,-142.96"/>
</a>
</g>
</g>
<!-- Node8 -->
<g id="Node000008" class="node">
<title>Node8</title>
<g id="a_Node000008"><a xlink:href="classINIReader.html#a37db13b6a4db6c095a515e77ee5b932b" target="_top" xlink:title=" ">
<polygon fill="white" stroke="#666666" points="328.88,-98.75 213.12,-98.75 213.12,-78 328.88,-78 328.88,-98.75"/>
<text text-anchor="middle" x="271" y="-85.25" font-family="Helvetica,sans-Serif" font-size="10.00">INIReader::GetString</text>
</a>
</g>
</g>
<!-- Node1&#45;&gt;Node8 -->
<g id="edge7_Node000001_Node000008" class="edge">
<title>Node1&#45;&gt;Node8</title>
<g id="a_edge7_Node000001_Node000008"><a xlink:title=" ">
<path fill="none" stroke="#63b8ff" d="M392.31,-130.42C377.84,-123.08 360.05,-114.63 343.5,-108.38 334.58,-105 324.84,-101.91 315.5,-99.21"/>
<polygon fill="#63b8ff" stroke="#63b8ff" points="390.36,-133.35 400.85,-134.83 393.57,-127.13 390.36,-133.35"/>
</a>
</g>
</g>
<!-- Node9 -->
<g id="Node000009" class="node">
<title>Node9</title>
<g id="a_Node000009"><a xlink:href="classINIReader.html#a501e06eacb953a5f99f1acb46c965869" target="_top" xlink:title=" ">
<polygon fill="white" stroke="#666666" points="337.5,-59.75 204.5,-59.75 204.5,-39 337.5,-39 337.5,-59.75"/>
<text text-anchor="middle" x="271" y="-46.25" font-family="Helvetica,sans-Serif" font-size="10.00">INIReader::GetUnsigned</text>
</a>
</g>
</g>
<!-- Node1&#45;&gt;Node9 -->
<g id="edge8_Node000001_Node000009" class="edge">
<title>Node1&#45;&gt;Node9</title>
<g id="a_edge8_Node000001_Node000009"><a xlink:title=" ">
<path fill="none" stroke="#63b8ff" d="M407.11,-126.88C392.63,-109.37 369.18,-84.21 343.5,-69.38 337.14,-65.7 330.06,-62.67 322.91,-60.18"/>
<polygon fill="#63b8ff" stroke="#63b8ff" points="404.25,-128.91 413.24,-134.52 409.71,-124.53 404.25,-128.91"/>
</a>
</g>
</g>
<!-- Node10 -->
<g id="Node000010" class="node">
<title>Node10</title>
<g id="a_Node000010"><a xlink:href="classINIReader.html#aa521d5d82a367dc1431d309da02a2b57" target="_top" xlink:title=" ">
<polygon fill="white" stroke="#666666" points="343.5,-20.75 198.5,-20.75 198.5,0 343.5,0 343.5,-20.75"/>
<text text-anchor="middle" x="271" y="-7.25" font-family="Helvetica,sans-Serif" font-size="10.00">INIReader::GetUnsigned64</text>
</a>
</g>
</g>
<!-- Node1&#45;&gt;Node10 -->
<g id="edge9_Node000001_Node000010" class="edge">
<title>Node1&#45;&gt;Node10</title>
<g id="a_edge9_Node000001_Node000010"><a xlink:title=" ">
<path fill="none" stroke="#63b8ff" d="M413.35,-125.22C401.41,-99.03 377.56,-54.89 343.5,-30.38 338.37,-26.69 332.59,-23.67 326.59,-21.22"/>
<polygon fill="#63b8ff" stroke="#63b8ff" points="410.05,-126.4 417.26,-134.16 416.46,-123.59 410.05,-126.4"/>
</a>
</g>
</g>
<!-- Node3&#45;&gt;Node4 -->
<g id="edge3_Node000003_Node000004" class="edge">
<title>Node3&#45;&gt;Node4</title>
<g id="a_edge3_Node000003_Node000004"><a xlink:title=" ">
<path fill="none" stroke="#63b8ff" d="M198.31,-232.8C185.89,-231.14 173.49,-229.48 162.63,-228.03"/>
<polygon fill="#63b8ff" stroke="#63b8ff" points="197.8,-236.26 208.17,-234.12 198.72,-229.32 197.8,-236.26"/>
</a>
</g>
</g>
<!-- Node5 -->
<g id="Node000005" class="node">
<title>Node5</title>
<g id="a_Node000005"><a xlink:href="classCfg.html#a7e0dd6c56406c37d332d0357c6bc70eb" target="_top" xlink:title="Конструктор объекта класса Cfg.">
<polygon fill="white" stroke="#666666" points="55,-233.75 0,-233.75 0,-213 55,-213 55,-233.75"/>
<text text-anchor="middle" x="27.5" y="-220.25" font-family="Helvetica,sans-Serif" font-size="10.00">Cfg::Cfg</text>
</a>
</g>
</g>
<!-- Node4&#45;&gt;Node5 -->
<g id="edge4_Node000004_Node000005" class="edge">
<title>Node4&#45;&gt;Node5</title>
<g id="a_edge4_Node000004_Node000005"><a xlink:title=" ">
<path fill="none" stroke="#63b8ff" d="M79.2,-223.38C71.01,-223.38 62.73,-223.38 55.32,-223.38"/>
<polygon fill="#63b8ff" stroke="#63b8ff" points="79.13,-226.88 89.13,-223.38 79.13,-219.88 79.13,-226.88"/>
</a>
</g>
</g>
</g>
</svg>
