<?xml version="1.0" encoding="UTF-8" standalone="no"?>
<!DOCTYPE svg PUBLIC "-//W3C//DTD SVG 1.1//EN"
 "http://www.w3.org/Graphics/SVG/1.1/DTD/svg11.dtd">
<!-- Generated by graphviz version 12.2.1 (0)
 -->
<!-- Title: Yt::yt_dlp Pages: 1 -->
<svg width="539pt" height="107pt"
 viewBox="0.00 0.00 539.25 106.75" xmlns="http://www.w3.org/2000/svg" xmlns:xlink="http://www.w3.org/1999/xlink">
<g id="graph0" class="graph" transform="scale(1 1) rotate(0) translate(4 102.75)">
<title>Yt::yt_dlp</title>
<!-- Node1 -->
<g id="Node000001" class="node">
<title>Node1</title>
<g id="a_Node000001"><a xlink:title="Скачка url с запрошенным режимом">
<polygon fill="#999999" stroke="#666666" points="61.75,-39.75 0,-39.75 0,-19 61.75,-19 61.75,-39.75"/>
<text text-anchor="middle" x="30.88" y="-26.25" font-family="Helvetica,sans-Serif" font-size="10.00">Yt::yt_dlp</text>
</a>
</g>
</g>
<!-- Node2 -->
<g id="Node000002" class="node">
<title>Node2</title>
<g id="a_Node000002"><a xlink:href="classYt.html#a43514b42682d0ebe7ef3f8716aaf0e93" target="_top" xlink:title="Получение и обработка ID видео из плейлиста">
<polygon fill="white" stroke="#666666" points="227.75,-58.75 97.75,-58.75 97.75,-38 227.75,-38 227.75,-58.75"/>
<text text-anchor="middle" x="162.75" y="-45.25" font-family="Helvetica,sans-Serif" font-size="10.00">Yt::process_playlist_ids</text>
</a>
</g>
</g>
<!-- Node1&#45;&gt;Node2 -->
<g id="edge1_Node000001_Node000002" class="edge">
<title>Node1&#45;&gt;Node2</title>
<g id="a_edge1_Node000001_Node000002"><a xlink:title=" ">
<path fill="none" stroke="#63b8ff" d="M62,-33.78C69.4,-34.86 77.65,-36.07 86.16,-37.32"/>
<polygon fill="#63b8ff" stroke="#63b8ff" points="85.53,-40.76 95.93,-38.75 86.55,-33.84 85.53,-40.76"/>
</a>
</g>
</g>
<!-- Node6 -->
<g id="Node000006" class="node">
<title>Node6</title>
<g id="a_Node000006"><a xlink:href="classYt.html#a76e426c4decef7c5777bdf88c8c84533" target="_top" xlink:title="Обёртка вокруг консольной команды yt&#45;dlp.">
<polygon fill="white" stroke="#666666" points="374.25,-20.75 291.5,-20.75 291.5,0 374.25,0 374.25,-20.75"/>
<text text-anchor="middle" x="332.88" y="-7.25" font-family="Helvetica,sans-Serif" font-size="10.00">Yt::run_yt_dlp</text>
</a>
</g>
</g>
<!-- Node1&#45;&gt;Node6 -->
<g id="edge7_Node000001_Node000006" class="edge">
<title>Node1&#45;&gt;Node6</title>
<g id="a_edge7_Node000001_Node000006"><a xlink:title=" ">
<path fill="none" stroke="#63b8ff" d="M62.01,-27.47C113,-24.24 216.86,-17.66 279.82,-13.67"/>
<polygon fill="#63b8ff" stroke="#63b8ff" points="279.8,-17.18 289.56,-13.05 279.36,-10.19 279.8,-17.18"/>
</a>
</g>
</g>
<!-- Node3 -->
<g id="Node000003" class="node">
<title>Node3</title>
<g id="a_Node000003"><a xlink:href="classFs.html#a6272d618633b1ea9d78a53be81b12fd7" target="_top" xlink:title="Проверка, есть ли ID видео в DRAY_LOG.">
<polygon fill="white" stroke="#666666" points="402,-98.75 263.75,-98.75 263.75,-78 402,-78 402,-98.75"/>
<text text-anchor="middle" x="332.88" y="-85.25" font-family="Helvetica,sans-Serif" font-size="10.00">Fs::is_video_downloaded</text>
</a>
</g>
</g>
<!-- Node2&#45;&gt;Node3 -->
<g id="edge2_Node000002_Node000003" class="edge">
<title>Node2&#45;&gt;Node3</title>
<g id="a_edge2_Node000002_Node000003"><a xlink:title=" ">
<path fill="none" stroke="#63b8ff" d="M209.25,-59.2C229.62,-64.05 253.85,-69.81 275.37,-74.93"/>
<polygon fill="#63b8ff" stroke="#63b8ff" points="274.33,-78.28 284.87,-77.19 275.95,-71.47 274.33,-78.28"/>
</a>
</g>
</g>
<!-- Node5 -->
<g id="Node000005" class="node">
<title>Node5</title>
<g id="a_Node000005"><a xlink:href="classFs.html#a3bbf4008231e10a1e1d95696df0d14a5" target="_top" xlink:title="Запись ID видео в DRAY_LOG.">
<polygon fill="white" stroke="#666666" points="380.25,-59.75 285.5,-59.75 285.5,-39 380.25,-39 380.25,-59.75"/>
<text text-anchor="middle" x="332.88" y="-46.25" font-family="Helvetica,sans-Serif" font-size="10.00">Fs::log_video_id</text>
</a>
</g>
</g>
<!-- Node2&#45;&gt;Node5 -->
<g id="edge4_Node000002_Node000005" class="edge">
<title>Node2&#45;&gt;Node5</title>
<g id="a_edge4_Node000002_Node000005"><a xlink:title=" ">
<path fill="none" stroke="#63b8ff" d="M227.79,-48.76C242.95,-48.85 259.03,-48.94 273.9,-49.03"/>
<polygon fill="#63b8ff" stroke="#63b8ff" points="273.47,-52.53 283.49,-49.09 273.51,-45.53 273.47,-52.53"/>
</a>
</g>
</g>
<!-- Node2&#45;&gt;Node6 -->
<g id="edge6_Node000002_Node000006" class="edge">
<title>Node2&#45;&gt;Node6</title>
<g id="a_edge6_Node000002_Node000006"><a xlink:title=" ">
<path fill="none" stroke="#63b8ff" d="M211.48,-37.59C232.89,-32.75 258.2,-27.03 280.07,-22.08"/>
<polygon fill="#63b8ff" stroke="#63b8ff" points="280.69,-25.53 289.68,-19.91 279.15,-18.7 280.69,-25.53"/>
</a>
</g>
</g>
<!-- Node4 -->
<g id="Node000004" class="node">
<title>Node4</title>
<g id="a_Node000004"><a xlink:href="classFs.html#abe01b346d7340a78999e275b36e06b46" target="_top" xlink:title="Возвращает путь к DRAY_LOG.">
<polygon fill="white" stroke="#666666" points="531.25,-78.75 438,-78.75 438,-58 531.25,-58 531.25,-78.75"/>
<text text-anchor="middle" x="484.62" y="-65.25" font-family="Helvetica,sans-Serif" font-size="10.00">Fs::drayLogPath</text>
</a>
</g>
</g>
<!-- Node3&#45;&gt;Node4 -->
<g id="edge3_Node000003_Node000004" class="edge">
<title>Node3&#45;&gt;Node4</title>
<g id="a_edge3_Node000003_Node000004"><a xlink:title=" ">
<path fill="none" stroke="#63b8ff" d="M402.18,-79.25C410.26,-78.17 418.45,-77.08 426.36,-76.02"/>
<polygon fill="#63b8ff" stroke="#63b8ff" points="426.76,-79.5 436.21,-74.71 425.83,-72.56 426.76,-79.5"/>
</a>
</g>
</g>
<!-- Node5&#45;&gt;Node4 -->
<g id="edge5_Node000005_Node000004" class="edge">
<title>Node5&#45;&gt;Node4</title>
<g id="a_edge5_Node000005_Node000004"><a xlink:title=" ">
<path fill="none" stroke="#63b8ff" d="M380.44,-55.28C394.94,-57.12 411.11,-59.17 426.26,-61.1"/>
<polygon fill="#63b8ff" stroke="#63b8ff" points="425.74,-64.56 436.11,-62.35 426.63,-57.61 425.74,-64.56"/>
</a>
</g>
</g>
</g>
</svg>
