<?xml version="1.0" encoding="UTF-8" standalone="no"?>
<!DOCTYPE svg PUBLIC "-//W3C//DTD SVG 1.1//EN"
 "http://www.w3.org/Graphics/SVG/1.1/DTD/svg11.dtd">
<!-- Generated by graphviz version 12.2.1 (0)
 -->
<!-- Title: Fs::mkdir_p Pages: 1 -->
<svg width="262pt" height="29pt"
 viewBox="0.00 0.00 262.25 28.75" xmlns="http://www.w3.org/2000/svg" xmlns:xlink="http://www.w3.org/1999/xlink">
<g id="graph0" class="graph" transform="scale(1 1) rotate(0) translate(4 24.75)">
<title>Fs::mkdir_p</title>
<!-- Node1 -->
<g id="Node000001" class="node">
<title>Node1</title>
<g id="a_Node000001"><a xlink:title="Создаёт папку (целый путь), если её ещё нет">
<polygon fill="#999999" stroke="#666666" points="254.25,-20.75 181.25,-20.75 181.25,0 254.25,0 254.25,-20.75"/>
<text text-anchor="middle" x="217.75" y="-7.25" font-family="Helvetica,sans-Serif" font-size="10.00">Fs::mkdir_p</text>
</a>
</g>
</g>
<!-- Node2 -->
<g id="Node000002" class="node">
<title>Node2</title>
<g id="a_Node000002"><a xlink:href="classFs.html#acb7d48bc48ced2ef3689cf3ef6e997bd" target="_top" xlink:title="Создаёт нужные для работы проги папки">
<polygon fill="white" stroke="#666666" points="145.25,-20.75 76.75,-20.75 76.75,0 145.25,0 145.25,-20.75"/>
<text text-anchor="middle" x="111" y="-7.25" font-family="Helvetica,sans-Serif" font-size="10.00">Fs::initDirs</text>
</a>
</g>
</g>
<!-- Node1&#45;&gt;Node2 -->
<g id="edge1_Node000001_Node000002" class="edge">
<title>Node1&#45;&gt;Node2</title>
<g id="a_edge1_Node000001_Node000002"><a xlink:title=" ">
<path fill="none" stroke="#63b8ff" d="M169.66,-10.38C161.51,-10.38 153.18,-10.38 145.48,-10.38"/>
<polygon fill="#63b8ff" stroke="#63b8ff" points="169.48,-13.88 179.48,-10.38 169.48,-6.88 169.48,-13.88"/>
</a>
</g>
</g>
<!-- Node3 -->
<g id="Node000003" class="node">
<title>Node3</title>
<g id="a_Node000003"><a xlink:href="main_8cpp.html#a0ddf1224851353fc92bfbff6f499fa97" target="_top" xlink:title="Точка входа в программу">
<polygon fill="white" stroke="#666666" points="40.75,-20.75 0,-20.75 0,0 40.75,0 40.75,-20.75"/>
<text text-anchor="middle" x="20.38" y="-7.25" font-family="Helvetica,sans-Serif" font-size="10.00">main</text>
</a>
</g>
</g>
<!-- Node2&#45;&gt;Node3 -->
<g id="edge2_Node000002_Node000003" class="edge">
<title>Node2&#45;&gt;Node3</title>
<g id="a_edge2_Node000002_Node000003"><a xlink:title=" ">
<path fill="none" stroke="#63b8ff" d="M65.07,-10.38C56.62,-10.38 48.2,-10.38 41.04,-10.38"/>
<polygon fill="#63b8ff" stroke="#63b8ff" points="64.98,-13.88 74.98,-10.38 64.98,-6.88 64.98,-13.88"/>
</a>
</g>
</g>
</g>
</svg>
