<?xml version="1.0" encoding="UTF-8" standalone="no"?>
<!DOCTYPE svg PUBLIC "-//W3C//DTD SVG 1.1//EN"
 "http://www.w3.org/Graphics/SVG/1.1/DTD/svg11.dtd">
<!-- Generated by graphviz version 12.2.1 (0)
 -->
<!-- Title: Yt::run_yt_dlp Pages: 1 -->
<svg width="431pt" height="48pt"
 viewBox="0.00 0.00 431.25 47.75" xmlns="http://www.w3.org/2000/svg" xmlns:xlink="http://www.w3.org/1999/xlink">
<g id="graph0" class="graph" transform="scale(1 1) rotate(0) translate(4 43.75)">
<title>Yt::run_yt_dlp</title>
<!-- Node1 -->
<g id="Node000001" class="node">
<title>Node1</title>
<g id="a_Node000001"><a xlink:title="Обёртка вокруг консольной команды yt&#45;dlp.">
<polygon fill="#999999" stroke="#666666" points="423.25,-20.75 340.5,-20.75 340.5,0 423.25,0 423.25,-20.75"/>
<text text-anchor="middle" x="381.88" y="-7.25" font-family="Helvetica,sans-Serif" font-size="10.00">Yt::run_yt_dlp</text>
</a>
</g>
</g>
<!-- Node2 -->
<g id="Node000002" class="node">
<title>Node2</title>
<g id="a_Node000002"><a xlink:href="classYt.html#a43514b42682d0ebe7ef3f8716aaf0e93" target="_top" xlink:title="Получение и обработка ID видео из плейлиста">
<polygon fill="white" stroke="#666666" points="304.5,-39.75 174.5,-39.75 174.5,-19 304.5,-19 304.5,-39.75"/>
<text text-anchor="middle" x="239.5" y="-26.25" font-family="Helvetica,sans-Serif" font-size="10.00">Yt::process_playlist_ids</text>
</a>
</g>
</g>
<!-- Node1&#45;&gt;Node2 -->
<g id="edge1_Node000001_Node000002" class="edge">
<title>Node1&#45;&gt;Node2</title>
<g id="a_edge1_Node000001_Node000002"><a xlink:title=" ">
<path fill="none" stroke="#63b8ff" d="M329.01,-17.39C321.13,-18.46 312.92,-19.57 304.81,-20.67"/>
<polygon fill="#63b8ff" stroke="#63b8ff" points="329.33,-20.88 338.77,-16.07 328.39,-13.95 329.33,-20.88"/>
</a>
</g>
</g>
<!-- Node3 -->
<g id="Node000003" class="node">
<title>Node3</title>
<g id="a_Node000003"><a xlink:href="classYt.html#a2567e552458d666519eb74d951992c82" target="_top" xlink:title="Скачка url с запрошенным режимом">
<polygon fill="white" stroke="#666666" points="138.5,-20.75 76.75,-20.75 76.75,0 138.5,0 138.5,-20.75"/>
<text text-anchor="middle" x="107.62" y="-7.25" font-family="Helvetica,sans-Serif" font-size="10.00">Yt::yt_dlp</text>
</a>
</g>
</g>
<!-- Node1&#45;&gt;Node3 -->
<g id="edge4_Node000001_Node000003" class="edge">
<title>Node1&#45;&gt;Node3</title>
<g id="a_edge4_Node000001_Node000003"><a xlink:title=" ">
<path fill="none" stroke="#63b8ff" d="M328.95,-10.38C272.61,-10.38 184.58,-10.38 138.71,-10.38"/>
<polygon fill="#63b8ff" stroke="#63b8ff" points="328.6,-13.88 338.6,-10.38 328.6,-6.88 328.6,-13.88"/>
</a>
</g>
</g>
<!-- Node2&#45;&gt;Node3 -->
<g id="edge2_Node000002_Node000003" class="edge">
<title>Node2&#45;&gt;Node3</title>
<g id="a_edge2_Node000002_Node000003"><a xlink:title=" ">
<path fill="none" stroke="#63b8ff" d="M163.03,-18.33C154.51,-17.09 146.24,-15.88 138.83,-14.79"/>
<polygon fill="#63b8ff" stroke="#63b8ff" points="162.42,-21.78 172.83,-19.77 163.44,-14.86 162.42,-21.78"/>
</a>
</g>
</g>
<!-- Node4 -->
<g id="Node000004" class="node">
<title>Node4</title>
<g id="a_Node000004"><a xlink:href="main_8cpp.html#a0ddf1224851353fc92bfbff6f499fa97" target="_top" xlink:title="Точка входа в программу">
<polygon fill="white" stroke="#666666" points="40.75,-20.75 0,-20.75 0,0 40.75,0 40.75,-20.75"/>
<text text-anchor="middle" x="20.38" y="-7.25" font-family="Helvetica,sans-Serif" font-size="10.00">main</text>
</a>
</g>
</g>
<!-- Node3&#45;&gt;Node4 -->
<g id="edge3_Node000003_Node000004" class="edge">
<title>Node3&#45;&gt;Node4</title>
<g id="a_edge3_Node000003_Node000004"><a xlink:title=" ">
<path fill="none" stroke="#63b8ff" d="M64.82,-10.38C56.57,-10.38 48.28,-10.38 41.18,-10.38"/>
<polygon fill="#63b8ff" stroke="#63b8ff" points="64.82,-13.88 74.82,-10.38 64.82,-6.88 64.82,-13.88"/>
</a>
</g>
</g>
</g>
</svg>
