<?xml version="1.0" encoding="UTF-8" standalone="no"?>
<!DOCTYPE svg PUBLIC "-//W3C//DTD SVG 1.1//EN"
 "http://www.w3.org/Graphics/SVG/1.1/DTD/svg11.dtd">
<!-- Generated by graphviz version 12.2.1 (0)
 -->
<!-- Title: INIReader::GetUnsigned64 Pages: 1 -->
<svg width="427pt" height="29pt"
 viewBox="0.00 0.00 426.50 28.75" xmlns="http://www.w3.org/2000/svg" xmlns:xlink="http://www.w3.org/1999/xlink">
<g id="graph0" class="graph" transform="scale(1 1) rotate(0) translate(4 24.75)">
<title>INIReader::GetUnsigned64</title>
<!-- Node1 -->
<g id="Node000001" class="node">
<title>Node1</title>
<g id="a_Node000001"><a xlink:title=" ">
<polygon fill="#999999" stroke="#666666" points="145,-20.75 0,-20.75 0,0 145,0 145,-20.75"/>
<text text-anchor="middle" x="72.5" y="-7.25" font-family="Helvetica,sans-Serif" font-size="10.00">INIReader::GetUnsigned64</text>
</a>
</g>
</g>
<!-- Node2 -->
<g id="Node000002" class="node">
<title>Node2</title>
<g id="a_Node000002"><a xlink:href="classINIReader.html#a444ab67be741a41dcd26759d744b20db" target="_top" xlink:title=" ">
<polygon fill="white" stroke="#666666" points="268.25,-20.75 181,-20.75 181,0 268.25,0 268.25,-20.75"/>
<text text-anchor="middle" x="224.62" y="-7.25" font-family="Helvetica,sans-Serif" font-size="10.00">INIReader::Get</text>
</a>
</g>
</g>
<!-- Node1&#45;&gt;Node2 -->
<g id="edge1_Node000001_Node000002" class="edge">
<title>Node1&#45;&gt;Node2</title>
<g id="a_edge1_Node000001_Node000002"><a xlink:title=" ">
<path fill="none" stroke="#63b8ff" d="M145.48,-10.38C153.48,-10.38 161.52,-10.38 169.25,-10.38"/>
<polygon fill="#63b8ff" stroke="#63b8ff" points="169.17,-13.88 179.17,-10.38 169.17,-6.88 169.17,-13.88"/>
</a>
</g>
</g>
<!-- Node3 -->
<g id="Node000003" class="node">
<title>Node3</title>
<g id="a_Node000003"><a xlink:href="classINIReader.html#a29eb47ac6f75322fb729926cd058fef3" target="_top" xlink:title=" ">
<polygon fill="white" stroke="#666666" points="418.5,-20.75 304.25,-20.75 304.25,0 418.5,0 418.5,-20.75"/>
<text text-anchor="middle" x="361.38" y="-7.25" font-family="Helvetica,sans-Serif" font-size="10.00">INIReader::MakeKey</text>
</a>
</g>
</g>
<!-- Node2&#45;&gt;Node3 -->
<g id="edge2_Node000002_Node000003" class="edge">
<title>Node2&#45;&gt;Node3</title>
<g id="a_edge2_Node000002_Node000003"><a xlink:title=" ">
<path fill="none" stroke="#63b8ff" d="M268.63,-10.38C276.27,-10.38 284.4,-10.38 292.54,-10.38"/>
<polygon fill="#63b8ff" stroke="#63b8ff" points="292.48,-13.88 302.48,-10.38 292.48,-6.88 292.48,-13.88"/>
</a>
</g>
</g>
</g>
</svg>
