<?xml version="1.0" encoding="UTF-8" standalone="no"?>
<!DOCTYPE svg PUBLIC "-//W3C//DTD SVG 1.1//EN"
 "http://www.w3.org/Graphics/SVG/1.1/DTD/svg11.dtd">
<!-- Generated by graphviz version 12.2.1 (0)
 -->
<!-- Title: INIReader::INIReader Pages: 1 -->
<svg width="451pt" height="87pt"
 viewBox="0.00 0.00 451.25 86.75" xmlns="http://www.w3.org/2000/svg" xmlns:xlink="http://www.w3.org/1999/xlink">
<g id="graph0" class="graph" transform="scale(1 1) rotate(0) translate(4 82.75)">
<title>INIReader::INIReader</title>
<!-- Node1 -->
<g id="Node000001" class="node">
<title>Node1</title>
<g id="a_Node000001"><a xlink:title=" ">
<polygon fill="#999999" stroke="#666666" points="118,-58.75 0,-58.75 0,-38 118,-38 118,-58.75"/>
<text text-anchor="middle" x="59" y="-45.25" font-family="Helvetica,sans-Serif" font-size="10.00">INIReader::INIReader</text>
</a>
</g>
</g>
<!-- Node2 -->
<g id="Node000002" class="node">
<title>Node2</title>
<g id="a_Node000002"><a xlink:href="ini_8h.html#a74f4769cbc69ed7b32c1e3c488923c91" target="_top" xlink:title=" ">
<polygon fill="white" stroke="#666666" points="268.25,-78.75 175,-78.75 175,-58 268.25,-58 268.25,-78.75"/>
<text text-anchor="middle" x="221.62" y="-65.25" font-family="Helvetica,sans-Serif" font-size="10.00">ini_parse_string</text>
</a>
</g>
</g>
<!-- Node1&#45;&gt;Node2 -->
<g id="edge1_Node000001_Node000002" class="edge">
<title>Node1&#45;&gt;Node2</title>
<g id="a_edge1_Node000001_Node000002"><a xlink:title=" ">
<path fill="none" stroke="#63b8ff" d="M118.44,-55.65C133.02,-57.47 148.65,-59.41 163.18,-61.22"/>
<polygon fill="#63b8ff" stroke="#63b8ff" points="162.7,-64.69 173.06,-62.45 163.56,-57.74 162.7,-64.69"/>
</a>
</g>
</g>
<!-- Node3 -->
<g id="Node000003" class="node">
<title>Node3</title>
<g id="a_Node000003"><a xlink:href="classINIReader.html#a38e5a02b9eab882f23401a4b5a0c42a3" target="_top" xlink:title=" ">
<polygon fill="white" stroke="#666666" points="289.25,-39.75 154,-39.75 154,-19 289.25,-19 289.25,-39.75"/>
<text text-anchor="middle" x="221.62" y="-26.25" font-family="Helvetica,sans-Serif" font-size="10.00">INIReader::ValueHandler</text>
</a>
</g>
</g>
<!-- Node1&#45;&gt;Node3 -->
<g id="edge2_Node000001_Node000003" class="edge">
<title>Node1&#45;&gt;Node3</title>
<g id="a_edge2_Node000001_Node000003"><a xlink:title=" ">
<path fill="none" stroke="#63b8ff" d="M118.44,-41.46C126.19,-40.55 134.22,-39.6 142.23,-38.65"/>
<polygon fill="#63b8ff" stroke="#63b8ff" points="142.49,-42.14 152.01,-37.49 141.66,-35.19 142.49,-42.14"/>
</a>
</g>
</g>
<!-- Node4 -->
<g id="Node000004" class="node">
<title>Node4</title>
<g id="a_Node000004"><a xlink:href="classINIReader.html#af216ebde8b6fc3f37a366a5b66476786" target="_top" xlink:title=" ">
<polygon fill="white" stroke="#666666" points="443.25,-59.75 325.25,-59.75 325.25,-39 443.25,-39 443.25,-59.75"/>
<text text-anchor="middle" x="384.25" y="-46.25" font-family="Helvetica,sans-Serif" font-size="10.00">INIReader::INIReader</text>
</a>
</g>
</g>
<!-- Node3&#45;&gt;Node4 -->
<g id="edge3_Node000003_Node000004" class="edge">
<title>Node3&#45;&gt;Node4</title>
<g id="a_edge3_Node000003_Node000004"><a xlink:title=" ">
<path fill="none" stroke="#63b8ff" d="M289.35,-37.68C297.38,-38.68 305.59,-39.71 313.65,-40.71"/>
<polygon fill="#63b8ff" stroke="#63b8ff" points="313.07,-44.16 323.42,-41.93 313.93,-37.22 313.07,-44.16"/>
</a>
</g>
</g>
<!-- Node5 -->
<g id="Node000005" class="node">
<title>Node5</title>
<g id="a_Node000005"><a xlink:href="classINIReader.html#a29eb47ac6f75322fb729926cd058fef3" target="_top" xlink:title=" ">
<polygon fill="white" stroke="#666666" points="441.38,-20.75 327.12,-20.75 327.12,0 441.38,0 441.38,-20.75"/>
<text text-anchor="middle" x="384.25" y="-7.25" font-family="Helvetica,sans-Serif" font-size="10.00">INIReader::MakeKey</text>
</a>
</g>
</g>
<!-- Node3&#45;&gt;Node5 -->
<g id="edge4_Node000003_Node000005" class="edge">
<title>Node3&#45;&gt;Node5</title>
<g id="a_edge4_Node000003_Node000005"><a xlink:title=" ">
<path fill="none" stroke="#63b8ff" d="M289.35,-21.48C297.98,-20.46 306.83,-19.42 315.47,-18.39"/>
<polygon fill="#63b8ff" stroke="#63b8ff" points="315.67,-21.89 325.19,-17.24 314.85,-14.94 315.67,-21.89"/>
</a>
</g>
</g>
</g>
</svg>
