<?xml version="1.0" encoding="UTF-8" standalone="no"?>
<!DOCTYPE svg PUBLIC "-//W3C//DTD SVG 1.1//EN"
 "http://www.w3.org/Graphics/SVG/1.1/DTD/svg11.dtd">
<!-- Generated by graphviz version 12.2.1 (0)
 -->
<!-- Title: Yt::process_playlist_ids Pages: 1 -->
<svg width="442pt" height="107pt"
 viewBox="0.00 0.00 441.50 106.75" xmlns="http://www.w3.org/2000/svg" xmlns:xlink="http://www.w3.org/1999/xlink">
<g id="graph0" class="graph" transform="scale(1 1) rotate(0) translate(4 102.75)">
<title>Yt::process_playlist_ids</title>
<!-- Node1 -->
<g id="Node000001" class="node">
<title>Node1</title>
<g id="a_Node000001"><a xlink:title="Получение и обработка ID видео из плейлиста">
<polygon fill="#999999" stroke="#666666" points="130,-59.75 0,-59.75 0,-39 130,-39 130,-59.75"/>
<text text-anchor="middle" x="65" y="-46.25" font-family="Helvetica,sans-Serif" font-size="10.00">Yt::process_playlist_ids</text>
</a>
</g>
</g>
<!-- Node2 -->
<g id="Node000002" class="node">
<title>Node2</title>
<g id="a_Node000002"><a xlink:href="classFs.html#a6272d618633b1ea9d78a53be81b12fd7" target="_top" xlink:title="Проверка, есть ли ID видео в DRAY_LOG.">
<polygon fill="white" stroke="#666666" points="304.25,-98.75 166,-98.75 166,-78 304.25,-78 304.25,-98.75"/>
<text text-anchor="middle" x="235.12" y="-85.25" font-family="Helvetica,sans-Serif" font-size="10.00">Fs::is_video_downloaded</text>
</a>
</g>
</g>
<!-- Node1&#45;&gt;Node2 -->
<g id="edge1_Node000001_Node000002" class="edge">
<title>Node1&#45;&gt;Node2</title>
<g id="a_edge1_Node000001_Node000002"><a xlink:title=" ">
<path fill="none" stroke="#63b8ff" d="M112.83,-60.24C132.43,-64.78 155.4,-70.11 176.05,-74.9"/>
<polygon fill="#63b8ff" stroke="#63b8ff" points="175.25,-78.31 185.78,-77.16 176.83,-71.49 175.25,-78.31"/>
</a>
</g>
</g>
<!-- Node4 -->
<g id="Node000004" class="node">
<title>Node4</title>
<g id="a_Node000004"><a xlink:href="classFs.html#a3bbf4008231e10a1e1d95696df0d14a5" target="_top" xlink:title="Запись ID видео в DRAY_LOG.">
<polygon fill="white" stroke="#666666" points="282.5,-59.75 187.75,-59.75 187.75,-39 282.5,-39 282.5,-59.75"/>
<text text-anchor="middle" x="235.12" y="-46.25" font-family="Helvetica,sans-Serif" font-size="10.00">Fs::log_video_id</text>
</a>
</g>
</g>
<!-- Node1&#45;&gt;Node4 -->
<g id="edge3_Node000001_Node000004" class="edge">
<title>Node1&#45;&gt;Node4</title>
<g id="a_edge3_Node000001_Node000004"><a xlink:title=" ">
<path fill="none" stroke="#63b8ff" d="M130.04,-49.38C145.2,-49.38 161.28,-49.38 176.15,-49.38"/>
<polygon fill="#63b8ff" stroke="#63b8ff" points="175.74,-52.88 185.74,-49.38 175.74,-45.88 175.74,-52.88"/>
</a>
</g>
</g>
<!-- Node5 -->
<g id="Node000005" class="node">
<title>Node5</title>
<g id="a_Node000005"><a xlink:href="classYt.html#a76e426c4decef7c5777bdf88c8c84533" target="_top" xlink:title="Обёртка вокруг консольной команды yt&#45;dlp.">
<polygon fill="white" stroke="#666666" points="276.5,-20.75 193.75,-20.75 193.75,0 276.5,0 276.5,-20.75"/>
<text text-anchor="middle" x="235.12" y="-7.25" font-family="Helvetica,sans-Serif" font-size="10.00">Yt::run_yt_dlp</text>
</a>
</g>
</g>
<!-- Node1&#45;&gt;Node5 -->
<g id="edge5_Node000001_Node000005" class="edge">
<title>Node1&#45;&gt;Node5</title>
<g id="a_edge5_Node000001_Node000005"><a xlink:title=" ">
<path fill="none" stroke="#63b8ff" d="M112.83,-38.51C134.34,-33.52 159.93,-27.59 182.05,-22.45"/>
<polygon fill="#63b8ff" stroke="#63b8ff" points="182.83,-25.87 191.78,-20.2 181.25,-19.05 182.83,-25.87"/>
</a>
</g>
</g>
<!-- Node3 -->
<g id="Node000003" class="node">
<title>Node3</title>
<g id="a_Node000003"><a xlink:href="classFs.html#abe01b346d7340a78999e275b36e06b46" target="_top" xlink:title="Возвращает путь к DRAY_LOG.">
<polygon fill="white" stroke="#666666" points="433.5,-78.75 340.25,-78.75 340.25,-58 433.5,-58 433.5,-78.75"/>
<text text-anchor="middle" x="386.88" y="-65.25" font-family="Helvetica,sans-Serif" font-size="10.00">Fs::drayLogPath</text>
</a>
</g>
</g>
<!-- Node2&#45;&gt;Node3 -->
<g id="edge2_Node000002_Node000003" class="edge">
<title>Node2&#45;&gt;Node3</title>
<g id="a_edge2_Node000002_Node000003"><a xlink:title=" ">
<path fill="none" stroke="#63b8ff" d="M304.43,-79.25C312.51,-78.17 320.7,-77.08 328.61,-76.02"/>
<polygon fill="#63b8ff" stroke="#63b8ff" points="329.01,-79.5 338.46,-74.71 328.08,-72.56 329.01,-79.5"/>
</a>
</g>
</g>
<!-- Node4&#45;&gt;Node3 -->
<g id="edge4_Node000004_Node000003" class="edge">
<title>Node4&#45;&gt;Node3</title>
<g id="a_edge4_Node000004_Node000003"><a xlink:title=" ">
<path fill="none" stroke="#63b8ff" d="M282.69,-55.28C297.19,-57.12 313.36,-59.17 328.51,-61.1"/>
<polygon fill="#63b8ff" stroke="#63b8ff" points="327.99,-64.56 338.36,-62.35 328.88,-57.61 327.99,-64.56"/>
</a>
</g>
</g>
</g>
</svg>
