<?xml version="1.0" encoding="UTF-8" standalone="no"?>
<!DOCTYPE svg PUBLIC "-//W3C//DTD SVG 1.1//EN"
 "http://www.w3.org/Graphics/SVG/1.1/DTD/svg11.dtd">
<!-- Generated by graphviz version 12.2.1 (0)
 -->
<!-- Title: Cfg Pages: 1 -->
<svg width="218pt" height="104pt"
 viewBox="0.00 0.00 218.12 104.25" xmlns="http://www.w3.org/2000/svg" xmlns:xlink="http://www.w3.org/1999/xlink">
<g id="graph0" class="graph" transform="scale(1 1) rotate(0) translate(4 100.25)">
<title>Cfg</title>
<!-- Node1 -->
<g id="Node000001" class="node">
<title>Node1</title>
<g id="a_Node000001"><a xlink:title="Класс конфигурации">
<polygon fill="#999999" stroke="#666666" points="135.25,-20.75 102.75,-20.75 102.75,0 135.25,0 135.25,-20.75"/>
<text text-anchor="middle" x="119" y="-7.25" font-family="Helvetica,sans-Serif" font-size="10.00">Cfg</text>
</a>
</g>
</g>
<!-- Node2 -->
<g id="Node000002" class="node">
<title>Node2</title>
<g id="a_Node000002"><a xlink:href="structCfg_1_1Options.html" target="_top" xlink:title="Структура для опций командной строки">
<polygon fill="white" stroke="#666666" points="76,-96.25 0,-96.25 0,-75.5 76,-75.5 76,-96.25"/>
<text text-anchor="middle" x="38" y="-82.75" font-family="Helvetica,sans-Serif" font-size="10.00">Cfg::Options</text>
</a>
</g>
</g>
<!-- Node2&#45;&gt;Node1 -->
<g id="edge1_Node000001_Node000002" class="edge">
<title>Node2&#45;&gt;Node1</title>
<g id="a_edge1_Node000001_Node000002"><a xlink:title=" ">
<path fill="none" stroke="#9a32cd" stroke-dasharray="5,2" d="M56.69,-67.92C72.63,-53.45 95,-33.15 108.15,-21.22"/>
<polygon fill="#9a32cd" stroke="#9a32cd" points="54.76,-64.94 49.71,-74.25 59.47,-70.12 54.76,-64.94"/>
</a>
</g>
<text text-anchor="start" x="91.14" y="-45" font-family="Helvetica,sans-Serif" font-size="10.00" fill="grey">opt</text>
</g>
<!-- Node3 -->
<g id="Node000003" class="node">
<title>Node3</title>
<g id="a_Node000003"><a xlink:href="structCfg_1_1Fs.html" target="_top" xlink:title="Структура для конфигурации рабочих каталогов вычитанной из config.ini.">
<polygon fill="white" stroke="#666666" points="143.88,-96.25 94.12,-96.25 94.12,-75.5 143.88,-75.5 143.88,-96.25"/>
<text text-anchor="middle" x="119" y="-82.75" font-family="Helvetica,sans-Serif" font-size="10.00">Cfg::Fs</text>
</a>
</g>
</g>
<!-- Node3&#45;&gt;Node1 -->
<g id="edge2_Node000001_Node000003" class="edge">
<title>Node3&#45;&gt;Node1</title>
<g id="a_edge2_Node000001_Node000003"><a xlink:title=" ">
<path fill="none" stroke="#9a32cd" stroke-dasharray="5,2" d="M119,-63.76C119,-49.76 119,-32.05 119,-21.22"/>
<polygon fill="#9a32cd" stroke="#9a32cd" points="115.5,-63.75 119,-73.75 122.5,-63.75 115.5,-63.75"/>
</a>
</g>
<text text-anchor="start" x="122" y="-45" font-family="Helvetica,sans-Serif" font-size="10.00" fill="grey">fs</text>
</g>
<!-- Node4 -->
<g id="Node000004" class="node">
<title>Node4</title>
<g id="a_Node000004"><a xlink:href="structCfg_1_1Yt.html" target="_top" xlink:title="Структура для конфигурации yt&#45;dlp вычитанной из config.ini.">
<polygon fill="white" stroke="#666666" points="210.12,-96.25 161.88,-96.25 161.88,-75.5 210.12,-75.5 210.12,-96.25"/>
<text text-anchor="middle" x="186" y="-82.75" font-family="Helvetica,sans-Serif" font-size="10.00">Cfg::Yt</text>
</a>
</g>
</g>
<!-- Node4&#45;&gt;Node1 -->
<g id="edge3_Node000001_Node000004" class="edge">
<title>Node4&#45;&gt;Node1</title>
<g id="a_edge3_Node000001_Node000004"><a xlink:title=" ">
<path fill="none" stroke="#9a32cd" stroke-dasharray="5,2" d="M169.81,-67.11C156.67,-52.7 138.65,-32.93 127.98,-21.22"/>
<polygon fill="#9a32cd" stroke="#9a32cd" points="166.9,-69.12 176.22,-74.15 172.07,-64.4 166.9,-69.12"/>
</a>
</g>
<text text-anchor="start" x="163.47" y="-45" font-family="Helvetica,sans-Serif" font-size="10.00" fill="grey">yt</text>
</g>
</g>
</svg>
