<?xml version="1.0" encoding="UTF-8" standalone="no"?>
<!DOCTYPE svg PUBLIC "-//W3C//DTD SVG 1.1//EN"
 "http://www.w3.org/Graphics/SVG/1.1/DTD/svg11.dtd">
<!-- Generated by graphviz version 12.2.1 (0)
 -->
<!-- Title: INIReader::ValueHandler Pages: 1 -->
<svg width="297pt" height="68pt"
 viewBox="0.00 0.00 297.25 67.75" xmlns="http://www.w3.org/2000/svg" xmlns:xlink="http://www.w3.org/1999/xlink">
<g id="graph0" class="graph" transform="scale(1 1) rotate(0) translate(4 63.75)">
<title>INIReader::ValueHandler</title>
<!-- Node1 -->
<g id="Node000001" class="node">
<title>Node1</title>
<g id="a_Node000001"><a xlink:title=" ">
<polygon fill="#999999" stroke="#666666" points="135.25,-39.75 0,-39.75 0,-19 135.25,-19 135.25,-39.75"/>
<text text-anchor="middle" x="67.62" y="-26.25" font-family="Helvetica,sans-Serif" font-size="10.00">INIReader::ValueHandler</text>
</a>
</g>
</g>
<!-- Node2 -->
<g id="Node000002" class="node">
<title>Node2</title>
<g id="a_Node000002"><a xlink:href="classINIReader.html#af216ebde8b6fc3f37a366a5b66476786" target="_top" xlink:title=" ">
<polygon fill="white" stroke="#666666" points="289.25,-59.75 171.25,-59.75 171.25,-39 289.25,-39 289.25,-59.75"/>
<text text-anchor="middle" x="230.25" y="-46.25" font-family="Helvetica,sans-Serif" font-size="10.00">INIReader::INIReader</text>
</a>
</g>
</g>
<!-- Node1&#45;&gt;Node2 -->
<g id="edge1_Node000001_Node000002" class="edge">
<title>Node1&#45;&gt;Node2</title>
<g id="a_edge1_Node000001_Node000002"><a xlink:title=" ">
<path fill="none" stroke="#63b8ff" d="M135.35,-37.68C143.38,-38.68 151.59,-39.71 159.65,-40.71"/>
<polygon fill="#63b8ff" stroke="#63b8ff" points="159.07,-44.16 169.42,-41.93 159.93,-37.22 159.07,-44.16"/>
</a>
</g>
</g>
<!-- Node3 -->
<g id="Node000003" class="node">
<title>Node3</title>
<g id="a_Node000003"><a xlink:href="classINIReader.html#a29eb47ac6f75322fb729926cd058fef3" target="_top" xlink:title=" ">
<polygon fill="white" stroke="#666666" points="287.38,-20.75 173.12,-20.75 173.12,0 287.38,0 287.38,-20.75"/>
<text text-anchor="middle" x="230.25" y="-7.25" font-family="Helvetica,sans-Serif" font-size="10.00">INIReader::MakeKey</text>
</a>
</g>
</g>
<!-- Node1&#45;&gt;Node3 -->
<g id="edge2_Node000001_Node000003" class="edge">
<title>Node1&#45;&gt;Node3</title>
<g id="a_edge2_Node000001_Node000003"><a xlink:title=" ">
<path fill="none" stroke="#63b8ff" d="M135.35,-21.48C143.98,-20.46 152.83,-19.42 161.47,-18.39"/>
<polygon fill="#63b8ff" stroke="#63b8ff" points="161.67,-21.89 171.19,-17.24 160.85,-14.94 161.67,-21.89"/>
</a>
</g>
</g>
</g>
</svg>
