<?xml version="1.0" encoding="UTF-8" standalone="no"?>
<!DOCTYPE svg PUBLIC "-//W3C//DTD SVG 1.1//EN"
 "http://www.w3.org/Graphics/SVG/1.1/DTD/svg11.dtd">
<!-- Generated by graphviz version 12.2.1 (0)
 -->
<!-- Title: src/config.hpp Pages: 1 -->
<svg width="249pt" height="256pt"
 viewBox="0.00 0.00 249.22 255.75" xmlns="http://www.w3.org/2000/svg" xmlns:xlink="http://www.w3.org/1999/xlink">
<g id="graph0" class="graph" transform="scale(1 1) rotate(0) translate(4 251.75)">
<title>src/config.hpp</title>
<!-- Node1 -->
<g id="Node000001" class="node">
<title>Node1</title>
<g id="a_Node000001"><a xlink:title="Константы">
<polygon fill="#999999" stroke="#666666" points="164.75,-247.75 81.25,-247.75 81.25,-227 164.75,-227 164.75,-247.75"/>
<text text-anchor="middle" x="123" y="-234.25" font-family="Helvetica,sans-Serif" font-size="10.00">src/config.hpp</text>
</a>
</g>
</g>
<!-- Node2 -->
<g id="Node000002" class="node">
<title>Node2</title>
<g id="a_Node000002"><a xlink:href="Cfg_8hpp.html" target="_top" xlink:title="Класс Cfg и глобальная переменная config.">
<polygon fill="white" stroke="#666666" points="190.38,-191 119.62,-191 119.62,-170.25 190.38,-170.25 190.38,-191"/>
<text text-anchor="middle" x="155" y="-177.5" font-family="Helvetica,sans-Serif" font-size="10.00">src/Cfg.hpp</text>
</a>
</g>
</g>
<!-- Node1&#45;&gt;Node2 -->
<g id="edge1_Node000001_Node000002" class="edge">
<title>Node1&#45;&gt;Node2</title>
<g id="a_edge1_Node000001_Node000002"><a xlink:title=" ">
<path fill="none" stroke="#63b8ff" d="M134.41,-216.85C139.47,-208.2 145.2,-198.39 149.33,-191.33"/>
<polygon fill="#63b8ff" stroke="#63b8ff" points="131.51,-214.88 129.48,-225.28 137.55,-218.41 131.51,-214.88"/>
</a>
</g>
</g>
<!-- Node4 -->
<g id="Node000004" class="node">
<title>Node4</title>
<g id="a_Node000004"><a xlink:href="Fs_8hpp.html" target="_top" xlink:title="Класс Fs как коллекция функций для работы с файловой системой">
<polygon fill="white" stroke="#666666" points="124.75,-134.25 59.25,-134.25 59.25,-113.5 124.75,-113.5 124.75,-134.25"/>
<text text-anchor="middle" x="92" y="-120.75" font-family="Helvetica,sans-Serif" font-size="10.00">src/Fs.hpp</text>
</a>
</g>
</g>
<!-- Node1&#45;&gt;Node4 -->
<g id="edge11_Node000001_Node000004" class="edge">
<title>Node1&#45;&gt;Node4</title>
<g id="a_edge11_Node000001_Node000004"><a xlink:title=" ">
<path fill="none" stroke="#63b8ff" d="M117.28,-215.8C110.58,-191.7 99.75,-152.75 94.72,-134.68"/>
<polygon fill="#63b8ff" stroke="#63b8ff" points="113.9,-216.71 119.95,-225.41 120.64,-214.84 113.9,-216.71"/>
</a>
</g>
</g>
<!-- Node6 -->
<g id="Node000006" class="node">
<title>Node6</title>
<g id="a_Node000006"><a xlink:href="Yt_8hpp.html" target="_top" xlink:title="Класс Yt как коллекция функций для работы с yt&#45;dlp.">
<polygon fill="white" stroke="#666666" points="64,-77.5 0,-77.5 0,-56.75 64,-56.75 64,-77.5"/>
<text text-anchor="middle" x="32" y="-64" font-family="Helvetica,sans-Serif" font-size="10.00">src/Yt.hpp</text>
</a>
</g>
</g>
<!-- Node1&#45;&gt;Node6 -->
<g id="edge12_Node000001_Node000006" class="edge">
<title>Node1&#45;&gt;Node6</title>
<g id="a_edge12_Node000001_Node000006"><a xlink:title=" ">
<path fill="none" stroke="#63b8ff" d="M101.79,-219.44C80.53,-201.03 49.01,-169.49 35,-134.25 27.53,-115.45 28.91,-91.25 30.51,-77.96"/>
<polygon fill="#63b8ff" stroke="#63b8ff" points="99.4,-222 109.31,-225.74 103.9,-216.64 99.4,-222"/>
</a>
</g>
</g>
<!-- Node8 -->
<g id="Node000008" class="node">
<title>Node8</title>
<g id="a_Node000008"><a xlink:href="main_8cpp.html" target="_top" xlink:title="Прога для комфортного кача с YouTube.">
<polygon fill="white" stroke="#666666" points="220.12,-20.75 141.88,-20.75 141.88,0 220.12,0 220.12,-20.75"/>
<text text-anchor="middle" x="181" y="-7.25" font-family="Helvetica,sans-Serif" font-size="10.00">src/main.cpp</text>
</a>
</g>
</g>
<!-- Node1&#45;&gt;Node8 -->
<g id="edge13_Node000001_Node000008" class="edge">
<title>Node1&#45;&gt;Node8</title>
<g id="a_edge13_Node000001_Node000008"><a xlink:title=" ">
<path fill="none" stroke="#63b8ff" d="M154.65,-221.35C169.13,-213.55 185.94,-203.11 199,-191 221.63,-170.02 229.68,-163.67 239,-134.25 244.84,-115.84 237.62,-67.46 232,-56.75 224.07,-41.64 208.93,-29.17 197.19,-21.15"/>
<polygon fill="#63b8ff" stroke="#63b8ff" points="153.21,-218.16 145.94,-225.86 156.43,-224.37 153.21,-218.16"/>
</a>
</g>
</g>
<!-- Node3 -->
<g id="Node000003" class="node">
<title>Node3</title>
<g id="a_Node000003"><a xlink:href="Cfg_8cpp.html" target="_top" xlink:title=" ">
<polygon fill="white" stroke="#666666" points="213,-134.25 143,-134.25 143,-113.5 213,-113.5 213,-134.25"/>
<text text-anchor="middle" x="178" y="-120.75" font-family="Helvetica,sans-Serif" font-size="10.00">src/Cfg.cpp</text>
</a>
</g>
</g>
<!-- Node2&#45;&gt;Node3 -->
<g id="edge2_Node000002_Node000003" class="edge">
<title>Node2&#45;&gt;Node3</title>
<g id="a_edge2_Node000002_Node000003"><a xlink:title=" ">
<path fill="none" stroke="#63b8ff" d="M163.56,-159.24C167.11,-150.8 171.05,-141.41 173.92,-134.58"/>
<polygon fill="#63b8ff" stroke="#63b8ff" points="160.34,-157.87 159.7,-168.44 166.8,-160.58 160.34,-157.87"/>
</a>
</g>
</g>
<!-- Node2&#45;&gt;Node4 -->
<g id="edge3_Node000002_Node000004" class="edge">
<title>Node2&#45;&gt;Node4</title>
<g id="a_edge3_Node000002_Node000004"><a xlink:title=" ">
<path fill="none" stroke="#63b8ff" d="M135.13,-162.36C124.58,-153.19 112.01,-142.26 103.17,-134.58"/>
<polygon fill="#63b8ff" stroke="#63b8ff" points="132.75,-164.93 142.59,-168.84 137.34,-159.64 132.75,-164.93"/>
</a>
</g>
</g>
<!-- Node2&#45;&gt;Node6 -->
<g id="edge9_Node000002_Node000006" class="edge">
<title>Node2&#45;&gt;Node6</title>
<g id="a_edge9_Node000002_Node000006"><a xlink:title=" ">
<path fill="none" stroke="#63b8ff" d="M108.52,-169.32C87.95,-162.55 65.05,-151.61 50,-134.25 35.97,-118.07 32.77,-91.95 32.11,-77.87"/>
<polygon fill="#63b8ff" stroke="#63b8ff" points="107.3,-172.61 117.88,-172.14 109.32,-165.9 107.3,-172.61"/>
</a>
</g>
</g>
<!-- Node2&#45;&gt;Node8 -->
<g id="edge10_Node000002_Node000008" class="edge">
<title>Node2&#45;&gt;Node8</title>
<g id="a_edge10_Node000002_Node000008"><a xlink:title=" ">
<path fill="none" stroke="#63b8ff" d="M189.96,-164.64C202.4,-157.39 215.04,-147.37 222,-134.25 242.97,-94.72 206.56,-42.4 189.31,-21.06"/>
<polygon fill="#63b8ff" stroke="#63b8ff" points="188.66,-161.37 181.47,-169.15 191.94,-167.55 188.66,-161.37"/>
</a>
</g>
</g>
<!-- Node5 -->
<g id="Node000005" class="node">
<title>Node5</title>
<g id="a_Node000005"><a xlink:href="Fs_8cpp.html" target="_top" xlink:title=" ">
<polygon fill="white" stroke="#666666" points="184.38,-77.5 119.62,-77.5 119.62,-56.75 184.38,-56.75 184.38,-77.5"/>
<text text-anchor="middle" x="152" y="-64" font-family="Helvetica,sans-Serif" font-size="10.00">src/Fs.cpp</text>
</a>
</g>
</g>
<!-- Node4&#45;&gt;Node5 -->
<g id="edge4_Node000004_Node000005" class="edge">
<title>Node4&#45;&gt;Node5</title>
<g id="a_edge4_Node000004_Node000005"><a xlink:title=" ">
<path fill="none" stroke="#63b8ff" d="M111.23,-105.33C121.21,-96.22 133.03,-85.43 141.37,-77.83"/>
<polygon fill="#63b8ff" stroke="#63b8ff" points="108.87,-102.74 103.84,-112.07 113.59,-107.91 108.87,-102.74"/>
</a>
</g>
</g>
<!-- Node4&#45;&gt;Node6 -->
<g id="edge5_Node000004_Node000006" class="edge">
<title>Node4&#45;&gt;Node6</title>
<g id="a_edge5_Node000004_Node000006"><a xlink:title=" ">
<path fill="none" stroke="#63b8ff" d="M72.77,-105.33C62.79,-96.22 50.97,-85.43 42.63,-77.83"/>
<polygon fill="#63b8ff" stroke="#63b8ff" points="70.41,-107.91 80.16,-112.07 75.13,-102.74 70.41,-107.91"/>
</a>
</g>
</g>
<!-- Node4&#45;&gt;Node8 -->
<g id="edge8_Node000004_Node000008" class="edge">
<title>Node4&#45;&gt;Node8</title>
<g id="a_edge8_Node000004_Node000008"><a xlink:title=" ">
<path fill="none" stroke="#63b8ff" d="M94.14,-102.06C96.44,-88.12 101.2,-69.98 111,-56.75 122.9,-40.69 142.31,-28.76 157.68,-21.17"/>
<polygon fill="#63b8ff" stroke="#63b8ff" points="90.68,-101.55 92.84,-111.92 97.62,-102.46 90.68,-101.55"/>
</a>
</g>
</g>
<!-- Node7 -->
<g id="Node000007" class="node">
<title>Node7</title>
<g id="a_Node000007"><a xlink:href="Yt_8cpp.html" target="_top" xlink:title=" ">
<polygon fill="white" stroke="#666666" points="63.62,-20.75 0.38,-20.75 0.38,0 63.62,0 63.62,-20.75"/>
<text text-anchor="middle" x="32" y="-7.25" font-family="Helvetica,sans-Serif" font-size="10.00">src/Yt.cpp</text>
</a>
</g>
</g>
<!-- Node6&#45;&gt;Node7 -->
<g id="edge6_Node000006_Node000007" class="edge">
<title>Node6&#45;&gt;Node7</title>
<g id="a_edge6_Node000006_Node000007"><a xlink:title=" ">
<path fill="none" stroke="#63b8ff" d="M32,-44.88C32,-36.66 32,-27.68 32,-21.08"/>
<polygon fill="#63b8ff" stroke="#63b8ff" points="28.5,-44.82 32,-54.82 35.5,-44.82 28.5,-44.82"/>
</a>
</g>
</g>
<!-- Node6&#45;&gt;Node8 -->
<g id="edge7_Node000006_Node000008" class="edge">
<title>Node6&#45;&gt;Node8</title>
<g id="a_edge7_Node000006_Node000008"><a xlink:title=" ">
<path fill="none" stroke="#63b8ff" d="M69.4,-52.38C95.85,-42.66 130.68,-29.87 154.34,-21.17"/>
<polygon fill="#63b8ff" stroke="#63b8ff" points="68.24,-49.08 60.06,-55.81 70.65,-55.65 68.24,-49.08"/>
</a>
</g>
</g>
</g>
</svg>
