<?xml version="1.0" encoding="UTF-8" standalone="no"?>
<!DOCTYPE svg PUBLIC "-//W3C//DTD SVG 1.1//EN"
 "http://www.w3.org/Graphics/SVG/1.1/DTD/svg11.dtd">
<!-- Generated by graphviz version 12.2.1 (0)
 -->
<!-- Title: src/Fs.hpp Pages: 1 -->
<svg width="222pt" height="142pt"
 viewBox="0.00 0.00 221.50 142.25" xmlns="http://www.w3.org/2000/svg" xmlns:xlink="http://www.w3.org/1999/xlink">
<g id="graph0" class="graph" transform="scale(1 1) rotate(0) translate(4 138.25)">
<title>src/Fs.hpp</title>
<!-- Node1 -->
<g id="Node000001" class="node">
<title>Node1</title>
<g id="a_Node000001"><a xlink:title="Класс Fs как коллекция функций для работы с файловой системой">
<polygon fill="#999999" stroke="#666666" points="147.12,-134.25 81.62,-134.25 81.62,-113.5 147.12,-113.5 147.12,-134.25"/>
<text text-anchor="middle" x="114.38" y="-120.75" font-family="Helvetica,sans-Serif" font-size="10.00">src/Fs.hpp</text>
</a>
</g>
</g>
<!-- Node2 -->
<g id="Node000002" class="node">
<title>Node2</title>
<g id="a_Node000002"><a xlink:href="Fs_8cpp.html" target="_top" xlink:title=" ">
<polygon fill="white" stroke="#666666" points="64.75,-77.5 0,-77.5 0,-56.75 64.75,-56.75 64.75,-77.5"/>
<text text-anchor="middle" x="32.38" y="-64" font-family="Helvetica,sans-Serif" font-size="10.00">src/Fs.cpp</text>
</a>
</g>
</g>
<!-- Node1&#45;&gt;Node2 -->
<g id="edge1_Node000001_Node000002" class="edge">
<title>Node1&#45;&gt;Node2</title>
<g id="a_edge1_Node000001_Node000002"><a xlink:title=" ">
<path fill="none" stroke="#63b8ff" d="M90.17,-106.71C76.11,-97.33 58.88,-85.82 46.91,-77.83"/>
<polygon fill="#63b8ff" stroke="#63b8ff" points="88.2,-109.6 98.46,-112.25 92.08,-103.78 88.2,-109.6"/>
</a>
</g>
</g>
<!-- Node3 -->
<g id="Node000003" class="node">
<title>Node3</title>
<g id="a_Node000003"><a xlink:href="Yt_8hpp.html" target="_top" xlink:title="Класс Yt как коллекция функций для работы с yt&#45;dlp.">
<polygon fill="white" stroke="#666666" points="146.38,-77.5 82.38,-77.5 82.38,-56.75 146.38,-56.75 146.38,-77.5"/>
<text text-anchor="middle" x="114.38" y="-64" font-family="Helvetica,sans-Serif" font-size="10.00">src/Yt.hpp</text>
</a>
</g>
</g>
<!-- Node1&#45;&gt;Node3 -->
<g id="edge2_Node000001_Node000003" class="edge">
<title>Node1&#45;&gt;Node3</title>
<g id="a_edge2_Node000001_Node000003"><a xlink:title=" ">
<path fill="none" stroke="#63b8ff" d="M114.38,-101.63C114.38,-93.41 114.38,-84.43 114.38,-77.83"/>
<polygon fill="#63b8ff" stroke="#63b8ff" points="110.88,-101.57 114.38,-111.57 117.88,-101.57 110.88,-101.57"/>
</a>
</g>
</g>
<!-- Node5 -->
<g id="Node000005" class="node">
<title>Node5</title>
<g id="a_Node000005"><a xlink:href="main_8cpp.html" target="_top" xlink:title="Прога для комфортного кача с YouTube.">
<polygon fill="white" stroke="#666666" points="213.5,-20.75 135.25,-20.75 135.25,0 213.5,0 213.5,-20.75"/>
<text text-anchor="middle" x="174.38" y="-7.25" font-family="Helvetica,sans-Serif" font-size="10.00">src/main.cpp</text>
</a>
</g>
</g>
<!-- Node1&#45;&gt;Node5 -->
<g id="edge5_Node000001_Node000005" class="edge">
<title>Node1&#45;&gt;Node5</title>
<g id="a_edge5_Node000001_Node000005"><a xlink:title=" ">
<path fill="none" stroke="#63b8ff" d="M133.85,-105.18C141.49,-97.34 149.75,-87.61 155.38,-77.5 165.7,-58.92 170.85,-34.21 173.03,-20.87"/>
<polygon fill="#63b8ff" stroke="#63b8ff" points="131.47,-102.6 126.75,-112.08 136.36,-107.62 131.47,-102.6"/>
</a>
</g>
</g>
<!-- Node4 -->
<g id="Node000004" class="node">
<title>Node4</title>
<g id="a_Node000004"><a xlink:href="Yt_8cpp.html" target="_top" xlink:title=" ">
<polygon fill="white" stroke="#666666" points="117,-20.75 53.75,-20.75 53.75,0 117,0 117,-20.75"/>
<text text-anchor="middle" x="85.38" y="-7.25" font-family="Helvetica,sans-Serif" font-size="10.00">src/Yt.cpp</text>
</a>
</g>
</g>
<!-- Node3&#45;&gt;Node4 -->
<g id="edge3_Node000003_Node000004" class="edge">
<title>Node3&#45;&gt;Node4</title>
<g id="a_edge3_Node000003_Node000004"><a xlink:title=" ">
<path fill="none" stroke="#63b8ff" d="M103.88,-46.32C99.33,-37.73 94.21,-28.06 90.51,-21.08"/>
<polygon fill="#63b8ff" stroke="#63b8ff" points="100.71,-47.8 108.48,-55 106.89,-44.52 100.71,-47.8"/>
</a>
</g>
</g>
<!-- Node3&#45;&gt;Node5 -->
<g id="edge4_Node000003_Node000005" class="edge">
<title>Node3&#45;&gt;Node5</title>
<g id="a_edge4_Node000003_Node000005"><a xlink:title=" ">
<path fill="none" stroke="#63b8ff" d="M133.6,-48.58C143.59,-39.47 155.41,-28.68 163.74,-21.08"/>
<polygon fill="#63b8ff" stroke="#63b8ff" points="131.25,-45.99 126.22,-55.32 135.97,-51.16 131.25,-45.99"/>
</a>
</g>
</g>
</g>
</svg>
