<?xml version="1.0" encoding="UTF-8" standalone="no"?>
<!DOCTYPE svg PUBLIC "-//W3C//DTD SVG 1.1//EN"
 "http://www.w3.org/Graphics/SVG/1.1/DTD/svg11.dtd">
<!-- Generated by graphviz version 12.2.1 (0)
 -->
<!-- Title: src/Fs.hpp Pages: 1 -->
<svg width="444pt" height="142pt"
 viewBox="0.00 0.00 444.25 142.25" xmlns="http://www.w3.org/2000/svg" xmlns:xlink="http://www.w3.org/1999/xlink">
<g id="graph0" class="graph" transform="scale(1 1) rotate(0) translate(4 138.25)">
<title>src/Fs.hpp</title>
<!-- Node1 -->
<g id="Node000001" class="node">
<title>Node1</title>
<g id="a_Node000001"><a xlink:title="Класс Fs как коллекция функций для работы с файловой системой">
<polygon fill="#999999" stroke="#666666" points="245.88,-134.25 180.38,-134.25 180.38,-113.5 245.88,-113.5 245.88,-134.25"/>
<text text-anchor="middle" x="213.12" y="-120.75" font-family="Helvetica,sans-Serif" font-size="10.00">src/Fs.hpp</text>
</a>
</g>
</g>
<!-- Node2 -->
<g id="Node000002" class="node">
<title>Node2</title>
<g id="a_Node000002"><a xlink:title=" ">
<polygon fill="#e0e0e0" stroke="#999999" points="48.25,-20.75 0,-20.75 0,0 48.25,0 48.25,-20.75"/>
<text text-anchor="middle" x="24.12" y="-7.25" font-family="Helvetica,sans-Serif" font-size="10.00">cstdlib</text>
</a>
</g>
</g>
<!-- Node1&#45;&gt;Node2 -->
<g id="edge1_Node000001_Node000002" class="edge">
<title>Node1&#45;&gt;Node2</title>
<g id="a_edge1_Node000001_Node000002"><a xlink:title=" ">
<path fill="none" stroke="#63b8ff" d="M196.68,-113.18C163.87,-93.82 90.02,-50.25 50.41,-26.88"/>
<polygon fill="#63b8ff" stroke="#63b8ff" points="52.36,-23.97 41.97,-21.9 48.8,-30 52.36,-23.97"/>
</a>
</g>
</g>
<!-- Node3 -->
<g id="Node000003" class="node">
<title>Node3</title>
<g id="a_Node000003"><a xlink:title=" ">
<polygon fill="#e0e0e0" stroke="#999999" points="363.62,-77.5 296.62,-77.5 296.62,-56.75 363.62,-56.75 363.62,-77.5"/>
<text text-anchor="middle" x="330.12" y="-64" font-family="Helvetica,sans-Serif" font-size="10.00">filesystem</text>
</a>
</g>
</g>
<!-- Node1&#45;&gt;Node3 -->
<g id="edge2_Node000001_Node000003" class="edge">
<title>Node1&#45;&gt;Node3</title>
<g id="a_edge2_Node000001_Node000003"><a xlink:title=" ">
<path fill="none" stroke="#63b8ff" d="M234.04,-113.09C252.09,-104.64 278.43,-92.32 298.96,-82.71"/>
<polygon fill="#63b8ff" stroke="#63b8ff" points="300.44,-85.88 308.02,-78.47 297.48,-79.54 300.44,-85.88"/>
</a>
</g>
</g>
<!-- Node4 -->
<g id="Node000004" class="node">
<title>Node4</title>
<g id="a_Node000004"><a xlink:title=" ">
<polygon fill="#e0e0e0" stroke="#999999" points="436.25,-77.5 382,-77.5 382,-56.75 436.25,-56.75 436.25,-77.5"/>
<text text-anchor="middle" x="409.12" y="-64" font-family="Helvetica,sans-Serif" font-size="10.00">fstream</text>
</a>
</g>
</g>
<!-- Node1&#45;&gt;Node4 -->
<g id="edge3_Node000001_Node000004" class="edge">
<title>Node1&#45;&gt;Node4</title>
<g id="a_edge3_Node000001_Node000004"><a xlink:title=" ">
<path fill="none" stroke="#63b8ff" d="M246.37,-113.59C280.92,-103.94 334.89,-88.86 371.1,-78.75"/>
<polygon fill="#63b8ff" stroke="#63b8ff" points="371.58,-82.25 380.27,-76.18 369.7,-75.5 371.58,-82.25"/>
</a>
</g>
</g>
<!-- Node5 -->
<g id="Node000005" class="node">
<title>Node5</title>
<g id="a_Node000005"><a xlink:title=" ">
<polygon fill="#e0e0e0" stroke="#999999" points="125.88,-20.75 66.38,-20.75 66.38,0 125.88,0 125.88,-20.75"/>
<text text-anchor="middle" x="96.12" y="-7.25" font-family="Helvetica,sans-Serif" font-size="10.00">iostream</text>
</a>
</g>
</g>
<!-- Node1&#45;&gt;Node5 -->
<g id="edge4_Node000001_Node000005" class="edge">
<title>Node1&#45;&gt;Node5</title>
<g id="a_edge4_Node000001_Node000005"><a xlink:title=" ">
<path fill="none" stroke="#63b8ff" d="M203.15,-113.37C183.56,-94.7 139.8,-52.99 114.72,-29.1"/>
<polygon fill="#63b8ff" stroke="#63b8ff" points="117.16,-26.58 107.5,-22.22 112.33,-31.65 117.16,-26.58"/>
</a>
</g>
</g>
<!-- Node6 -->
<g id="Node000006" class="node">
<title>Node6</title>
<g id="a_Node000006"><a xlink:title=" ">
<polygon fill="#e0e0e0" stroke="#999999" points="188,-20.75 144.25,-20.75 144.25,0 188,0 188,-20.75"/>
<text text-anchor="middle" x="166.12" y="-7.25" font-family="Helvetica,sans-Serif" font-size="10.00">string</text>
</a>
</g>
</g>
<!-- Node1&#45;&gt;Node6 -->
<g id="edge5_Node000001_Node000006" class="edge">
<title>Node1&#45;&gt;Node6</title>
<g id="a_edge5_Node000001_Node000006"><a xlink:title=" ">
<path fill="none" stroke="#63b8ff" d="M202.87,-113.07C194.55,-104.5 183.24,-91.29 177.12,-77.5 170.83,-63.31 168.11,-45.96 166.94,-32.59"/>
<polygon fill="#63b8ff" stroke="#63b8ff" points="170.45,-32.5 166.34,-22.74 163.46,-32.93 170.45,-32.5"/>
</a>
</g>
</g>
<!-- Node7 -->
<g id="Node000007" class="node">
<title>Node7</title>
<g id="a_Node000007"><a xlink:href="Cfg_8hpp.html" target="_top" xlink:title="Класс Cfg и глобальная переменная config.">
<polygon fill="white" stroke="#666666" points="239.88,-77.5 186.38,-77.5 186.38,-56.75 239.88,-56.75 239.88,-77.5"/>
<text text-anchor="middle" x="213.12" y="-64" font-family="Helvetica,sans-Serif" font-size="10.00">Cfg.hpp</text>
</a>
</g>
</g>
<!-- Node1&#45;&gt;Node7 -->
<g id="edge6_Node000001_Node000007" class="edge">
<title>Node1&#45;&gt;Node7</title>
<g id="a_edge6_Node000001_Node000007"><a xlink:title=" ">
<path fill="none" stroke="#63b8ff" d="M213.12,-113.09C213.12,-106.47 213.12,-97.47 213.12,-89.27"/>
<polygon fill="#63b8ff" stroke="#63b8ff" points="216.63,-89.34 213.13,-79.34 209.63,-89.34 216.63,-89.34"/>
</a>
</g>
</g>
<!-- Node9 -->
<g id="Node000009" class="node">
<title>Node9</title>
<g id="a_Node000009"><a xlink:href="config_8hpp.html" target="_top" xlink:title="Константы">
<polygon fill="white" stroke="#666666" points="436.25,-20.75 370,-20.75 370,0 436.25,0 436.25,-20.75"/>
<text text-anchor="middle" x="403.12" y="-7.25" font-family="Helvetica,sans-Serif" font-size="10.00">config.hpp</text>
</a>
</g>
</g>
<!-- Node1&#45;&gt;Node9 -->
<g id="edge13_Node000001_Node000009" class="edge">
<title>Node1&#45;&gt;Node9</title>
<g id="a_edge13_Node000001_Node000009"><a xlink:title=" ">
<path fill="none" stroke="#63b8ff" d="M221.98,-113.16C235.22,-99.13 261.47,-73.06 288.12,-56.75 310.13,-43.28 336.82,-32.46 358.95,-24.77"/>
<polygon fill="#63b8ff" stroke="#63b8ff" points="359.93,-28.13 368.29,-21.62 357.7,-21.49 359.93,-28.13"/>
</a>
</g>
</g>
<!-- Node7&#45;&gt;Node2 -->
<g id="edge7_Node000007_Node000002" class="edge">
<title>Node7&#45;&gt;Node2</title>
<g id="a_edge7_Node000007_Node000002"><a xlink:title=" ">
<path fill="none" stroke="#63b8ff" d="M186.05,-58.28C152.75,-48.63 96.14,-32.24 59.45,-21.61"/>
<polygon fill="#63b8ff" stroke="#63b8ff" points="60.78,-18.35 50.2,-18.93 58.83,-25.07 60.78,-18.35"/>
</a>
</g>
</g>
<!-- Node7&#45;&gt;Node5 -->
<g id="edge8_Node000007_Node000005" class="edge">
<title>Node7&#45;&gt;Node5</title>
<g id="a_edge8_Node000007_Node000005"><a xlink:title=" ">
<path fill="none" stroke="#63b8ff" d="M192.21,-56.34C174.16,-47.89 147.82,-35.57 127.29,-25.96"/>
<polygon fill="#63b8ff" stroke="#63b8ff" points="128.77,-22.79 118.23,-21.72 125.81,-29.13 128.77,-22.79"/>
</a>
</g>
</g>
<!-- Node7&#45;&gt;Node6 -->
<g id="edge10_Node000007_Node000006" class="edge">
<title>Node7&#45;&gt;Node6</title>
<g id="a_edge10_Node000007_Node000006"><a xlink:title=" ">
<path fill="none" stroke="#63b8ff" d="M204.72,-56.34C198.37,-48.94 189.47,-38.57 181.82,-29.66"/>
<polygon fill="#63b8ff" stroke="#63b8ff" points="184.61,-27.53 175.44,-22.23 179.3,-32.09 184.61,-27.53"/>
</a>
</g>
</g>
<!-- Node8 -->
<g id="Node000008" class="node">
<title>Node8</title>
<g id="a_Node000008"><a xlink:title=" ">
<polygon fill="#e0e0e0" stroke="#999999" points="262.38,-20.75 205.88,-20.75 205.88,0 262.38,0 262.38,-20.75"/>
<text text-anchor="middle" x="234.12" y="-7.25" font-family="Helvetica,sans-Serif" font-size="10.00">getopt.h</text>
</a>
</g>
</g>
<!-- Node7&#45;&gt;Node8 -->
<g id="edge9_Node000007_Node000008" class="edge">
<title>Node7&#45;&gt;Node8</title>
<g id="a_edge9_Node000007_Node000008"><a xlink:title=" ">
<path fill="none" stroke="#63b8ff" d="M216.88,-56.34C219.51,-49.49 223.11,-40.09 226.35,-31.65"/>
<polygon fill="#63b8ff" stroke="#63b8ff" points="229.55,-33.08 229.86,-22.49 223.01,-30.57 229.55,-33.08"/>
</a>
</g>
</g>
<!-- Node7&#45;&gt;Node9 -->
<g id="edge11_Node000007_Node000009" class="edge">
<title>Node7&#45;&gt;Node9</title>
<g id="a_edge11_Node000007_Node000009"><a xlink:title=" ">
<path fill="none" stroke="#63b8ff" d="M240.35,-58.28C271.22,-49.38 322.02,-34.75 358.67,-24.19"/>
<polygon fill="#63b8ff" stroke="#63b8ff" points="359.45,-27.6 368.09,-21.47 357.51,-20.88 359.45,-27.6"/>
</a>
</g>
</g>
<!-- Node10 -->
<g id="Node000010" class="node">
<title>Node10</title>
<g id="a_Node000010"><a xlink:title=" ">
<polygon fill="#e0e0e0" stroke="#999999" points="352.25,-20.75 280,-20.75 280,0 352.25,0 352.25,-20.75"/>
<text text-anchor="middle" x="316.12" y="-7.25" font-family="Helvetica,sans-Serif" font-size="10.00">INIReader.h</text>
</a>
</g>
</g>
<!-- Node7&#45;&gt;Node10 -->
<g id="edge12_Node000007_Node000010" class="edge">
<title>Node7&#45;&gt;Node10</title>
<g id="a_edge12_Node000007_Node000010"><a xlink:title=" ">
<path fill="none" stroke="#63b8ff" d="M231.54,-56.34C247.21,-48.01 269.97,-35.91 287.94,-26.36"/>
<polygon fill="#63b8ff" stroke="#63b8ff" points="289.35,-29.57 296.53,-21.79 286.06,-23.39 289.35,-29.57"/>
</a>
</g>
</g>
</g>
</svg>
