<?xml version="1.0" encoding="UTF-8" standalone="no"?>
<!DOCTYPE svg PUBLIC "-//W3C//DTD SVG 1.1//EN"
 "http://www.w3.org/Graphics/SVG/1.1/DTD/svg11.dtd">
<!-- Generated by graphviz version 12.2.1 (0)
 -->
<!-- Title: src/lib/inih/INIReader.cpp Pages: 1 -->
<svg width="350pt" height="142pt"
 viewBox="0.00 0.00 349.75 142.25" xmlns="http://www.w3.org/2000/svg" xmlns:xlink="http://www.w3.org/1999/xlink">
<g id="graph0" class="graph" transform="scale(1 1) rotate(0) translate(4 138.25)">
<title>src/lib/inih/INIReader.cpp</title>
<!-- Node1 -->
<g id="Node000001" class="node">
<title>Node1</title>
<g id="a_Node000001"><a xlink:title=" ">
<polygon fill="#999999" stroke="#666666" points="240,-134.25 103.25,-134.25 103.25,-113.5 240,-113.5 240,-134.25"/>
<text text-anchor="middle" x="171.62" y="-120.75" font-family="Helvetica,sans-Serif" font-size="10.00">src/lib/inih/INIReader.cpp</text>
</a>
</g>
</g>
<!-- Node2 -->
<g id="Node000002" class="node">
<title>Node2</title>
<g id="a_Node000002"><a xlink:title=" ">
<polygon fill="#e0e0e0" stroke="#999999" points="63.25,-77.5 0,-77.5 0,-56.75 63.25,-56.75 63.25,-77.5"/>
<text text-anchor="middle" x="31.62" y="-64" font-family="Helvetica,sans-Serif" font-size="10.00">algorithm</text>
</a>
</g>
</g>
<!-- Node1&#45;&gt;Node2 -->
<g id="edge1_Node000001_Node000002" class="edge">
<title>Node1&#45;&gt;Node2</title>
<g id="a_edge1_Node000001_Node000002"><a xlink:title=" ">
<path fill="none" stroke="#63b8ff" d="M146.6,-113.09C124.4,-104.41 91.74,-91.63 66.89,-81.92"/>
<polygon fill="#63b8ff" stroke="#63b8ff" points="68.44,-78.76 57.85,-78.38 65.89,-85.28 68.44,-78.76"/>
</a>
</g>
</g>
<!-- Node3 -->
<g id="Node000003" class="node">
<title>Node3</title>
<g id="a_Node000003"><a xlink:title=" ">
<polygon fill="#e0e0e0" stroke="#999999" points="129.75,-77.5 81.5,-77.5 81.5,-56.75 129.75,-56.75 129.75,-77.5"/>
<text text-anchor="middle" x="105.62" y="-64" font-family="Helvetica,sans-Serif" font-size="10.00">cctype</text>
</a>
</g>
</g>
<!-- Node1&#45;&gt;Node3 -->
<g id="edge2_Node000001_Node000003" class="edge">
<title>Node1&#45;&gt;Node3</title>
<g id="a_edge2_Node000001_Node000003"><a xlink:title=" ">
<path fill="none" stroke="#63b8ff" d="M159.83,-113.09C150.44,-105.3 137.09,-94.22 125.98,-85.01"/>
<polygon fill="#63b8ff" stroke="#63b8ff" points="128.42,-82.49 118.49,-78.79 123.95,-87.87 128.42,-82.49"/>
</a>
</g>
</g>
<!-- Node4 -->
<g id="Node000004" class="node">
<title>Node4</title>
<g id="a_Node000004"><a xlink:title=" ">
<polygon fill="#e0e0e0" stroke="#999999" points="195.75,-77.5 147.5,-77.5 147.5,-56.75 195.75,-56.75 195.75,-77.5"/>
<text text-anchor="middle" x="171.62" y="-64" font-family="Helvetica,sans-Serif" font-size="10.00">cstdlib</text>
</a>
</g>
</g>
<!-- Node1&#45;&gt;Node4 -->
<g id="edge3_Node000001_Node000004" class="edge">
<title>Node1&#45;&gt;Node4</title>
<g id="a_edge3_Node000001_Node000004"><a xlink:title=" ">
<path fill="none" stroke="#63b8ff" d="M171.62,-113.09C171.62,-106.47 171.62,-97.47 171.62,-89.27"/>
<polygon fill="#63b8ff" stroke="#63b8ff" points="175.13,-89.34 171.63,-79.34 168.13,-89.34 175.13,-89.34"/>
</a>
</g>
</g>
<!-- Node5 -->
<g id="Node000005" class="node">
<title>Node5</title>
<g id="a_Node000005"><a xlink:href="ini_8h.html" target="_top" xlink:title=" ">
<polygon fill="white" stroke="#666666" points="251.12,-77.5 214.12,-77.5 214.12,-56.75 251.12,-56.75 251.12,-77.5"/>
<text text-anchor="middle" x="232.62" y="-64" font-family="Helvetica,sans-Serif" font-size="10.00">ini.h</text>
</a>
</g>
</g>
<!-- Node1&#45;&gt;Node5 -->
<g id="edge4_Node000001_Node000005" class="edge">
<title>Node1&#45;&gt;Node5</title>
<g id="a_edge4_Node000001_Node000005"><a xlink:title=" ">
<path fill="none" stroke="#63b8ff" d="M182.53,-113.09C191.12,-105.38 203.3,-94.45 213.5,-85.29"/>
<polygon fill="#63b8ff" stroke="#63b8ff" points="215.58,-88.12 220.69,-78.84 210.91,-82.91 215.58,-88.12"/>
</a>
</g>
</g>
<!-- Node7 -->
<g id="Node000007" class="node">
<title>Node7</title>
<g id="a_Node000007"><a xlink:title=" ">
<polygon fill="#e0e0e0" stroke="#999999" points="341.75,-77.5 269.5,-77.5 269.5,-56.75 341.75,-56.75 341.75,-77.5"/>
<text text-anchor="middle" x="305.62" y="-64" font-family="Helvetica,sans-Serif" font-size="10.00">INIReader.h</text>
</a>
</g>
</g>
<!-- Node1&#45;&gt;Node7 -->
<g id="edge6_Node000001_Node000007" class="edge">
<title>Node1&#45;&gt;Node7</title>
<g id="a_edge6_Node000001_Node000007"><a xlink:title=" ">
<path fill="none" stroke="#63b8ff" d="M195.58,-113.09C216.64,-104.48 247.53,-91.86 271.23,-82.18"/>
<polygon fill="#63b8ff" stroke="#63b8ff" points="272.54,-85.42 280.47,-78.4 269.89,-78.94 272.54,-85.42"/>
</a>
</g>
</g>
<!-- Node6 -->
<g id="Node000006" class="node">
<title>Node6</title>
<g id="a_Node000006"><a xlink:title=" ">
<polygon fill="#e0e0e0" stroke="#999999" points="257.12,-20.75 208.12,-20.75 208.12,0 257.12,0 257.12,-20.75"/>
<text text-anchor="middle" x="232.62" y="-7.25" font-family="Helvetica,sans-Serif" font-size="10.00">stdio.h</text>
</a>
</g>
</g>
<!-- Node5&#45;&gt;Node6 -->
<g id="edge5_Node000005_Node000006" class="edge">
<title>Node5&#45;&gt;Node6</title>
<g id="a_edge5_Node000005_Node000006"><a xlink:title=" ">
<path fill="none" stroke="#63b8ff" d="M232.62,-56.34C232.62,-49.72 232.62,-40.72 232.62,-32.52"/>
<polygon fill="#63b8ff" stroke="#63b8ff" points="236.13,-32.59 232.63,-22.59 229.13,-32.59 236.13,-32.59"/>
</a>
</g>
</g>
</g>
</svg>
