<?xml version="1.0" encoding="UTF-8" standalone="no"?>
<!DOCTYPE svg PUBLIC "-//W3C//DTD SVG 1.1//EN"
 "http://www.w3.org/Graphics/SVG/1.1/DTD/svg11.dtd">
<!-- Generated by graphviz version 12.2.1 (0)
 -->
<!-- Title: src/lib/inih/INIReader.hpp Pages: 1 -->
<svg width="288pt" height="86pt"
 viewBox="0.00 0.00 288.38 85.50" xmlns="http://www.w3.org/2000/svg" xmlns:xlink="http://www.w3.org/1999/xlink">
<g id="graph0" class="graph" transform="scale(1 1) rotate(0) translate(4 81.5)">
<title>src/lib/inih/INIReader.hpp</title>
<!-- Node1 -->
<g id="Node000001" class="node">
<title>Node1</title>
<g id="a_Node000001"><a xlink:title=" ">
<polygon fill="#999999" stroke="#666666" points="210.62,-77.5 73.12,-77.5 73.12,-56.75 210.62,-56.75 210.62,-77.5"/>
<text text-anchor="middle" x="141.88" y="-64" font-family="Helvetica,sans-Serif" font-size="10.00">src/lib/inih/INIReader.hpp</text>
</a>
</g>
</g>
<!-- Node2 -->
<g id="Node000002" class="node">
<title>Node2</title>
<g id="a_Node000002"><a xlink:title=" ">
<polygon fill="#e0e0e0" stroke="#999999" points="37.75,-20.75 0,-20.75 0,0 37.75,0 37.75,-20.75"/>
<text text-anchor="middle" x="18.88" y="-7.25" font-family="Helvetica,sans-Serif" font-size="10.00">map</text>
</a>
</g>
</g>
<!-- Node1&#45;&gt;Node2 -->
<g id="edge1_Node000001_Node000002" class="edge">
<title>Node1&#45;&gt;Node2</title>
<g id="a_edge1_Node000001_Node000002"><a xlink:title=" ">
<path fill="none" stroke="#63b8ff" d="M119.89,-56.34C100.02,-47.5 70.63,-34.41 48.66,-24.63"/>
<polygon fill="#63b8ff" stroke="#63b8ff" points="50.19,-21.48 39.63,-20.61 47.34,-27.88 50.19,-21.48"/>
</a>
</g>
</g>
<!-- Node3 -->
<g id="Node000003" class="node">
<title>Node3</title>
<g id="a_Node000003"><a xlink:title=" ">
<polygon fill="#e0e0e0" stroke="#999999" points="99.75,-20.75 56,-20.75 56,0 99.75,0 99.75,-20.75"/>
<text text-anchor="middle" x="77.88" y="-7.25" font-family="Helvetica,sans-Serif" font-size="10.00">string</text>
</a>
</g>
</g>
<!-- Node1&#45;&gt;Node3 -->
<g id="edge2_Node000001_Node000003" class="edge">
<title>Node1&#45;&gt;Node3</title>
<g id="a_edge2_Node000001_Node000003"><a xlink:title=" ">
<path fill="none" stroke="#63b8ff" d="M130.43,-56.34C121.42,-48.63 108.64,-37.7 97.94,-28.54"/>
<polygon fill="#63b8ff" stroke="#63b8ff" points="100.24,-25.9 90.37,-22.06 95.69,-31.22 100.24,-25.9"/>
</a>
</g>
</g>
<!-- Node4 -->
<g id="Node000004" class="node">
<title>Node4</title>
<g id="a_Node000004"><a xlink:title=" ">
<polygon fill="#e0e0e0" stroke="#999999" points="166.38,-20.75 117.38,-20.75 117.38,0 166.38,0 166.38,-20.75"/>
<text text-anchor="middle" x="141.88" y="-7.25" font-family="Helvetica,sans-Serif" font-size="10.00">cstdint</text>
</a>
</g>
</g>
<!-- Node1&#45;&gt;Node4 -->
<g id="edge3_Node000001_Node000004" class="edge">
<title>Node1&#45;&gt;Node4</title>
<g id="a_edge3_Node000001_Node000004"><a xlink:title=" ">
<path fill="none" stroke="#63b8ff" d="M141.88,-56.34C141.88,-49.72 141.88,-40.72 141.88,-32.52"/>
<polygon fill="#63b8ff" stroke="#63b8ff" points="145.38,-32.59 141.88,-22.59 138.38,-32.59 145.38,-32.59"/>
</a>
</g>
</g>
<!-- Node5 -->
<g id="Node000005" class="node">
<title>Node5</title>
<g id="a_Node000005"><a xlink:title=" ">
<polygon fill="#e0e0e0" stroke="#999999" points="231.25,-20.75 184.5,-20.75 184.5,0 231.25,0 231.25,-20.75"/>
<text text-anchor="middle" x="207.88" y="-7.25" font-family="Helvetica,sans-Serif" font-size="10.00">vector</text>
</a>
</g>
</g>
<!-- Node1&#45;&gt;Node5 -->
<g id="edge4_Node000001_Node000005" class="edge">
<title>Node1&#45;&gt;Node5</title>
<g id="a_edge4_Node000001_Node000005"><a xlink:title=" ">
<path fill="none" stroke="#63b8ff" d="M153.67,-56.34C163.06,-48.55 176.41,-37.47 187.52,-28.26"/>
<polygon fill="#63b8ff" stroke="#63b8ff" points="189.55,-31.12 195.01,-22.04 185.08,-25.74 189.55,-31.12"/>
</a>
</g>
</g>
<!-- Node6 -->
<g id="Node000006" class="node">
<title>Node6</title>
<g id="a_Node000006"><a xlink:title=" ">
<polygon fill="#e0e0e0" stroke="#999999" points="280.38,-20.75 249.38,-20.75 249.38,0 280.38,0 280.38,-20.75"/>
<text text-anchor="middle" x="264.88" y="-7.25" font-family="Helvetica,sans-Serif" font-size="10.00">set</text>
</a>
</g>
</g>
<!-- Node1&#45;&gt;Node6 -->
<g id="edge5_Node000001_Node000006" class="edge">
<title>Node1&#45;&gt;Node6</title>
<g id="a_edge5_Node000001_Node000006"><a xlink:title=" ">
<path fill="none" stroke="#63b8ff" d="M163.86,-56.34C184.79,-47.02 216.3,-33 238.55,-23.09"/>
<polygon fill="#63b8ff" stroke="#63b8ff" points="239.85,-26.35 247.56,-19.08 237,-19.95 239.85,-26.35"/>
</a>
</g>
</g>
</g>
</svg>
