<?xml version="1.0" encoding="UTF-8" standalone="no"?>
<!DOCTYPE svg PUBLIC "-//W3C//DTD SVG 1.1//EN"
 "http://www.w3.org/Graphics/SVG/1.1/DTD/svg11.dtd">
<!-- Generated by graphviz version 12.2.1 (0)
 -->
<!-- Title: main Pages: 1 -->
<svg width="629pt" height="185pt"
 viewBox="0.00 0.00 628.75 184.75" xmlns="http://www.w3.org/2000/svg" xmlns:xlink="http://www.w3.org/1999/xlink">
<g id="graph0" class="graph" transform="scale(1 1) rotate(0) translate(4 180.75)">
<title>main</title>
<!-- Node1 -->
<g id="Node000001" class="node">
<title>Node1</title>
<g id="a_Node000001"><a xlink:title="Точка входа в программу">
<polygon fill="#999999" stroke="#666666" points="40.75,-98.75 0,-98.75 0,-78 40.75,-78 40.75,-98.75"/>
<text text-anchor="middle" x="20.38" y="-85.25" font-family="Helvetica,sans-Serif" font-size="10.00">main</text>
</a>
</g>
</g>
<!-- Node2 -->
<g id="Node000002" class="node">
<title>Node2</title>
<g id="a_Node000002"><a xlink:href="classUser.html#abb71365ead22bd1d92099e2286863ce8" target="_top" xlink:title="Вытряхивает url с юзера">
<polygon fill="white" stroke="#666666" points="151.25,-176.75 76.75,-176.75 76.75,-156 151.25,-156 151.25,-176.75"/>
<text text-anchor="middle" x="114" y="-163.25" font-family="Helvetica,sans-Serif" font-size="10.00">User::getUrl</text>
</a>
</g>
</g>
<!-- Node1&#45;&gt;Node2 -->
<g id="edge1_Node000001_Node000002" class="edge">
<title>Node1&#45;&gt;Node2</title>
<g id="a_edge1_Node000001_Node000002"><a xlink:title=" ">
<path fill="none" stroke="#63b8ff" d="M29.94,-99.16C40.16,-111.58 58.22,-132.1 76.75,-146.38 78.24,-147.52 79.8,-148.64 81.4,-149.73"/>
<polygon fill="#63b8ff" stroke="#63b8ff" points="79.22,-152.49 89.57,-154.77 82.9,-146.54 79.22,-152.49"/>
</a>
</g>
</g>
<!-- Node3 -->
<g id="Node000003" class="node">
<title>Node3</title>
<g id="a_Node000003"><a xlink:href="classUser.html#aa41915ec41025b5625fa3d06c8f7369b" target="_top" xlink:title="Выводит хэлп">
<polygon fill="white" stroke="#666666" points="146.75,-137.75 81.25,-137.75 81.25,-117 146.75,-117 146.75,-137.75"/>
<text text-anchor="middle" x="114" y="-124.25" font-family="Helvetica,sans-Serif" font-size="10.00">User::help</text>
</a>
</g>
</g>
<!-- Node1&#45;&gt;Node3 -->
<g id="edge2_Node000001_Node000003" class="edge">
<title>Node1&#45;&gt;Node3</title>
<g id="a_edge2_Node000001_Node000003"><a xlink:title=" ">
<path fill="none" stroke="#63b8ff" d="M40.81,-96.65C51.37,-101.14 64.77,-106.85 77.15,-112.12"/>
<polygon fill="#63b8ff" stroke="#63b8ff" points="75.71,-115.31 86.28,-116 78.45,-108.87 75.71,-115.31"/>
</a>
</g>
</g>
<!-- Node4 -->
<g id="Node000004" class="node">
<title>Node4</title>
<g id="a_Node000004"><a xlink:href="classFs.html#acb7d48bc48ced2ef3689cf3ef6e997bd" target="_top" xlink:title="Создаёт нужные для работы проги папки">
<polygon fill="white" stroke="#666666" points="148.25,-98.75 79.75,-98.75 79.75,-78 148.25,-78 148.25,-98.75"/>
<text text-anchor="middle" x="114" y="-85.25" font-family="Helvetica,sans-Serif" font-size="10.00">Fs::initDirs</text>
</a>
</g>
</g>
<!-- Node1&#45;&gt;Node4 -->
<g id="edge3_Node000001_Node000004" class="edge">
<title>Node1&#45;&gt;Node4</title>
<g id="a_edge3_Node000001_Node000004"><a xlink:title=" ">
<path fill="none" stroke="#63b8ff" d="M40.81,-88.38C48.89,-88.38 58.63,-88.38 68.3,-88.38"/>
<polygon fill="#63b8ff" stroke="#63b8ff" points="68.01,-91.88 78.01,-88.38 68.01,-84.88 68.01,-91.88"/>
</a>
</g>
</g>
<!-- Node6 -->
<g id="Node000006" class="node">
<title>Node6</title>
<g id="a_Node000006"><a xlink:href="classUser.html#a1c85eb04195d59bf6ad4d5e423530244" target="_top" xlink:title="Показывает главное меню">
<polygon fill="white" stroke="#666666" points="150.12,-59.75 77.88,-59.75 77.88,-39 150.12,-39 150.12,-59.75"/>
<text text-anchor="middle" x="114" y="-46.25" font-family="Helvetica,sans-Serif" font-size="10.00">User::menu</text>
</a>
</g>
</g>
<!-- Node1&#45;&gt;Node6 -->
<g id="edge5_Node000001_Node000006" class="edge">
<title>Node1&#45;&gt;Node6</title>
<g id="a_edge5_Node000001_Node000006"><a xlink:title=" ">
<path fill="none" stroke="#63b8ff" d="M40.81,-80.1C51.37,-75.61 64.77,-69.9 77.15,-64.63"/>
<polygon fill="#63b8ff" stroke="#63b8ff" points="78.45,-67.88 86.28,-60.75 75.71,-61.44 78.45,-67.88"/>
</a>
</g>
</g>
<!-- Node7 -->
<g id="Node000007" class="node">
<title>Node7</title>
<g id="a_Node000007"><a xlink:href="classYt.html#a2567e552458d666519eb74d951992c82" target="_top" xlink:title="Скачка url с запрошенным режимом">
<polygon fill="white" stroke="#666666" points="144.88,-20.75 83.12,-20.75 83.12,0 144.88,0 144.88,-20.75"/>
<text text-anchor="middle" x="114" y="-7.25" font-family="Helvetica,sans-Serif" font-size="10.00">Yt::yt_dlp</text>
</a>
</g>
</g>
<!-- Node1&#45;&gt;Node7 -->
<g id="edge6_Node000001_Node000007" class="edge">
<title>Node1&#45;&gt;Node7</title>
<g id="a_edge6_Node000001_Node000007"><a xlink:title=" ">
<path fill="none" stroke="#63b8ff" d="M29.94,-77.59C40.16,-65.17 58.22,-44.65 76.75,-30.38 78.24,-29.23 79.8,-28.11 81.4,-27.02"/>
<polygon fill="#63b8ff" stroke="#63b8ff" points="82.9,-30.21 89.57,-21.98 79.22,-24.26 82.9,-30.21"/>
</a>
</g>
</g>
<!-- Node5 -->
<g id="Node000005" class="node">
<title>Node5</title>
<g id="a_Node000005"><a xlink:href="classFs.html#a364898d4c8e6ceb153b2a5b9c7c34e42" target="_top" xlink:title="Создаёт папку (целый путь), если её ещё нет">
<polygon fill="white" stroke="#666666" points="288.75,-98.75 215.75,-98.75 215.75,-78 288.75,-78 288.75,-98.75"/>
<text text-anchor="middle" x="252.25" y="-85.25" font-family="Helvetica,sans-Serif" font-size="10.00">Fs::mkdir_p</text>
</a>
</g>
</g>
<!-- Node4&#45;&gt;Node5 -->
<g id="edge4_Node000004_Node000005" class="edge">
<title>Node4&#45;&gt;Node5</title>
<g id="a_edge4_Node000004_Node000005"><a xlink:title=" ">
<path fill="none" stroke="#63b8ff" d="M148.68,-88.38C165.44,-88.38 185.97,-88.38 204.25,-88.38"/>
<polygon fill="#63b8ff" stroke="#63b8ff" points="204.06,-91.88 214.06,-88.38 204.06,-84.88 204.06,-91.88"/>
</a>
</g>
</g>
<!-- Node8 -->
<g id="Node000008" class="node">
<title>Node8</title>
<g id="a_Node000008"><a xlink:href="classYt.html#a43514b42682d0ebe7ef3f8716aaf0e93" target="_top" xlink:title="Получение и обработка ID видео из плейлиста">
<polygon fill="white" stroke="#666666" points="317.25,-59.75 187.25,-59.75 187.25,-39 317.25,-39 317.25,-59.75"/>
<text text-anchor="middle" x="252.25" y="-46.25" font-family="Helvetica,sans-Serif" font-size="10.00">Yt::process_playlist_ids</text>
</a>
</g>
</g>
<!-- Node7&#45;&gt;Node8 -->
<g id="edge7_Node000007_Node000008" class="edge">
<title>Node7&#45;&gt;Node8</title>
<g id="a_edge7_Node000007_Node000008"><a xlink:title=" ">
<path fill="none" stroke="#63b8ff" d="M145.24,-19.03C162.02,-23.83 183.29,-29.92 202.37,-35.38"/>
<polygon fill="#63b8ff" stroke="#63b8ff" points="201.26,-38.71 211.84,-38.09 203.19,-31.98 201.26,-38.71"/>
</a>
</g>
</g>
<!-- Node12 -->
<g id="Node000012" class="node">
<title>Node12</title>
<g id="a_Node000012"><a xlink:href="classYt.html#a76e426c4decef7c5777bdf88c8c84533" target="_top" xlink:title="Обёртка вокруг консольной команды yt&#45;dlp.">
<polygon fill="white" stroke="#666666" points="463.75,-20.75 381,-20.75 381,0 463.75,0 463.75,-20.75"/>
<text text-anchor="middle" x="422.38" y="-7.25" font-family="Helvetica,sans-Serif" font-size="10.00">Yt::run_yt_dlp</text>
</a>
</g>
</g>
<!-- Node7&#45;&gt;Node12 -->
<g id="edge13_Node000007_Node000012" class="edge">
<title>Node7&#45;&gt;Node12</title>
<g id="a_edge13_Node000007_Node000012"><a xlink:title=" ">
<path fill="none" stroke="#63b8ff" d="M145.21,-10.38C197.3,-10.38 304.6,-10.38 369.04,-10.38"/>
<polygon fill="#63b8ff" stroke="#63b8ff" points="369.04,-13.88 379.04,-10.38 369.04,-6.88 369.04,-13.88"/>
</a>
</g>
</g>
<!-- Node9 -->
<g id="Node000009" class="node">
<title>Node9</title>
<g id="a_Node000009"><a xlink:href="classFs.html#a6272d618633b1ea9d78a53be81b12fd7" target="_top" xlink:title="Проверка, есть ли ID видео в DRAY_LOG.">
<polygon fill="white" stroke="#666666" points="491.5,-98.75 353.25,-98.75 353.25,-78 491.5,-78 491.5,-98.75"/>
<text text-anchor="middle" x="422.38" y="-85.25" font-family="Helvetica,sans-Serif" font-size="10.00">Fs::is_video_downloaded</text>
</a>
</g>
</g>
<!-- Node8&#45;&gt;Node9 -->
<g id="edge8_Node000008_Node000009" class="edge">
<title>Node8&#45;&gt;Node9</title>
<g id="a_edge8_Node000008_Node000009"><a xlink:title=" ">
<path fill="none" stroke="#63b8ff" d="M300.08,-60.24C319.68,-64.78 342.65,-70.11 363.3,-74.9"/>
<polygon fill="#63b8ff" stroke="#63b8ff" points="362.5,-78.31 373.03,-77.16 364.08,-71.49 362.5,-78.31"/>
</a>
</g>
</g>
<!-- Node11 -->
<g id="Node000011" class="node">
<title>Node11</title>
<g id="a_Node000011"><a xlink:href="classFs.html#a3bbf4008231e10a1e1d95696df0d14a5" target="_top" xlink:title="Запись ID видео в DRAY_LOG.">
<polygon fill="white" stroke="#666666" points="469.75,-59.75 375,-59.75 375,-39 469.75,-39 469.75,-59.75"/>
<text text-anchor="middle" x="422.38" y="-46.25" font-family="Helvetica,sans-Serif" font-size="10.00">Fs::log_video_id</text>
</a>
</g>
</g>
<!-- Node8&#45;&gt;Node11 -->
<g id="edge10_Node000008_Node000011" class="edge">
<title>Node8&#45;&gt;Node11</title>
<g id="a_edge10_Node000008_Node000011"><a xlink:title=" ">
<path fill="none" stroke="#63b8ff" d="M317.29,-49.38C332.45,-49.38 348.53,-49.38 363.4,-49.38"/>
<polygon fill="#63b8ff" stroke="#63b8ff" points="362.99,-52.88 372.99,-49.38 362.99,-45.88 362.99,-52.88"/>
</a>
</g>
</g>
<!-- Node8&#45;&gt;Node12 -->
<g id="edge12_Node000008_Node000012" class="edge">
<title>Node8&#45;&gt;Node12</title>
<g id="a_edge12_Node000008_Node000012"><a xlink:title=" ">
<path fill="none" stroke="#63b8ff" d="M300.08,-38.51C321.59,-33.52 347.18,-27.59 369.3,-22.45"/>
<polygon fill="#63b8ff" stroke="#63b8ff" points="370.08,-25.87 379.03,-20.2 368.5,-19.05 370.08,-25.87"/>
</a>
</g>
</g>
<!-- Node10 -->
<g id="Node000010" class="node">
<title>Node10</title>
<g id="a_Node000010"><a xlink:href="classFs.html#abe01b346d7340a78999e275b36e06b46" target="_top" xlink:title="Возвращает путь к DRAY_LOG.">
<polygon fill="white" stroke="#666666" points="620.75,-78.75 527.5,-78.75 527.5,-58 620.75,-58 620.75,-78.75"/>
<text text-anchor="middle" x="574.12" y="-65.25" font-family="Helvetica,sans-Serif" font-size="10.00">Fs::drayLogPath</text>
</a>
</g>
</g>
<!-- Node9&#45;&gt;Node10 -->
<g id="edge9_Node000009_Node000010" class="edge">
<title>Node9&#45;&gt;Node10</title>
<g id="a_edge9_Node000009_Node000010"><a xlink:title=" ">
<path fill="none" stroke="#63b8ff" d="M491.68,-79.25C499.76,-78.17 507.95,-77.08 515.86,-76.02"/>
<polygon fill="#63b8ff" stroke="#63b8ff" points="516.26,-79.5 525.71,-74.71 515.33,-72.56 516.26,-79.5"/>
</a>
</g>
</g>
<!-- Node11&#45;&gt;Node10 -->
<g id="edge11_Node000011_Node000010" class="edge">
<title>Node11&#45;&gt;Node10</title>
<g id="a_edge11_Node000011_Node000010"><a xlink:title=" ">
<path fill="none" stroke="#63b8ff" d="M469.94,-55.28C484.44,-57.12 500.61,-59.17 515.76,-61.1"/>
<polygon fill="#63b8ff" stroke="#63b8ff" points="515.24,-64.56 525.61,-62.35 516.13,-57.61 515.24,-64.56"/>
</a>
</g>
</g>
</g>
</svg>
