<?xml version="1.0" encoding="UTF-8" standalone="no"?>
<!DOCTYPE svg PUBLIC "-//W3C//DTD SVG 1.1//EN"
 "http://www.w3.org/Graphics/SVG/1.1/DTD/svg11.dtd">
<!-- Generated by graphviz version 12.2.1 (0)
 -->
<!-- Title: src/main.cpp Pages: 1 -->
<svg width="750pt" height="256pt"
 viewBox="0.00 0.00 750.18 255.75" xmlns="http://www.w3.org/2000/svg" xmlns:xlink="http://www.w3.org/1999/xlink">
<g id="graph0" class="graph" transform="scale(1 1) rotate(0) translate(4 251.75)">
<title>src/main.cpp</title>
<!-- Node1 -->
<g id="Node000001" class="node">
<title>Node1</title>
<g id="a_Node000001"><a xlink:title="Прога для комфортного кача с YouTube.">
<polygon fill="#999999" stroke="#666666" points="379.5,-247.75 301.25,-247.75 301.25,-227 379.5,-227 379.5,-247.75"/>
<text text-anchor="middle" x="340.38" y="-234.25" font-family="Helvetica,sans-Serif" font-size="10.00">src/main.cpp</text>
</a>
</g>
</g>
<!-- Node2 -->
<g id="Node000002" class="node">
<title>Node2</title>
<g id="a_Node000002"><a xlink:href="Cfg_8hpp.html" target="_top" xlink:title="Класс Cfg и глобальная переменная config.">
<polygon fill="white" stroke="#666666" points="206.12,-77.5 152.62,-77.5 152.62,-56.75 206.12,-56.75 206.12,-77.5"/>
<text text-anchor="middle" x="179.38" y="-64" font-family="Helvetica,sans-Serif" font-size="10.00">Cfg.hpp</text>
</a>
</g>
</g>
<!-- Node1&#45;&gt;Node2 -->
<g id="edge1_Node000001_Node000002" class="edge">
<title>Node1&#45;&gt;Node2</title>
<g id="a_edge1_Node000001_Node000002"><a xlink:title=" ">
<path fill="none" stroke="#63b8ff" d="M331.26,-226.85C305.26,-199.67 230.43,-121.48 196.49,-86.01"/>
<polygon fill="#63b8ff" stroke="#63b8ff" points="199.28,-83.87 189.84,-79.06 194.22,-88.71 199.28,-83.87"/>
</a>
</g>
</g>
<!-- Node7 -->
<g id="Node000007" class="node">
<title>Node7</title>
<g id="a_Node000007"><a xlink:href="config_8hpp.html" target="_top" xlink:title="Константы">
<polygon fill="white" stroke="#666666" points="577.5,-20.75 511.25,-20.75 511.25,0 577.5,0 577.5,-20.75"/>
<text text-anchor="middle" x="544.38" y="-7.25" font-family="Helvetica,sans-Serif" font-size="10.00">config.hpp</text>
</a>
</g>
</g>
<!-- Node1&#45;&gt;Node7 -->
<g id="edge30_Node000001_Node000007" class="edge">
<title>Node1&#45;&gt;Node7</title>
<g id="a_edge30_Node000001_Node000007"><a xlink:title=" ">
<path fill="none" stroke="#63b8ff" d="M379.88,-232.12C470.53,-221.47 688.99,-190.38 732.38,-134.25 776.76,-76.82 657.21,-37.95 588.65,-21"/>
<polygon fill="#63b8ff" stroke="#63b8ff" points="589.73,-17.66 579.19,-18.73 588.09,-24.47 589.73,-17.66"/>
</a>
</g>
</g>
<!-- Node9 -->
<g id="Node000009" class="node">
<title>Node9</title>
<g id="a_Node000009"><a xlink:href="Fs_8hpp.html" target="_top" xlink:title="Класс Fs как коллекция функций для работы с файловой системой">
<polygon fill="white" stroke="#666666" points="364.5,-134.25 316.25,-134.25 316.25,-113.5 364.5,-113.5 364.5,-134.25"/>
<text text-anchor="middle" x="340.38" y="-120.75" font-family="Helvetica,sans-Serif" font-size="10.00">Fs.hpp</text>
</a>
</g>
</g>
<!-- Node1&#45;&gt;Node9 -->
<g id="edge8_Node000001_Node000009" class="edge">
<title>Node1&#45;&gt;Node9</title>
<g id="a_edge8_Node000001_Node000009"><a xlink:title=" ">
<path fill="none" stroke="#63b8ff" d="M340.38,-226.87C340.38,-209.1 340.38,-170.47 340.38,-146.18"/>
<polygon fill="#63b8ff" stroke="#63b8ff" points="343.88,-146.19 340.38,-136.19 336.88,-146.19 343.88,-146.19"/>
</a>
</g>
</g>
<!-- Node12 -->
<g id="Node000012" class="node">
<title>Node12</title>
<g id="a_Node000012"><a xlink:href="User_8hpp.html" target="_top" xlink:title="Класс User как коллекция функций пользовательского интерфейса">
<polygon fill="white" stroke="#666666" points="58.75,-77.5 0,-77.5 0,-56.75 58.75,-56.75 58.75,-77.5"/>
<text text-anchor="middle" x="29.38" y="-64" font-family="Helvetica,sans-Serif" font-size="10.00">User.hpp</text>
</a>
</g>
</g>
<!-- Node1&#45;&gt;Node12 -->
<g id="edge16_Node000001_Node000012" class="edge">
<title>Node1&#45;&gt;Node12</title>
<g id="a_edge16_Node000001_Node000012"><a xlink:title=" ">
<path fill="none" stroke="#63b8ff" d="M322.31,-226.6C270.35,-198.49 120.22,-117.27 57.47,-83.32"/>
<polygon fill="#63b8ff" stroke="#63b8ff" points="59.28,-80.33 48.82,-78.65 55.95,-86.48 59.28,-80.33"/>
</a>
</g>
</g>
<!-- Node14 -->
<g id="Node000014" class="node">
<title>Node14</title>
<g id="a_Node000014"><a xlink:href="Yt_8hpp.html" target="_top" xlink:title=" ">
<polygon fill="white" stroke="#666666" points="465.75,-191 419,-191 419,-170.25 465.75,-170.25 465.75,-191"/>
<text text-anchor="middle" x="442.38" y="-177.5" font-family="Helvetica,sans-Serif" font-size="10.00">Yt.hpp</text>
</a>
</g>
</g>
<!-- Node1&#45;&gt;Node14 -->
<g id="edge20_Node000001_Node000014" class="edge">
<title>Node1&#45;&gt;Node14</title>
<g id="a_edge20_Node000001_Node000014"><a xlink:title=" ">
<path fill="none" stroke="#63b8ff" d="M358.61,-226.59C374.06,-218.3 396.46,-206.27 414.21,-196.74"/>
<polygon fill="#63b8ff" stroke="#63b8ff" points="415.81,-199.86 422.96,-192.04 412.5,-193.69 415.81,-199.86"/>
</a>
</g>
</g>
<!-- Node3 -->
<g id="Node000003" class="node">
<title>Node3</title>
<g id="a_Node000003"><a xlink:title=" ">
<polygon fill="#e0e0e0" stroke="#999999" points="454.5,-20.75 406.25,-20.75 406.25,0 454.5,0 454.5,-20.75"/>
<text text-anchor="middle" x="430.38" y="-7.25" font-family="Helvetica,sans-Serif" font-size="10.00">cstdlib</text>
</a>
</g>
</g>
<!-- Node2&#45;&gt;Node3 -->
<g id="edge2_Node000002_Node000003" class="edge">
<title>Node2&#45;&gt;Node3</title>
<g id="a_edge2_Node000002_Node000003"><a xlink:title=" ">
<path fill="none" stroke="#63b8ff" d="M206.47,-58.92C209.47,-58.17 212.48,-57.43 215.38,-56.75 249.12,-48.8 343.32,-29.27 395.13,-18.61"/>
<polygon fill="#63b8ff" stroke="#63b8ff" points="395.54,-22.09 404.63,-16.65 394.13,-15.24 395.54,-22.09"/>
</a>
</g>
</g>
<!-- Node4 -->
<g id="Node000004" class="node">
<title>Node4</title>
<g id="a_Node000004"><a xlink:title=" ">
<polygon fill="#e0e0e0" stroke="#999999" points="375.12,-20.75 315.62,-20.75 315.62,0 375.12,0 375.12,-20.75"/>
<text text-anchor="middle" x="345.38" y="-7.25" font-family="Helvetica,sans-Serif" font-size="10.00">iostream</text>
</a>
</g>
</g>
<!-- Node2&#45;&gt;Node4 -->
<g id="edge3_Node000002_Node000004" class="edge">
<title>Node2&#45;&gt;Node4</title>
<g id="a_edge3_Node000002_Node000004"><a xlink:title=" ">
<path fill="none" stroke="#63b8ff" d="M206.42,-57.21C233.09,-48.41 274.2,-34.85 304.79,-24.76"/>
<polygon fill="#63b8ff" stroke="#63b8ff" points="305.7,-28.15 314.1,-21.69 303.51,-21.5 305.7,-28.15"/>
</a>
</g>
</g>
<!-- Node5 -->
<g id="Node000005" class="node">
<title>Node5</title>
<g id="a_Node000005"><a xlink:title=" ">
<polygon fill="#e0e0e0" stroke="#999999" points="283.62,-20.75 227.12,-20.75 227.12,0 283.62,0 283.62,-20.75"/>
<text text-anchor="middle" x="255.38" y="-7.25" font-family="Helvetica,sans-Serif" font-size="10.00">getopt.h</text>
</a>
</g>
</g>
<!-- Node2&#45;&gt;Node5 -->
<g id="edge4_Node000002_Node000005" class="edge">
<title>Node2&#45;&gt;Node5</title>
<g id="a_edge4_Node000002_Node000005"><a xlink:title=" ">
<path fill="none" stroke="#63b8ff" d="M192.96,-56.34C203.99,-48.4 219.76,-37.03 232.7,-27.71"/>
<polygon fill="#63b8ff" stroke="#63b8ff" points="234.61,-30.65 240.68,-21.96 230.52,-24.97 234.61,-30.65"/>
</a>
</g>
</g>
<!-- Node6 -->
<g id="Node000006" class="node">
<title>Node6</title>
<g id="a_Node000006"><a xlink:title=" ">
<polygon fill="#e0e0e0" stroke="#999999" points="116.25,-20.75 72.5,-20.75 72.5,0 116.25,0 116.25,-20.75"/>
<text text-anchor="middle" x="94.38" y="-7.25" font-family="Helvetica,sans-Serif" font-size="10.00">string</text>
</a>
</g>
</g>
<!-- Node2&#45;&gt;Node6 -->
<g id="edge5_Node000002_Node000006" class="edge">
<title>Node2&#45;&gt;Node6</title>
<g id="a_edge5_Node000002_Node000006"><a xlink:title=" ">
<path fill="none" stroke="#63b8ff" d="M164.18,-56.34C151.61,-48.24 133.51,-36.58 118.89,-27.17"/>
<polygon fill="#63b8ff" stroke="#63b8ff" points="121.01,-24.37 110.71,-21.9 117.22,-30.26 121.01,-24.37"/>
</a>
</g>
</g>
<!-- Node2&#45;&gt;Node7 -->
<g id="edge6_Node000002_Node000007" class="edge">
<title>Node2&#45;&gt;Node7</title>
<g id="a_edge6_Node000002_Node000007"><a xlink:title=" ">
<path fill="none" stroke="#63b8ff" d="M206.42,-58.72C209.43,-58 212.46,-57.33 215.38,-56.75 268.83,-46.14 422.75,-26.46 499.6,-16.89"/>
<polygon fill="#63b8ff" stroke="#63b8ff" points="499.81,-20.39 509.3,-15.68 498.95,-13.44 499.81,-20.39"/>
</a>
</g>
</g>
<!-- Node8 -->
<g id="Node000008" class="node">
<title>Node8</title>
<g id="a_Node000008"><a xlink:title=" ">
<polygon fill="#e0e0e0" stroke="#999999" points="209.5,-20.75 137.25,-20.75 137.25,0 209.5,0 209.5,-20.75"/>
<text text-anchor="middle" x="173.38" y="-7.25" font-family="Helvetica,sans-Serif" font-size="10.00">INIReader.h</text>
</a>
</g>
</g>
<!-- Node2&#45;&gt;Node8 -->
<g id="edge7_Node000002_Node000008" class="edge">
<title>Node2&#45;&gt;Node8</title>
<g id="a_edge7_Node000002_Node000008"><a xlink:title=" ">
<path fill="none" stroke="#63b8ff" d="M178.3,-56.34C177.58,-49.72 176.59,-40.72 175.69,-32.52"/>
<polygon fill="#63b8ff" stroke="#63b8ff" points="179.17,-32.14 174.6,-22.58 172.21,-32.9 179.17,-32.14"/>
</a>
</g>
</g>
<!-- Node9&#45;&gt;Node2 -->
<g id="edge14_Node000009_Node000002" class="edge">
<title>Node9&#45;&gt;Node2</title>
<g id="a_edge14_Node000009_Node000002"><a xlink:title=" ">
<path fill="none" stroke="#63b8ff" d="M315.92,-114.56C289.68,-105.63 247.65,-91.34 217.15,-80.97"/>
<polygon fill="#63b8ff" stroke="#63b8ff" points="218.51,-77.74 207.92,-77.83 216.26,-84.36 218.51,-77.74"/>
</a>
</g>
</g>
<!-- Node9&#45;&gt;Node3 -->
<g id="edge9_Node000009_Node000003" class="edge">
<title>Node9&#45;&gt;Node3</title>
<g id="a_edge9_Node000009_Node000003"><a xlink:title=" ">
<path fill="none" stroke="#63b8ff" d="M352.21,-113.15C362.44,-104.42 377.28,-90.95 388.38,-77.5 400.53,-62.76 411.99,-44.29 419.86,-30.62"/>
<polygon fill="#63b8ff" stroke="#63b8ff" points="422.76,-32.6 424.6,-22.17 416.66,-29.18 422.76,-32.6"/>
</a>
</g>
</g>
<!-- Node9&#45;&gt;Node4 -->
<g id="edge12_Node000009_Node000004" class="edge">
<title>Node9&#45;&gt;Node4</title>
<g id="a_edge12_Node000009_Node000004"><a xlink:title=" ">
<path fill="none" stroke="#63b8ff" d="M350.34,-113.13C358.3,-104.58 368.86,-91.39 373.38,-77.5 378.72,-61.06 370.06,-43.03 361,-29.96"/>
<polygon fill="#63b8ff" stroke="#63b8ff" points="363.97,-28.08 355.13,-22.24 358.4,-32.32 363.97,-28.08"/>
</a>
</g>
</g>
<!-- Node9&#45;&gt;Node6 -->
<g id="edge13_Node000009_Node000006" class="edge">
<title>Node9&#45;&gt;Node6</title>
<g id="a_edge13_Node000009_Node000006"><a xlink:title=" ">
<path fill="none" stroke="#63b8ff" d="M315.86,-122.55C276.39,-120.93 197.7,-113.07 143.38,-77.5 125.87,-66.04 112.36,-46.05 104,-31.04"/>
<polygon fill="#63b8ff" stroke="#63b8ff" points="107.28,-29.76 99.54,-22.53 101.08,-33.01 107.28,-29.76"/>
</a>
</g>
</g>
<!-- Node9&#45;&gt;Node7 -->
<g id="edge15_Node000009_Node000007" class="edge">
<title>Node9&#45;&gt;Node7</title>
<g id="a_edge15_Node000009_Node000007"><a xlink:title=" ">
<path fill="none" stroke="#63b8ff" d="M358.12,-113.18C393.69,-93.74 473.93,-49.88 516.55,-26.58"/>
<polygon fill="#63b8ff" stroke="#63b8ff" points="518.1,-29.73 525.2,-21.86 514.74,-23.58 518.1,-29.73"/>
</a>
</g>
</g>
<!-- Node10 -->
<g id="Node000010" class="node">
<title>Node10</title>
<g id="a_Node000010"><a xlink:title=" ">
<polygon fill="#e0e0e0" stroke="#999999" points="363.88,-77.5 296.88,-77.5 296.88,-56.75 363.88,-56.75 363.88,-77.5"/>
<text text-anchor="middle" x="330.38" y="-64" font-family="Helvetica,sans-Serif" font-size="10.00">filesystem</text>
</a>
</g>
</g>
<!-- Node9&#45;&gt;Node10 -->
<g id="edge10_Node000009_Node000010" class="edge">
<title>Node9&#45;&gt;Node10</title>
<g id="a_edge10_Node000009_Node000010"><a xlink:title=" ">
<path fill="none" stroke="#63b8ff" d="M338.59,-113.09C337.36,-106.39 335.7,-97.26 334.18,-88.98"/>
<polygon fill="#63b8ff" stroke="#63b8ff" points="337.66,-88.53 332.42,-79.32 330.77,-89.78 337.66,-88.53"/>
</a>
</g>
</g>
<!-- Node11 -->
<g id="Node000011" class="node">
<title>Node11</title>
<g id="a_Node000011"><a xlink:title=" ">
<polygon fill="#e0e0e0" stroke="#999999" points="278.5,-77.5 224.25,-77.5 224.25,-56.75 278.5,-56.75 278.5,-77.5"/>
<text text-anchor="middle" x="251.38" y="-64" font-family="Helvetica,sans-Serif" font-size="10.00">fstream</text>
</a>
</g>
</g>
<!-- Node9&#45;&gt;Node11 -->
<g id="edge11_Node000009_Node000011" class="edge">
<title>Node9&#45;&gt;Node11</title>
<g id="a_edge11_Node000009_Node000011"><a xlink:title=" ">
<path fill="none" stroke="#63b8ff" d="M324.46,-113.09C311.17,-104.91 291.99,-93.11 276.61,-83.65"/>
<polygon fill="#63b8ff" stroke="#63b8ff" points="278.79,-80.88 268.44,-78.62 275.12,-86.84 278.79,-80.88"/>
</a>
</g>
</g>
<!-- Node12&#45;&gt;Node4 -->
<g id="edge17_Node000012_Node000004" class="edge">
<title>Node12&#45;&gt;Node4</title>
<g id="a_edge17_Node000012_Node000004"><a xlink:title=" ">
<path fill="none" stroke="#63b8ff" d="M58.96,-61.06C107.65,-52.72 207.71,-35.54 292.38,-20.75 296.22,-20.08 300.22,-19.38 304.22,-18.67"/>
<polygon fill="#63b8ff" stroke="#63b8ff" points="304.66,-22.15 313.9,-16.97 303.44,-15.26 304.66,-22.15"/>
</a>
</g>
</g>
<!-- Node12&#45;&gt;Node6 -->
<g id="edge19_Node000012_Node000006" class="edge">
<title>Node12&#45;&gt;Node6</title>
<g id="a_edge19_Node000012_Node000006"><a xlink:title=" ">
<path fill="none" stroke="#63b8ff" d="M41,-56.34C50.24,-48.55 63.39,-37.47 74.32,-28.26"/>
<polygon fill="#63b8ff" stroke="#63b8ff" points="76.3,-31.17 81.7,-22.05 71.79,-25.82 76.3,-31.17"/>
</a>
</g>
</g>
<!-- Node13 -->
<g id="Node000013" class="node">
<title>Node13</title>
<g id="a_Node000013"><a xlink:title=" ">
<polygon fill="#e0e0e0" stroke="#999999" points="51.25,-20.75 7.5,-20.75 7.5,0 51.25,0 51.25,-20.75"/>
<text text-anchor="middle" x="29.38" y="-7.25" font-family="Helvetica,sans-Serif" font-size="10.00">limits</text>
</a>
</g>
</g>
<!-- Node12&#45;&gt;Node13 -->
<g id="edge18_Node000012_Node000013" class="edge">
<title>Node12&#45;&gt;Node13</title>
<g id="a_edge18_Node000012_Node000013"><a xlink:title=" ">
<path fill="none" stroke="#63b8ff" d="M29.38,-56.34C29.38,-49.72 29.38,-40.72 29.38,-32.52"/>
<polygon fill="#63b8ff" stroke="#63b8ff" points="32.88,-32.59 29.38,-22.59 25.88,-32.59 32.88,-32.59"/>
</a>
</g>
</g>
<!-- Node14&#45;&gt;Node2 -->
<g id="edge27_Node000014_Node000002" class="edge">
<title>Node14&#45;&gt;Node2</title>
<g id="a_edge27_Node000014_Node000002"><a xlink:title=" ">
<path fill="none" stroke="#63b8ff" d="M418.56,-172.82C391.26,-164.75 345.4,-150.35 307.38,-134.25 271.5,-119.06 231.9,-97.88 206.38,-83.62"/>
<polygon fill="#63b8ff" stroke="#63b8ff" points="208.11,-80.57 197.68,-78.71 204.67,-86.67 208.11,-80.57"/>
</a>
</g>
</g>
<!-- Node14&#45;&gt;Node3 -->
<g id="edge23_Node000014_Node000003" class="edge">
<title>Node14&#45;&gt;Node3</title>
<g id="a_edge23_Node000014_Node000003"><a xlink:title=" ">
<path fill="none" stroke="#63b8ff" d="M454.79,-169.97C464.37,-161.68 476.88,-148.79 482.38,-134.25 494.55,-102.03 496.63,-88.11 482.38,-56.75 477.04,-45.01 467,-35.13 457.16,-27.61"/>
<polygon fill="#63b8ff" stroke="#63b8ff" points="459.37,-24.89 449.18,-22.01 455.35,-30.62 459.37,-24.89"/>
</a>
</g>
</g>
<!-- Node14&#45;&gt;Node4 -->
<g id="edge24_Node000014_Node000004" class="edge">
<title>Node14&#45;&gt;Node4</title>
<g id="a_edge24_Node000014_Node000004"><a xlink:title=" ">
<path fill="none" stroke="#63b8ff" d="M446.3,-169.78C450.98,-156.46 457.24,-132.24 449.38,-113.5 433.56,-75.8 396.29,-45.01 370.94,-27.43"/>
<polygon fill="#63b8ff" stroke="#63b8ff" points="373.06,-24.64 362.81,-21.98 369.17,-30.45 373.06,-24.64"/>
</a>
</g>
</g>
<!-- Node14&#45;&gt;Node6 -->
<g id="edge25_Node000014_Node000006" class="edge">
<title>Node14&#45;&gt;Node6</title>
<g id="a_edge25_Node000014_Node000006"><a xlink:title=" ">
<path fill="none" stroke="#63b8ff" d="M418.5,-179.41C358.89,-177.53 202.28,-164.14 118.38,-77.5 106.55,-65.29 100.49,-46.8 97.42,-32.48"/>
<polygon fill="#63b8ff" stroke="#63b8ff" points="100.88,-31.95 95.69,-22.71 93.99,-33.17 100.88,-31.95"/>
</a>
</g>
</g>
<!-- Node14&#45;&gt;Node7 -->
<g id="edge29_Node000014_Node000007" class="edge">
<title>Node14&#45;&gt;Node7</title>
<g id="a_edge29_Node000014_Node000007"><a xlink:title=" ">
<path fill="none" stroke="#63b8ff" d="M459.18,-169.82C471.79,-161.71 488.65,-149.13 499.38,-134.25 522.21,-102.58 534.67,-58.05 540.39,-32.2"/>
<polygon fill="#63b8ff" stroke="#63b8ff" points="543.77,-33.14 542.37,-22.63 536.91,-31.72 543.77,-33.14"/>
</a>
</g>
</g>
<!-- Node14&#45;&gt;Node9 -->
<g id="edge28_Node000014_Node000009" class="edge">
<title>Node14&#45;&gt;Node9</title>
<g id="a_edge28_Node000014_Node000009"><a xlink:title=" ">
<path fill="none" stroke="#63b8ff" d="M424.14,-169.84C408.69,-161.55 386.29,-149.52 368.54,-139.99"/>
<polygon fill="#63b8ff" stroke="#63b8ff" points="370.25,-136.94 359.79,-135.29 366.94,-143.11 370.25,-136.94"/>
</a>
</g>
</g>
<!-- Node15 -->
<g id="Node000015" class="node">
<title>Node15</title>
<g id="a_Node000015"><a xlink:title=" ">
<polygon fill="#e0e0e0" stroke="#999999" points="659.88,-134.25 610.88,-134.25 610.88,-113.5 659.88,-113.5 659.88,-134.25"/>
<text text-anchor="middle" x="635.38" y="-120.75" font-family="Helvetica,sans-Serif" font-size="10.00">chrono</text>
</a>
</g>
</g>
<!-- Node14&#45;&gt;Node15 -->
<g id="edge21_Node000014_Node000015" class="edge">
<title>Node14&#45;&gt;Node15</title>
<g id="a_edge21_Node000014_Node000015"><a xlink:title=" ">
<path fill="none" stroke="#63b8ff" d="M466.04,-172.91C499.48,-163.43 560.81,-146.03 599.77,-134.98"/>
<polygon fill="#63b8ff" stroke="#63b8ff" points="600.48,-138.41 609.14,-132.32 598.57,-131.68 600.48,-138.41"/>
</a>
</g>
</g>
<!-- Node16 -->
<g id="Node000016" class="node">
<title>Node16</title>
<g id="a_Node000016"><a xlink:title=" ">
<polygon fill="#e0e0e0" stroke="#999999" points="723,-134.25 677.75,-134.25 677.75,-113.5 723,-113.5 723,-134.25"/>
<text text-anchor="middle" x="700.38" y="-120.75" font-family="Helvetica,sans-Serif" font-size="10.00">cstdio</text>
</a>
</g>
</g>
<!-- Node14&#45;&gt;Node16 -->
<g id="edge22_Node000014_Node000016" class="edge">
<title>Node14&#45;&gt;Node16</title>
<g id="a_edge22_Node000014_Node000016"><a xlink:title=" ">
<path fill="none" stroke="#63b8ff" d="M466.07,-175.66C505.68,-168.88 588.05,-154.07 666.4,-134.83"/>
<polygon fill="#63b8ff" stroke="#63b8ff" points="667.09,-138.26 675.95,-132.45 665.4,-131.47 667.09,-138.26"/>
</a>
</g>
</g>
<!-- Node17 -->
<g id="Node000017" class="node">
<title>Node17</title>
<g id="a_Node000017"><a xlink:title=" ">
<polygon fill="#e0e0e0" stroke="#999999" points="440.12,-134.25 392.62,-134.25 392.62,-113.5 440.12,-113.5 440.12,-134.25"/>
<text text-anchor="middle" x="416.38" y="-120.75" font-family="Helvetica,sans-Serif" font-size="10.00">thread</text>
</a>
</g>
</g>
<!-- Node14&#45;&gt;Node17 -->
<g id="edge26_Node000014_Node000017" class="edge">
<title>Node14&#45;&gt;Node17</title>
<g id="a_edge26_Node000014_Node000017"><a xlink:title=" ">
<path fill="none" stroke="#63b8ff" d="M437.73,-169.84C434.44,-162.91 429.91,-153.37 425.87,-144.86"/>
<polygon fill="#63b8ff" stroke="#63b8ff" points="429.08,-143.48 421.63,-135.95 422.76,-146.48 429.08,-143.48"/>
</a>
</g>
</g>
</g>
</svg>
