<?xml version="1.0" encoding="UTF-8" standalone="no"?>
<!DOCTYPE svg PUBLIC "-//W3C//DTD SVG 1.1//EN"
 "http://www.w3.org/Graphics/SVG/1.1/DTD/svg11.dtd">
<!-- Generated by graphviz version 12.2.1 (0)
 -->
<!-- Title: src/User.hpp Pages: 1 -->
<svg width="180pt" height="86pt"
 viewBox="0.00 0.00 179.75 85.50" xmlns="http://www.w3.org/2000/svg" xmlns:xlink="http://www.w3.org/1999/xlink">
<g id="graph0" class="graph" transform="scale(1 1) rotate(0) translate(4 81.5)">
<title>src/User.hpp</title>
<!-- Node1 -->
<g id="Node000001" class="node">
<title>Node1</title>
<g id="a_Node000001"><a xlink:title="Класс User как коллекция функций пользовательского интерфейса">
<polygon fill="#999999" stroke="#666666" points="122.62,-77.5 46.62,-77.5 46.62,-56.75 122.62,-56.75 122.62,-77.5"/>
<text text-anchor="middle" x="84.62" y="-64" font-family="Helvetica,sans-Serif" font-size="10.00">src/User.hpp</text>
</a>
</g>
</g>
<!-- Node2 -->
<g id="Node000002" class="node">
<title>Node2</title>
<g id="a_Node000002"><a xlink:href="User_8cpp.html" target="_top" xlink:title=" ">
<polygon fill="white" stroke="#666666" points="75.25,-20.75 0,-20.75 0,0 75.25,0 75.25,-20.75"/>
<text text-anchor="middle" x="37.62" y="-7.25" font-family="Helvetica,sans-Serif" font-size="10.00">src/User.cpp</text>
</a>
</g>
</g>
<!-- Node1&#45;&gt;Node2 -->
<g id="edge1_Node000001_Node000002" class="edge">
<title>Node1&#45;&gt;Node2</title>
<g id="a_edge1_Node000001_Node000002"><a xlink:title=" ">
<path fill="none" stroke="#63b8ff" d="M68.84,-47.74C61.18,-38.81 52.28,-28.45 45.95,-21.08"/>
<polygon fill="#63b8ff" stroke="#63b8ff" points="66.07,-49.88 75.24,-55.19 71.38,-45.32 66.07,-49.88"/>
</a>
</g>
</g>
<!-- Node3 -->
<g id="Node000003" class="node">
<title>Node3</title>
<g id="a_Node000003"><a xlink:href="main_8cpp.html" target="_top" xlink:title="Прога для комфортного кача с YouTube.">
<polygon fill="white" stroke="#666666" points="171.75,-20.75 93.5,-20.75 93.5,0 171.75,0 171.75,-20.75"/>
<text text-anchor="middle" x="132.62" y="-7.25" font-family="Helvetica,sans-Serif" font-size="10.00">src/main.cpp</text>
</a>
</g>
</g>
<!-- Node1&#45;&gt;Node3 -->
<g id="edge2_Node000001_Node000003" class="edge">
<title>Node1&#45;&gt;Node3</title>
<g id="a_edge2_Node000001_Node000003"><a xlink:title=" ">
<path fill="none" stroke="#63b8ff" d="M100.74,-47.74C108.57,-38.81 117.65,-28.45 124.12,-21.08"/>
<polygon fill="#63b8ff" stroke="#63b8ff" points="98.16,-45.37 94.2,-55.2 103.43,-49.99 98.16,-45.37"/>
</a>
</g>
</g>
</g>
</svg>
