<?xml version="1.0" encoding="UTF-8" standalone="no"?>
<!DOCTYPE svg PUBLIC "-//W3C//DTD SVG 1.1//EN"
 "http://www.w3.org/Graphics/SVG/1.1/DTD/svg11.dtd">
<!-- Generated by graphviz version 12.2.1 (0)
 -->
<!-- Title: src/User.cpp Pages: 1 -->
<svg width="192pt" height="142pt"
 viewBox="0.00 0.00 191.62 142.25" xmlns="http://www.w3.org/2000/svg" xmlns:xlink="http://www.w3.org/1999/xlink">
<g id="graph0" class="graph" transform="scale(1 1) rotate(0) translate(4 138.25)">
<title>src/User.cpp</title>
<!-- Node1 -->
<g id="Node000001" class="node">
<title>Node1</title>
<g id="a_Node000001"><a xlink:title=" ">
<polygon fill="#999999" stroke="#666666" points="137.38,-134.25 62.12,-134.25 62.12,-113.5 137.38,-113.5 137.38,-134.25"/>
<text text-anchor="middle" x="99.75" y="-120.75" font-family="Helvetica,sans-Serif" font-size="10.00">src/User.cpp</text>
</a>
</g>
</g>
<!-- Node2 -->
<g id="Node000002" class="node">
<title>Node2</title>
<g id="a_Node000002"><a xlink:href="User_8hpp.html" target="_top" xlink:title="Класс User как коллекция функций пользовательского интерфейса">
<polygon fill="white" stroke="#666666" points="129.12,-77.5 70.38,-77.5 70.38,-56.75 129.12,-56.75 129.12,-77.5"/>
<text text-anchor="middle" x="99.75" y="-64" font-family="Helvetica,sans-Serif" font-size="10.00">User.hpp</text>
</a>
</g>
</g>
<!-- Node1&#45;&gt;Node2 -->
<g id="edge1_Node000001_Node000002" class="edge">
<title>Node1&#45;&gt;Node2</title>
<g id="a_edge1_Node000001_Node000002"><a xlink:title=" ">
<path fill="none" stroke="#63b8ff" d="M99.75,-113.09C99.75,-106.47 99.75,-97.47 99.75,-89.27"/>
<polygon fill="#63b8ff" stroke="#63b8ff" points="103.25,-89.34 99.75,-79.34 96.25,-89.34 103.25,-89.34"/>
</a>
</g>
</g>
<!-- Node3 -->
<g id="Node000003" class="node">
<title>Node3</title>
<g id="a_Node000003"><a xlink:title=" ">
<polygon fill="#e0e0e0" stroke="#999999" points="59.5,-20.75 0,-20.75 0,0 59.5,0 59.5,-20.75"/>
<text text-anchor="middle" x="29.75" y="-7.25" font-family="Helvetica,sans-Serif" font-size="10.00">iostream</text>
</a>
</g>
</g>
<!-- Node2&#45;&gt;Node3 -->
<g id="edge2_Node000002_Node000003" class="edge">
<title>Node2&#45;&gt;Node3</title>
<g id="a_edge2_Node000002_Node000003"><a xlink:title=" ">
<path fill="none" stroke="#63b8ff" d="M87.24,-56.34C77.18,-48.47 62.84,-37.25 50.99,-27.99"/>
<polygon fill="#63b8ff" stroke="#63b8ff" points="53.38,-25.41 43.35,-22.01 49.07,-30.93 53.38,-25.41"/>
</a>
</g>
</g>
<!-- Node4 -->
<g id="Node000004" class="node">
<title>Node4</title>
<g id="a_Node000004"><a xlink:title=" ">
<polygon fill="#e0e0e0" stroke="#999999" points="121.62,-20.75 77.88,-20.75 77.88,0 121.62,0 121.62,-20.75"/>
<text text-anchor="middle" x="99.75" y="-7.25" font-family="Helvetica,sans-Serif" font-size="10.00">limits</text>
</a>
</g>
</g>
<!-- Node2&#45;&gt;Node4 -->
<g id="edge3_Node000002_Node000004" class="edge">
<title>Node2&#45;&gt;Node4</title>
<g id="a_edge3_Node000002_Node000004"><a xlink:title=" ">
<path fill="none" stroke="#63b8ff" d="M99.75,-56.34C99.75,-49.72 99.75,-40.72 99.75,-32.52"/>
<polygon fill="#63b8ff" stroke="#63b8ff" points="103.25,-32.59 99.75,-22.59 96.25,-32.59 103.25,-32.59"/>
</a>
</g>
</g>
<!-- Node5 -->
<g id="Node000005" class="node">
<title>Node5</title>
<g id="a_Node000005"><a xlink:title=" ">
<polygon fill="#e0e0e0" stroke="#999999" points="183.62,-20.75 139.88,-20.75 139.88,0 183.62,0 183.62,-20.75"/>
<text text-anchor="middle" x="161.75" y="-7.25" font-family="Helvetica,sans-Serif" font-size="10.00">string</text>
</a>
</g>
</g>
<!-- Node2&#45;&gt;Node5 -->
<g id="edge4_Node000002_Node000005" class="edge">
<title>Node2&#45;&gt;Node5</title>
<g id="a_edge4_Node000002_Node000005"><a xlink:title=" ">
<path fill="none" stroke="#63b8ff" d="M110.83,-56.34C119.56,-48.63 131.94,-37.7 142.31,-28.54"/>
<polygon fill="#63b8ff" stroke="#63b8ff" points="144.45,-31.32 149.63,-22.08 139.81,-26.08 144.45,-31.32"/>
</a>
</g>
</g>
</g>
</svg>
