<?xml version="1.0" encoding="UTF-8" standalone="no"?>
<!DOCTYPE svg PUBLIC "-//W3C//DTD SVG 1.1//EN"
 "http://www.w3.org/Graphics/SVG/1.1/DTD/svg11.dtd">
<!-- Generated by graphviz version 12.2.1 (0)
 -->
<!-- Title: src/Yt.hpp Pages: 1 -->
<svg width="168pt" height="86pt"
 viewBox="0.00 0.00 167.75 85.50" xmlns="http://www.w3.org/2000/svg" xmlns:xlink="http://www.w3.org/1999/xlink">
<g id="graph0" class="graph" transform="scale(1 1) rotate(0) translate(4 81.5)">
<title>src/Yt.hpp</title>
<!-- Node1 -->
<g id="Node000001" class="node">
<title>Node1</title>
<g id="a_Node000001"><a xlink:title="Класс Yt как коллекция функций для работы с yt&#45;dlp.">
<polygon fill="#999999" stroke="#666666" points="107.62,-77.5 43.62,-77.5 43.62,-56.75 107.62,-56.75 107.62,-77.5"/>
<text text-anchor="middle" x="75.62" y="-64" font-family="Helvetica,sans-Serif" font-size="10.00">src/Yt.hpp</text>
</a>
</g>
</g>
<!-- Node2 -->
<g id="Node000002" class="node">
<title>Node2</title>
<g id="a_Node000002"><a xlink:href="Yt_8cpp.html" target="_top" xlink:title=" ">
<polygon fill="white" stroke="#666666" points="63.25,-20.75 0,-20.75 0,0 63.25,0 63.25,-20.75"/>
<text text-anchor="middle" x="31.62" y="-7.25" font-family="Helvetica,sans-Serif" font-size="10.00">src/Yt.cpp</text>
</a>
</g>
</g>
<!-- Node1&#45;&gt;Node2 -->
<g id="edge1_Node000001_Node000002" class="edge">
<title>Node1&#45;&gt;Node2</title>
<g id="a_edge1_Node000001_Node000002"><a xlink:title=" ">
<path fill="none" stroke="#63b8ff" d="M60.62,-47.46C53.5,-38.59 45.29,-28.37 39.42,-21.08"/>
<polygon fill="#63b8ff" stroke="#63b8ff" points="57.82,-49.55 66.81,-55.16 63.27,-45.17 57.82,-49.55"/>
</a>
</g>
</g>
<!-- Node3 -->
<g id="Node000003" class="node">
<title>Node3</title>
<g id="a_Node000003"><a xlink:href="main_8cpp.html" target="_top" xlink:title="Прога для комфортного кача с YouTube.">
<polygon fill="white" stroke="#666666" points="159.75,-20.75 81.5,-20.75 81.5,0 159.75,0 159.75,-20.75"/>
<text text-anchor="middle" x="120.62" y="-7.25" font-family="Helvetica,sans-Serif" font-size="10.00">src/main.cpp</text>
</a>
</g>
</g>
<!-- Node1&#45;&gt;Node3 -->
<g id="edge2_Node000001_Node000003" class="edge">
<title>Node1&#45;&gt;Node3</title>
<g id="a_edge2_Node000001_Node000003"><a xlink:title=" ">
<path fill="none" stroke="#63b8ff" d="M90.97,-47.46C98.25,-38.59 106.65,-28.37 112.65,-21.08"/>
<polygon fill="#63b8ff" stroke="#63b8ff" points="88.28,-45.22 84.63,-55.17 93.68,-49.66 88.28,-45.22"/>
</a>
</g>
</g>
</g>
</svg>
