<?xml version="1.0" encoding="UTF-8" standalone="no"?>
<!DOCTYPE svg PUBLIC "-//W3C//DTD SVG 1.1//EN"
 "http://www.w3.org/Graphics/SVG/1.1/DTD/svg11.dtd">
<!-- Generated by graphviz version 12.2.1 (0)
 -->
<!-- Title: src/Yt.cpp Pages: 1 -->
<svg width="720pt" height="256pt"
 viewBox="0.00 0.00 720.25 255.75" xmlns="http://www.w3.org/2000/svg" xmlns:xlink="http://www.w3.org/1999/xlink">
<g id="graph0" class="graph" transform="scale(1 1) rotate(0) translate(4 251.75)">
<title>src/Yt.cpp</title>
<!-- Node1 -->
<g id="Node000001" class="node">
<title>Node1</title>
<g id="a_Node000001"><a xlink:title=" ">
<polygon fill="#999999" stroke="#666666" points="341.12,-247.75 277.88,-247.75 277.88,-227 341.12,-227 341.12,-247.75"/>
<text text-anchor="middle" x="309.5" y="-234.25" font-family="Helvetica,sans-Serif" font-size="10.00">src/Yt.cpp</text>
</a>
</g>
</g>
<!-- Node2 -->
<g id="Node000002" class="node">
<title>Node2</title>
<g id="a_Node000002"><a xlink:href="Yt_8hpp.html" target="_top" xlink:title=" ">
<polygon fill="white" stroke="#666666" points="332.88,-191 286.12,-191 286.12,-170.25 332.88,-170.25 332.88,-191"/>
<text text-anchor="middle" x="309.5" y="-177.5" font-family="Helvetica,sans-Serif" font-size="10.00">Yt.hpp</text>
</a>
</g>
</g>
<!-- Node1&#45;&gt;Node2 -->
<g id="edge1_Node000001_Node000002" class="edge">
<title>Node1&#45;&gt;Node2</title>
<g id="a_edge1_Node000001_Node000002"><a xlink:title=" ">
<path fill="none" stroke="#63b8ff" d="M309.5,-226.59C309.5,-219.97 309.5,-210.97 309.5,-202.77"/>
<polygon fill="#63b8ff" stroke="#63b8ff" points="313,-202.84 309.5,-192.84 306,-202.84 313,-202.84"/>
</a>
</g>
</g>
<!-- Node3 -->
<g id="Node000003" class="node">
<title>Node3</title>
<g id="a_Node000003"><a xlink:title=" ">
<polygon fill="#e0e0e0" stroke="#999999" points="49,-134.25 0,-134.25 0,-113.5 49,-113.5 49,-134.25"/>
<text text-anchor="middle" x="24.5" y="-120.75" font-family="Helvetica,sans-Serif" font-size="10.00">chrono</text>
</a>
</g>
</g>
<!-- Node2&#45;&gt;Node3 -->
<g id="edge2_Node000002_Node000003" class="edge">
<title>Node2&#45;&gt;Node3</title>
<g id="a_edge2_Node000002_Node000003"><a xlink:title=" ">
<path fill="none" stroke="#63b8ff" d="M285.72,-176.14C242.62,-169.67 148.59,-154.76 60.31,-134.74"/>
<polygon fill="#63b8ff" stroke="#63b8ff" points="61.3,-131.37 50.77,-132.54 59.73,-138.19 61.3,-131.37"/>
</a>
</g>
</g>
<!-- Node4 -->
<g id="Node000004" class="node">
<title>Node4</title>
<g id="a_Node000004"><a xlink:title=" ">
<polygon fill="#e0e0e0" stroke="#999999" points="112.12,-134.25 66.88,-134.25 66.88,-113.5 112.12,-113.5 112.12,-134.25"/>
<text text-anchor="middle" x="89.5" y="-120.75" font-family="Helvetica,sans-Serif" font-size="10.00">cstdio</text>
</a>
</g>
</g>
<!-- Node2&#45;&gt;Node4 -->
<g id="edge3_Node000002_Node000004" class="edge">
<title>Node2&#45;&gt;Node4</title>
<g id="a_edge3_Node000002_Node000004"><a xlink:title=" ">
<path fill="none" stroke="#63b8ff" d="M285.8,-173.79C250.91,-165.19 183.65,-148.58 126.5,-134.25 125.52,-134 124.52,-133.75 123.51,-133.5"/>
<polygon fill="#63b8ff" stroke="#63b8ff" points="124.61,-130.17 114.06,-131.11 122.9,-136.95 124.61,-130.17"/>
</a>
</g>
</g>
<!-- Node5 -->
<g id="Node000005" class="node">
<title>Node5</title>
<g id="a_Node000005"><a xlink:title=" ">
<polygon fill="#e0e0e0" stroke="#999999" points="493.62,-20.75 445.38,-20.75 445.38,0 493.62,0 493.62,-20.75"/>
<text text-anchor="middle" x="469.5" y="-7.25" font-family="Helvetica,sans-Serif" font-size="10.00">cstdlib</text>
</a>
</g>
</g>
<!-- Node2&#45;&gt;Node5 -->
<g id="edge4_Node000002_Node000005" class="edge">
<title>Node2&#45;&gt;Node5</title>
<g id="a_edge4_Node000002_Node000005"><a xlink:title=" ">
<path fill="none" stroke="#63b8ff" d="M333.24,-177.42C382.28,-171.44 494.13,-150.11 541.5,-77.5 555.29,-56.36 528.75,-37.46 504.09,-25.34"/>
<polygon fill="#63b8ff" stroke="#63b8ff" points="505.68,-22.21 495.13,-21.2 502.74,-28.57 505.68,-22.21"/>
</a>
</g>
</g>
<!-- Node6 -->
<g id="Node000006" class="node">
<title>Node6</title>
<g id="a_Node000006"><a xlink:title=" ">
<polygon fill="#e0e0e0" stroke="#999999" points="201.25,-20.75 141.75,-20.75 141.75,0 201.25,0 201.25,-20.75"/>
<text text-anchor="middle" x="171.5" y="-7.25" font-family="Helvetica,sans-Serif" font-size="10.00">iostream</text>
</a>
</g>
</g>
<!-- Node2&#45;&gt;Node6 -->
<g id="edge5_Node000002_Node000006" class="edge">
<title>Node2&#45;&gt;Node6</title>
<g id="a_edge5_Node000002_Node000006"><a xlink:title=" ">
<path fill="none" stroke="#63b8ff" d="M299.91,-169.75C291.24,-160.7 278.21,-146.84 267.5,-134.25 236.97,-98.37 203.59,-54.49 185.34,-30.07"/>
<polygon fill="#63b8ff" stroke="#63b8ff" points="188.38,-28.3 179.6,-22.37 182.77,-32.48 188.38,-28.3"/>
</a>
</g>
</g>
<!-- Node7 -->
<g id="Node000007" class="node">
<title>Node7</title>
<g id="a_Node000007"><a xlink:title=" ">
<polygon fill="#e0e0e0" stroke="#999999" points="263.38,-20.75 219.62,-20.75 219.62,0 263.38,0 263.38,-20.75"/>
<text text-anchor="middle" x="241.5" y="-7.25" font-family="Helvetica,sans-Serif" font-size="10.00">string</text>
</a>
</g>
</g>
<!-- Node2&#45;&gt;Node7 -->
<g id="edge6_Node000002_Node000007" class="edge">
<title>Node2&#45;&gt;Node7</title>
<g id="a_edge6_Node000002_Node000007"><a xlink:title=" ">
<path fill="none" stroke="#63b8ff" d="M303.17,-169.91C291.94,-152.23 268.48,-113.33 255.5,-77.5 250.17,-62.78 246.59,-45.45 244.39,-32.23"/>
<polygon fill="#63b8ff" stroke="#63b8ff" points="247.88,-31.88 242.91,-22.52 240.96,-32.93 247.88,-31.88"/>
</a>
</g>
</g>
<!-- Node8 -->
<g id="Node000008" class="node">
<title>Node8</title>
<g id="a_Node000008"><a xlink:title=" ">
<polygon fill="#e0e0e0" stroke="#999999" points="712.25,-134.25 664.75,-134.25 664.75,-113.5 712.25,-113.5 712.25,-134.25"/>
<text text-anchor="middle" x="688.5" y="-120.75" font-family="Helvetica,sans-Serif" font-size="10.00">thread</text>
</a>
</g>
</g>
<!-- Node2&#45;&gt;Node8 -->
<g id="edge7_Node000002_Node000008" class="edge">
<title>Node2&#45;&gt;Node8</title>
<g id="a_edge7_Node000002_Node000008"><a xlink:title=" ">
<path fill="none" stroke="#63b8ff" d="M333.21,-177.37C388.89,-171.89 532.26,-156.63 650.5,-134.25 651.49,-134.06 652.5,-133.86 653.51,-133.66"/>
<polygon fill="#63b8ff" stroke="#63b8ff" points="653.98,-137.14 662.99,-131.55 652.47,-130.31 653.98,-137.14"/>
</a>
</g>
</g>
<!-- Node9 -->
<g id="Node000009" class="node">
<title>Node9</title>
<g id="a_Node000009"><a xlink:href="Cfg_8hpp.html" target="_top" xlink:title="Класс Cfg и глобальная переменная config.">
<polygon fill="white" stroke="#666666" points="336.25,-77.5 282.75,-77.5 282.75,-56.75 336.25,-56.75 336.25,-77.5"/>
<text text-anchor="middle" x="309.5" y="-64" font-family="Helvetica,sans-Serif" font-size="10.00">Cfg.hpp</text>
</a>
</g>
</g>
<!-- Node2&#45;&gt;Node9 -->
<g id="edge8_Node000002_Node000009" class="edge">
<title>Node2&#45;&gt;Node9</title>
<g id="a_edge8_Node000002_Node000009"><a xlink:title=" ">
<path fill="none" stroke="#63b8ff" d="M309.5,-170.12C309.5,-152.35 309.5,-113.72 309.5,-89.43"/>
<polygon fill="#63b8ff" stroke="#63b8ff" points="313,-89.44 309.5,-79.44 306,-89.44 313,-89.44"/>
</a>
</g>
</g>
<!-- Node11 -->
<g id="Node000011" class="node">
<title>Node11</title>
<g id="a_Node000011"><a xlink:href="config_8hpp.html" target="_top" xlink:title="Константы">
<polygon fill="white" stroke="#666666" points="593.62,-20.75 527.38,-20.75 527.38,0 593.62,0 593.62,-20.75"/>
<text text-anchor="middle" x="560.5" y="-7.25" font-family="Helvetica,sans-Serif" font-size="10.00">config.hpp</text>
</a>
</g>
</g>
<!-- Node2&#45;&gt;Node11 -->
<g id="edge23_Node000002_Node000011" class="edge">
<title>Node2&#45;&gt;Node11</title>
<g id="a_edge23_Node000002_Node000011"><a xlink:title=" ">
<path fill="none" stroke="#63b8ff" d="M333.17,-178.83C372.15,-176.55 451.13,-167.8 507.5,-134.25 536.39,-117.06 544.91,-108.67 557.5,-77.5 563.24,-63.29 563.81,-45.94 563.04,-32.57"/>
<polygon fill="#63b8ff" stroke="#63b8ff" points="566.54,-32.37 562.16,-22.72 559.57,-33 566.54,-32.37"/>
</a>
</g>
</g>
<!-- Node13 -->
<g id="Node000013" class="node">
<title>Node13</title>
<g id="a_Node000013"><a xlink:href="Fs_8hpp.html" target="_top" xlink:title="Класс Fs как коллекция функций для работы с файловой системой">
<polygon fill="white" stroke="#666666" points="395.62,-134.25 347.38,-134.25 347.38,-113.5 395.62,-113.5 395.62,-134.25"/>
<text text-anchor="middle" x="371.5" y="-120.75" font-family="Helvetica,sans-Serif" font-size="10.00">Fs.hpp</text>
</a>
</g>
</g>
<!-- Node2&#45;&gt;Node13 -->
<g id="edge15_Node000002_Node000013" class="edge">
<title>Node2&#45;&gt;Node13</title>
<g id="a_edge15_Node000002_Node000013"><a xlink:title=" ">
<path fill="none" stroke="#63b8ff" d="M320.58,-169.84C329.31,-162.13 341.69,-151.2 352.06,-142.04"/>
<polygon fill="#63b8ff" stroke="#63b8ff" points="354.2,-144.82 359.38,-135.58 349.56,-139.58 354.2,-144.82"/>
</a>
</g>
</g>
<!-- Node9&#45;&gt;Node5 -->
<g id="edge9_Node000009_Node000005" class="edge">
<title>Node9&#45;&gt;Node5</title>
<g id="a_edge9_Node000009_Node000005"><a xlink:title=" ">
<path fill="none" stroke="#63b8ff" d="M336.64,-56.84C363.6,-47.61 405.05,-33.43 434.48,-23.36"/>
<polygon fill="#63b8ff" stroke="#63b8ff" points="435.35,-26.76 443.68,-20.21 433.09,-20.14 435.35,-26.76"/>
</a>
</g>
</g>
<!-- Node9&#45;&gt;Node6 -->
<g id="edge10_Node000009_Node000006" class="edge">
<title>Node9&#45;&gt;Node6</title>
<g id="a_edge10_Node000009_Node000006"><a xlink:title=" ">
<path fill="none" stroke="#63b8ff" d="M284.83,-56.34C263.05,-47.69 231.04,-35 206.59,-25.3"/>
<polygon fill="#63b8ff" stroke="#63b8ff" points="207.95,-22.07 197.36,-21.64 205.37,-28.58 207.95,-22.07"/>
</a>
</g>
</g>
<!-- Node9&#45;&gt;Node7 -->
<g id="edge12_Node000009_Node000007" class="edge">
<title>Node9&#45;&gt;Node7</title>
<g id="a_edge12_Node000009_Node000007"><a xlink:title=" ">
<path fill="none" stroke="#63b8ff" d="M297.34,-56.34C287.67,-48.55 273.92,-37.47 262.48,-28.26"/>
<polygon fill="#63b8ff" stroke="#63b8ff" points="264.71,-25.57 254.73,-22.03 260.32,-31.03 264.71,-25.57"/>
</a>
</g>
</g>
<!-- Node10 -->
<g id="Node000010" class="node">
<title>Node10</title>
<g id="a_Node000010"><a xlink:title=" ">
<polygon fill="#e0e0e0" stroke="#999999" points="337.75,-20.75 281.25,-20.75 281.25,0 337.75,0 337.75,-20.75"/>
<text text-anchor="middle" x="309.5" y="-7.25" font-family="Helvetica,sans-Serif" font-size="10.00">getopt.h</text>
</a>
</g>
</g>
<!-- Node9&#45;&gt;Node10 -->
<g id="edge11_Node000009_Node000010" class="edge">
<title>Node9&#45;&gt;Node10</title>
<g id="a_edge11_Node000009_Node000010"><a xlink:title=" ">
<path fill="none" stroke="#63b8ff" d="M309.5,-56.34C309.5,-49.72 309.5,-40.72 309.5,-32.52"/>
<polygon fill="#63b8ff" stroke="#63b8ff" points="313,-32.59 309.5,-22.59 306,-32.59 313,-32.59"/>
</a>
</g>
</g>
<!-- Node9&#45;&gt;Node11 -->
<g id="edge13_Node000009_Node000011" class="edge">
<title>Node9&#45;&gt;Node11</title>
<g id="a_edge13_Node000009_Node000011"><a xlink:title=" ">
<path fill="none" stroke="#63b8ff" d="M336.59,-58.92C339.59,-58.17 342.61,-57.43 345.5,-56.75 404.13,-42.94 472.22,-28.9 515.8,-20.17"/>
<polygon fill="#63b8ff" stroke="#63b8ff" points="516.27,-23.65 525.39,-18.26 514.9,-16.79 516.27,-23.65"/>
</a>
</g>
</g>
<!-- Node12 -->
<g id="Node000012" class="node">
<title>Node12</title>
<g id="a_Node000012"><a xlink:title=" ">
<polygon fill="#e0e0e0" stroke="#999999" points="427.62,-20.75 355.38,-20.75 355.38,0 427.62,0 427.62,-20.75"/>
<text text-anchor="middle" x="391.5" y="-7.25" font-family="Helvetica,sans-Serif" font-size="10.00">INIReader.h</text>
</a>
</g>
</g>
<!-- Node9&#45;&gt;Node12 -->
<g id="edge14_Node000009_Node000012" class="edge">
<title>Node9&#45;&gt;Node12</title>
<g id="a_edge14_Node000009_Node000012"><a xlink:title=" ">
<path fill="none" stroke="#63b8ff" d="M324.16,-56.34C336.17,-48.32 353.41,-36.81 367.44,-27.44"/>
<polygon fill="#63b8ff" stroke="#63b8ff" points="369.34,-30.38 375.71,-21.92 365.45,-24.56 369.34,-30.38"/>
</a>
</g>
</g>
<!-- Node13&#45;&gt;Node5 -->
<g id="edge16_Node000013_Node000005" class="edge">
<title>Node13&#45;&gt;Node5</title>
<g id="a_edge16_Node000013_Node000005"><a xlink:title=" ">
<path fill="none" stroke="#63b8ff" d="M382.11,-113.14C391.68,-104.18 405.99,-90.38 417.5,-77.5 431.15,-62.23 445.45,-43.84 455.59,-30.34"/>
<polygon fill="#63b8ff" stroke="#63b8ff" points="458.4,-32.43 461.55,-22.31 452.78,-28.25 458.4,-32.43"/>
</a>
</g>
</g>
<!-- Node13&#45;&gt;Node6 -->
<g id="edge19_Node000013_Node000006" class="edge">
<title>Node13&#45;&gt;Node6</title>
<g id="a_edge19_Node000013_Node000006"><a xlink:title=" ">
<path fill="none" stroke="#63b8ff" d="M347.01,-115.63C322.86,-107.95 285.34,-94.58 255.5,-77.5 231.17,-63.57 206.31,-43.07 190.02,-28.59"/>
<polygon fill="#63b8ff" stroke="#63b8ff" points="192.79,-26.37 183.02,-22.26 188.09,-31.56 192.79,-26.37"/>
</a>
</g>
</g>
<!-- Node13&#45;&gt;Node7 -->
<g id="edge20_Node000013_Node000007" class="edge">
<title>Node13&#45;&gt;Node7</title>
<g id="a_edge20_Node000013_Node000007"><a xlink:title=" ">
<path fill="none" stroke="#63b8ff" d="M347.03,-116.65C325.37,-110.05 294.09,-97.74 273.5,-77.5 260.71,-64.93 252.32,-46.21 247.35,-31.9"/>
<polygon fill="#63b8ff" stroke="#63b8ff" points="250.76,-31.07 244.41,-22.59 244.08,-33.18 250.76,-31.07"/>
</a>
</g>
</g>
<!-- Node13&#45;&gt;Node9 -->
<g id="edge21_Node000013_Node000009" class="edge">
<title>Node13&#45;&gt;Node9</title>
<g id="a_edge21_Node000013_Node000009"><a xlink:title=" ">
<path fill="none" stroke="#63b8ff" d="M360.42,-113.09C351.69,-105.38 339.31,-94.45 328.94,-85.29"/>
<polygon fill="#63b8ff" stroke="#63b8ff" points="331.44,-82.83 321.62,-78.83 326.8,-88.07 331.44,-82.83"/>
</a>
</g>
</g>
<!-- Node13&#45;&gt;Node11 -->
<g id="edge22_Node000013_Node000011" class="edge">
<title>Node13&#45;&gt;Node11</title>
<g id="a_edge22_Node000013_Node000011"><a xlink:title=" ">
<path fill="none" stroke="#63b8ff" d="M395.95,-123.45C432.63,-122.94 501.82,-116.44 541.5,-77.5 553.5,-65.72 558.05,-46.91 559.71,-32.35"/>
<polygon fill="#63b8ff" stroke="#63b8ff" points="563.2,-32.68 560.43,-22.45 556.22,-32.17 563.2,-32.68"/>
</a>
</g>
</g>
<!-- Node14 -->
<g id="Node000014" class="node">
<title>Node14</title>
<g id="a_Node000014"><a xlink:title=" ">
<polygon fill="#e0e0e0" stroke="#999999" points="532,-77.5 465,-77.5 465,-56.75 532,-56.75 532,-77.5"/>
<text text-anchor="middle" x="498.5" y="-64" font-family="Helvetica,sans-Serif" font-size="10.00">filesystem</text>
</a>
</g>
</g>
<!-- Node13&#45;&gt;Node14 -->
<g id="edge17_Node000013_Node000014" class="edge">
<title>Node13&#45;&gt;Node14</title>
<g id="a_edge17_Node000013_Node000014"><a xlink:title=" ">
<path fill="none" stroke="#63b8ff" d="M394.21,-113.09C414.07,-104.52 443.17,-91.98 465.59,-82.31"/>
<polygon fill="#63b8ff" stroke="#63b8ff" points="466.8,-85.6 474.6,-78.43 464.03,-79.17 466.8,-85.6"/>
</a>
</g>
</g>
<!-- Node15 -->
<g id="Node000015" class="node">
<title>Node15</title>
<g id="a_Node000015"><a xlink:title=" ">
<polygon fill="#e0e0e0" stroke="#999999" points="408.62,-77.5 354.38,-77.5 354.38,-56.75 408.62,-56.75 408.62,-77.5"/>
<text text-anchor="middle" x="381.5" y="-64" font-family="Helvetica,sans-Serif" font-size="10.00">fstream</text>
</a>
</g>
</g>
<!-- Node13&#45;&gt;Node15 -->
<g id="edge18_Node000013_Node000015" class="edge">
<title>Node13&#45;&gt;Node15</title>
<g id="a_edge18_Node000013_Node000015"><a xlink:title=" ">
<path fill="none" stroke="#63b8ff" d="M373.29,-113.09C374.51,-106.39 376.18,-97.26 377.69,-88.98"/>
<polygon fill="#63b8ff" stroke="#63b8ff" points="381.1,-89.78 379.46,-79.32 374.22,-88.53 381.1,-89.78"/>
</a>
</g>
</g>
</g>
</svg>
